<svg xmlns="http://www.w3.org/2000/svg" viewBox="0 0 1008.3 768.4" enable-background="new 0 0 1008.3 768.4"><pattern x="-15.7" y=".4" width="38" height="38" patternUnits="userSpaceOnUse" id="ck" viewBox="12.9 -44.7 38 38" overflow="visible"><path d="M12.9-44.7h38v38h-38z" fill="none"/><linearGradient id="a" gradientUnits="userSpaceOnUse" x1="-79.48" y1="-15309.689" x2="-83.607" y2="-15306.915" gradientTransform="matrix(1 0 0 -1 135.243 -15314.69)"><stop offset=".006" stop-color="#25534D"/><stop offset=".438" stop-color="#618E87"/><stop offset="1" stop-color="#B2C3C0"/></linearGradient><path fill="url(#a)" d="M60.3-3.7s-.5-.7-1.1-.8c-.6-.1-.8-.2-1.2 0-.4.2-.7.8-1 .7-.3 0-.8-.6-1.2-.9-.4-.3-.8-.5-1.2-.3-.4.2-.9.1-1.1 0-.2-.1-.3 0-.6.1s-1.1-.2-1.5-.6c-.4-.4-1-.8-1.5-.8 0 0 .3.1 1.1-.1s2.5-.7 3.1-1c.7-.3 1.4-.5 2.3.1.9.6 2.6 1.5 2.9 2 .2.5.6.7.8 1l.5.5-.3.1z"/><linearGradient id="b" gradientUnits="userSpaceOnUse" x1="-95.447" y1="-15304.475" x2="-93.279" y2="-15300.004" gradientTransform="matrix(1 0 0 -1 135.243 -15314.69)"><stop offset=".006" stop-color="#25534D"/><stop offset=".438" stop-color="#618E87"/><stop offset="1" stop-color="#B2C3C0"/></linearGradient><path fill="url(#b)" d="M41-9.4s-1.2-.8-1.5-1.4c-.3-.6-.2-1.8-.3-2.1-.1-.4-.4-1.6-.6-1.8 0 0 .3.3.8.7.5.4 1.1 0 2.1.7 1.1.7 1.6 3.1 1.2 4-.3.9-1.2.3-1.7-.1z"/><path fill="#25534D" d="M42-9.7s-.3-.4-.4-.6c-.1-.2-1.1-2-1.4-2.2 0 0 .6 1 .8 1.4 0 0-1.1-.3-1.3-.2 0 0 1.1.2 1.3.4 0 0 .2.4.3.5.1.1-.9.1-1.1.2 0 0 1-.1 1.1 0l.3.3c.1.1.3.5.3.5l.1-.3zm.1-.6s-.2-.3-.2-.5-.2-.4-.4-.7c-.2-.3-.2-.6-.4-.7 0 0 .5.7.7.9.2.2.2-.1.1-.5s.2.2.2.8c0 .5.3.3.4 0 .1-.3.2.4 0 .8-.2.5-.2.1-.4-.1z"/><linearGradient id="c" gradientUnits="userSpaceOnUse" x1="-94.461" y1="-15302.829" x2="-96.565" y2="-15301.415" gradientTransform="matrix(1 0 0 -1 135.243 -15314.69)"><stop offset=".006" stop-color="#25534D"/><stop offset=".438" stop-color="#618E87"/><stop offset="1" stop-color="#B2C3C0"/></linearGradient><path fill="url(#c)" d="M42.3-9.9s-.5-.3-.7-.9c-.2-.6-1-1.8-1.4-2.1-.4-.3-1.2-1.1-1.3-1.3 0 0 0 .1.2.3.2.2.7.7.9 1 .2.3.8.9 1 1.3.2.3 1.1 1.8 1.2 1.8l.1-.1z"/><linearGradient id="d" gradientUnits="userSpaceOnUse" x1="-98.48" y1="-15309.689" x2="-102.607" y2="-15306.915" gradientTransform="matrix(1 0 0 -1 135.243 -15314.69)"><stop offset=".006" stop-color="#25534D"/><stop offset=".438" stop-color="#618E87"/><stop offset="1" stop-color="#B2C3C0"/></linearGradient><path fill="url(#d)" d="M41.3-3.7s-.5-.7-1.1-.8c-.6-.1-.8-.2-1.2 0-.4.2-.7.8-1 .7-.3 0-.8-.6-1.2-.9-.4-.3-.8-.5-1.2-.3-.4.2-.9.1-1.1 0-.2-.1-.3 0-.6.1s-1.1-.2-1.5-.6c-.4-.4-1-.8-1.5-.8 0 0 .3.1 1.1-.1s2.5-.7 3.1-1c.7-.3 1.4-.5 2.3.1.9.6 2.6 1.5 2.9 2 .2.5.6.7.8 1l.5.5-.3.1z"/><path fill="#25534D" d="M38.1-6.3s-1.3-.3-1.8-.3c-.4 0-1.1-.2-1.1-.2h.6c.5 0 .5-.3.3-.4-.3-.2-.1-.4.5.2.6.7.5.1.5 0s.2 0 .4.3l.6.4z"/><linearGradient id="e" gradientUnits="userSpaceOnUse" x1="-88.544" y1="-15300.334" x2="-85.312" y2="-15300.334" gradientTransform="matrix(1 0 0 -1 135.243 -15314.69)"><stop offset=".006" stop-color="#F6A18E"/><stop offset=".438" stop-color="#FCCFA1"/><stop offset="1" stop-color="#F5E9DF"/></linearGradient><path fill="url(#e)" d="M46.9-14s.3-.6.6-.9c.3-.3 1-.5 1.6-.8l.7-.3s.1.1.1.2v.3s-.3.1-.5.4c-.2.3-.4 1.1-.8 1.6s-1.2 1-1.6.8c-.3-.2-.5-.9-.1-1.3z"/><linearGradient id="f" gradientUnits="userSpaceOnUse" x1="-88.786" y1="-15303.577" x2="-86.155" y2="-15298.153" gradientTransform="matrix(1 0 0 -1 135.243 -15314.69)"><stop offset=".006" stop-color="#25534D"/><stop offset=".438" stop-color="#618E87"/><stop offset="1" stop-color="#B2C3C0"/></linearGradient><path fill="url(#f)" d="M46.2-11.1c.3-.9.3-.9.4-1.1 0-.3-.1-.3-.1-.7 0-.3-.1-.9.2-1.2.2-.3.6-.6.7-.9 0 0-.1.4-.2.6 0 0 .7-.3.9-.2.2 0 .5-.2.6-.4 0 0-.3.3-.2.5 0 .3-.1.6-.5 1.2l-.1.1c.2-.1.6-.1.8-.4.1-.3.5-.7.7-.7 0 0-.2.3-.3.6-.2.3-.6 1.4-1.3 1.2 0 0-.4.4-.6.3 0 0-.4 1-.6 1.3"/><linearGradient id="g" gradientUnits="userSpaceOnUse" x1="-95.698" y1="-15307.912" x2="-95.772" y2="-15304.361" gradientTransform="matrix(1 0 0 -1 135.243 -15314.69)"><stop offset=".006" stop-color="#F6A18E"/><stop offset=".438" stop-color="#FCCFA1"/><stop offset="1" stop-color="#F5E9DF"/></linearGradient><path fill="url(#g)" d="M37.9-7.8s-.3-1.3-.5-1.6c-.2-.3 0-.8.2-.6.2.2 1.5.5 1.9.3.4-.2 1.6-.3 1.9-.1.3.2-.1 1.4-.1 1.4l-2.1 1.1-1.3-.5z"/><linearGradient id="h" gradientUnits="userSpaceOnUse" x1="-88.908" y1="-15313.62" x2="-90.729" y2="-15305.123" gradientTransform="matrix(1 0 0 -1 135.243 -15314.69)"><stop offset=".006" stop-color="#E38B79"/><stop offset=".438" stop-color="#FCCFA1"/><stop offset="1" stop-color="#F5E9DF"/></linearGradient><path fill="url(#h)" d="M45.1 0s-.5-.2-1.5-.1c-.9.1-2.5-.4-3.3-1.4-.8-1-2.3-6.2-2.3-6.2l10.7-.9s1.5-.5 1.7-.7c.2-.2.3-.1.4.1l.4.2c.1.1-.1.7.3.9.3.2.5.2.3.7-.2.5-.3 3.6-.3 4 0 .4-.5.4-1 .6-.6.2-1.3.6-1.5.7-.2.1-.9.3-1 .3-.2 0-.6 1.5-2.9 1.8z"/><linearGradient id="i" gradientUnits="userSpaceOnUse" x1="-87.958" y1="-15310.641" x2="-84.48" y2="-15307.186" gradientTransform="matrix(1 0 0 -1 135.243 -15314.69)"><stop offset=".006" stop-color="#E38B79"/><stop offset=".438" stop-color="#FCCFA1"/><stop offset="1" stop-color="#F5E9DF"/></linearGradient><path fill="url(#i)" d="M50.8-5.9s-.2 0-.3-.3c-.1-.3-.1-.5-.3-.6-.2-.1-.7-.4-.9-.4-.2.1-.8.2-.9.4-.1.2-2.2 2.9-2.2 2.9s-.2.4.2.3c.5-.1 3.9-1.6 4.4-2.3z"/><linearGradient id="j" gradientUnits="userSpaceOnUse" x1="-93.547" y1="-15309.039" x2="-96.876" y2="-15305.51" gradientTransform="matrix(1 0 0 -1 135.243 -15314.69)"><stop offset=".006" stop-color="#E38B79"/><stop offset=".438" stop-color="#FCCFA1"/><stop offset="1" stop-color="#F5E9DF"/></linearGradient><path fill="url(#j)" d="M40.5-8.3s-1 .3-1.2.3c-.2 0-1.4.1-1.4.2l.3.8s1.5 1.7 1.7 1.9c.3.1 2.3 1.4 2.3 1.4l1.3-1.7s-.6-3-3-2.9z"/><linearGradient id="k" gradientUnits="userSpaceOnUse" x1="-90.703" y1="-15306.446" x2="-90.778" y2="-15302.876" gradientTransform="matrix(1 0 0 -1 135.243 -15314.69)"><stop offset=".006" stop-color="#F6A18E"/><stop offset=".438" stop-color="#FCCFA1"/><stop offset="1" stop-color="#F5E9DF"/></linearGradient><path fill="url(#k)" d="M41.4-9.2s1-.9 1.2-1.2c.2-.3 1.1-1.3 1.3-1.1.3.2.7.3.8.2.1-.1.2-.2.3-.1.1 0 .3.2.4.1.1-.1 2.1.6 2.2 1.7.1 1.1-2.4.8-2.4.8l-3.8-.4z"/><linearGradient id="l" gradientUnits="userSpaceOnUse" x1="-95.157" y1="-15310.698" x2="-97.976" y2="-15309.691" gradientTransform="matrix(1 0 0 -1 135.243 -15314.69)"><stop offset=".006" stop-color="#F6A18E"/><stop offset=".438" stop-color="#FCCFA1"/><stop offset="1" stop-color="#F5E9DF"/></linearGradient><path fill="url(#l)" d="M41.1-2.3h-2l-.2-.2-.7-.5c-.1-.1 0-.2-.2-.2s-.6 0-.6-.2c0-.5.6-.8.6-1.4 0-.7-.1-2 0-2l2.5 2.6s.9 1.5.6 1.9z"/><linearGradient id="m" gradientUnits="userSpaceOnUse" x1="-94.642" y1="-15312.497" x2="-94.042" y2="-15308.848" gradientTransform="matrix(1 0 0 -1 135.243 -15314.69)"><stop offset=".006" stop-color="#F6A18E"/><stop offset=".438" stop-color="#FCCFA1"/><stop offset="1" stop-color="#F5E9DF"/></linearGradient><path fill="url(#m)" d="M40.9-2.2s-.6-.8-.8-1.2c-.1-.4-.4-1.1-.6-1.3-.2-.2-1.2-1.4-1.4-1.7-.2-.2-.4-.4-.6-.5-.2-.1-.3-.8-.1-.9.2-.1.5-.1.7.1l.1.5c.1.5.3.8.9 1.2.6.4 1.5.8 1.7 1 .2.2.7.5 1.2.6.5.1 2.4 1 2.6 1.2.3.2-.1.9-.1.9l-3.6.1z"/><linearGradient id="n" gradientUnits="userSpaceOnUse" x1="-89.315" y1="-15307.668" x2="-86.262" y2="-15304.637" gradientTransform="matrix(1 0 0 -1 135.243 -15314.69)"><stop offset=".006" stop-color="#F6A18E"/><stop offset=".438" stop-color="#FCCFA1"/><stop offset="1" stop-color="#F5E9DF"/></linearGradient><path fill="url(#n)" d="M46.3-5.3l1 .3s.7-.6 1-1c.3-.5.5-1.3.5-2 0-.6 0-.9-.2-1.1-.2-.2-.4-.5-.4-.6 0-.1-.9-.2-1.5-.1-.5.1-1.6.6-2 .7-.4 0-.2.7-.2.7l1.8 3.1z"/><linearGradient id="o" gradientUnits="userSpaceOnUse" x1="-89.978" y1="-15308.402" x2="-87.505" y2="-15305.889" gradientTransform="matrix(1 0 0 -1 135.243 -15314.69)"><stop offset=".006" stop-color="#E38B79"/><stop offset=".438" stop-color="#FCCFA1"/><stop offset="1" stop-color="#F5E9DF"/></linearGradient><path fill="url(#o)" d="M46.7-5.4s.1-.1.2-.7.3-1.4.4-1.7c.1-.2-.6-.7-1.4-.6-.9.1-1 0-1 0v2.4c0 .2 1 .7 1.8.6z"/><linearGradient id="p" gradientUnits="userSpaceOnUse" x1="-92.467" y1="-15308.152" x2="-95.169" y2="-15305.45" gradientTransform="matrix(1 0 0 -1 135.243 -15314.69)"><stop offset=".006" stop-color="#F6A18E"/><stop offset=".438" stop-color="#FCCFA1"/><stop offset="1" stop-color="#F5E9DF"/></linearGradient><path fill="url(#p)" d="M41.4-4.9s-.1-.2-.3-.5c-.2-.2-.6-.4-.7-.7 0-.3 0-.6-.1-.8-.1-.2-.2-.9-.2-1.3s.1-.5.1-.8c0-.2-.1-.5.2-.5.3-.1.9-.1 1.4-.2.5 0 1 .1 1.2.3.2.2.4 2.9.4 2.9l-2 1.6z"/><linearGradient id="q" gradientUnits="userSpaceOnUse" x1="-91.173" y1="-15306.717" x2="-91.344" y2="-15305.075" gradientTransform="matrix(1 0 0 -1 135.243 -15314.69)"><stop offset=".006" stop-color="#F6A18E"/><stop offset=".438" stop-color="#FCCFA1"/><stop offset="1" stop-color="#F5E9DF"/></linearGradient><path fill="url(#q)" d="M42.8-6.2s.1-.6.1-1-.2-.7-.2-1c0-.3-.3-1 .2-1.2.5-.2 1-.4 1.6 0 .6.4 1.1.9 1.1 1.1 0 .2-.2 2.5-.1 2.7-.1-.1-2 .3-2.7-.6z"/><linearGradient id="r" gradientUnits="userSpaceOnUse" x1="-90.893" y1="-15307.535" x2="-89.753" y2="-15306.338" gradientTransform="matrix(1 0 0 -1 135.243 -15314.69)"><stop offset=".006" stop-color="#B27B76"/><stop offset=".438" stop-color="#FBC591"/><stop offset="1" stop-color="#EDD5C3"/></linearGradient><path fill="url(#r)" d="M45.5-8.4s-.2-.2-.6 0c-.4.2-1.3.6-1.2 1.4.1.8 1.6-.3 1.6-.3l.2-.8c.1 0 0-.1 0-.3z"/><linearGradient id="s" gradientUnits="userSpaceOnUse" x1="-91.289" y1="-15307.728" x2="-91.631" y2="-15306.13" gradientTransform="matrix(1 0 0 -1 135.243 -15314.69)"><stop offset=".006" stop-color="#F6A18E"/><stop offset=".438" stop-color="#FCCFA1"/><stop offset="1" stop-color="#F5E9DF"/></linearGradient><path fill="url(#s)" d="M43.2-6.9s-.1-1-.1-1.2c0-.3 0-.3.2-.1.2.2.4.2.6.1.1-.1.5 0 .6.2 0 .2-.1 1.1-.1 1.1s-.8.2-1.2-.1z"/><linearGradient id="t" gradientUnits="userSpaceOnUse" x1="-92.839" y1="-15306.913" x2="-91.257" y2="-15306.913" gradientTransform="matrix(1 0 0 -1 135.243 -15314.69)"><stop offset=".006" stop-color="#F6A18E"/><stop offset=".438" stop-color="#FCCFA1"/><stop offset="1" stop-color="#F5E9DF"/></linearGradient><path fill="url(#t)" d="M44-7.1s-.1-.2-.3-.3c-.2-.1-.8-.5-1.2-1.4v.4c.1.1.2.7.2 1.1 0 .4-.2.6-.1.9.2.3 1.2-.1 1.4-.7z"/><linearGradient id="u" gradientUnits="userSpaceOnUse" x1="-90.767" y1="-15308.78" x2="-91.252" y2="-15306.518" gradientTransform="matrix(1 0 0 -1 135.243 -15314.69)"><stop offset=".006" stop-color="#F6A18E"/><stop offset=".438" stop-color="#FCCFA1"/><stop offset="1" stop-color="#F5E9DF"/></linearGradient><path fill="url(#u)" d="M42.8-6.6s.1-.3.5-.5c.4-.1 1.1-.2 1.4-.5.3-.3.8-.4.8-.8 0 0 .2.4.1.8s-.2 1.3-.1 1.7c0 0-3.1.3-2.7-.7z"/><linearGradient id="v" gradientUnits="userSpaceOnUse" x1="-91.328" y1="-15310.232" x2="-91.394" y2="-15307.083" gradientTransform="matrix(1 0 0 -1 135.243 -15314.69)"><stop offset=".006" stop-color="#F6A18E"/><stop offset=".438" stop-color="#FCCFA1"/><stop offset="1" stop-color="#F5E9DF"/></linearGradient><path fill="url(#v)" d="M42.1-4.9c-.1 0-.7-1-.9-1.5-.2-.4-.2-.5-.3-.7-.1-.3.1 0 .4-.1.3 0 .7.3.8.4.2.1.5.2.8.3.3.1.7.1 1.1.2.4 0 1.8.5 2.1.6.4.1.5.2.5.4v.3s-3.2.3-4.5.1z"/><path fill="#25534D" d="M47-14.2s-.7.8-.3 1.7c0 0 .1 0 0-.2 0-.2-.1-.7.3-1.5zm-.1 1.7s.6 0 .7-.2c0 0 .5.1.7-.2 0 0-.3.3-.6.3-.1.1-.7.5-.8.1zm1.2-1.9s-1.1.6-1.3 1.7c0 0 .7-1.2 1.3-1.7z"/><linearGradient id="w" gradientUnits="userSpaceOnUse" x1="-114.447" y1="-15304.475" x2="-112.279" y2="-15300.004" gradientTransform="matrix(1 0 0 -1 135.243 -15314.69)"><stop offset=".006" stop-color="#25534D"/><stop offset=".438" stop-color="#618E87"/><stop offset="1" stop-color="#B2C3C0"/></linearGradient><path fill="url(#w)" d="M22-9.4s-1.2-.8-1.5-1.4c-.3-.6-.2-1.8-.3-2.1-.1-.4-.4-1.6-.6-1.8 0 0 .3.3.8.7.5.4 1.1 0 2.1.7 1.1.7 1.6 3.1 1.2 4-.3.9-1.2.3-1.7-.1z"/><path fill="#25534D" d="M23-9.7s-.3-.4-.4-.6c-.1-.2-1.1-2-1.4-2.2 0 0 .6 1 .8 1.4 0 0-1.1-.3-1.3-.2 0 0 1.1.2 1.3.4 0 0 .2.4.3.5.1.1-.9.1-1.1.2 0 0 1-.1 1.1 0l.3.3c.1.1.3.5.3.5l.1-.3zm.1-.6s-.2-.3-.2-.5-.2-.4-.4-.7c-.2-.3-.2-.6-.4-.7 0 0 .5.7.7.9.2.2.2-.1.1-.5s.2.2.2.8c0 .5.3.3.4 0 .1-.3.2.4 0 .8-.2.5-.2.1-.4-.1z"/><linearGradient id="x" gradientUnits="userSpaceOnUse" x1="-113.461" y1="-15302.829" x2="-115.565" y2="-15301.415" gradientTransform="matrix(1 0 0 -1 135.243 -15314.69)"><stop offset=".006" stop-color="#25534D"/><stop offset=".438" stop-color="#618E87"/><stop offset="1" stop-color="#B2C3C0"/></linearGradient><path fill="url(#x)" d="M23.3-9.9s-.5-.3-.7-.9c-.2-.6-1-1.8-1.4-2.1-.4-.3-1.2-1.1-1.3-1.3 0 0 0 .1.2.3.2.2.7.7.9 1 .2.3.8.9 1 1.3.2.3 1.1 1.8 1.2 1.8l.1-.1z"/><linearGradient id="y" gradientUnits="userSpaceOnUse" x1="-117.48" y1="-15309.689" x2="-121.607" y2="-15306.915" gradientTransform="matrix(1 0 0 -1 135.243 -15314.69)"><stop offset=".006" stop-color="#25534D"/><stop offset=".438" stop-color="#618E87"/><stop offset="1" stop-color="#B2C3C0"/></linearGradient><path fill="url(#y)" d="M22.3-3.7s-.5-.7-1.1-.8c-.6-.1-.8-.2-1.2 0-.4.2-.7.8-1 .7-.3 0-.8-.6-1.2-.9-.4-.3-.8-.5-1.2-.3-.4.2-.9.1-1.1 0-.2-.1-.3 0-.6.1s-1.1-.2-1.5-.6c-.4-.4-1-.8-1.5-.8 0 0 .3.1 1.1-.1s2.5-.7 3.1-1c.7-.3 1.4-.5 2.3.1.9.6 2.6 1.5 2.9 2 .2.5.6.7.8 1l.5.5-.3.1z"/><path fill="#25534D" d="M19.1-6.3s-1.3-.3-1.8-.3c-.4 0-1.1-.2-1.1-.2h.6c.5 0 .5-.3.3-.4-.3-.2-.1-.4.5.2.6.7.5.1.5 0s.2 0 .4.3l.6.4z"/><linearGradient id="z" gradientUnits="userSpaceOnUse" x1="-107.544" y1="-15300.334" x2="-104.312" y2="-15300.334" gradientTransform="matrix(1 0 0 -1 135.243 -15314.69)"><stop offset=".006" stop-color="#F6A18E"/><stop offset=".438" stop-color="#FCCFA1"/><stop offset="1" stop-color="#F5E9DF"/></linearGradient><path fill="url(#z)" d="M27.9-14s.3-.6.6-.9c.3-.3 1-.5 1.6-.8l.7-.3s.1.1.1.2v.3s-.3.1-.5.4c-.2.3-.4 1.1-.8 1.6s-1.2 1-1.6.8c-.3-.2-.5-.9-.1-1.3z"/><linearGradient id="A" gradientUnits="userSpaceOnUse" x1="-107.786" y1="-15303.577" x2="-105.155" y2="-15298.153" gradientTransform="matrix(1 0 0 -1 135.243 -15314.69)"><stop offset=".006" stop-color="#25534D"/><stop offset=".438" stop-color="#618E87"/><stop offset="1" stop-color="#B2C3C0"/></linearGradient><path fill="url(#A)" d="M27.2-11.1c.3-.9.3-.9.4-1.1 0-.3-.1-.3-.1-.7 0-.3-.1-.9.2-1.2.2-.3.6-.6.7-.9 0 0-.1.4-.2.6 0 0 .7-.3.9-.2.2 0 .5-.2.6-.4 0 0-.3.3-.2.5 0 .3-.1.6-.5 1.2l-.1.1c.2-.1.6-.1.8-.4.1-.3.5-.7.7-.7 0 0-.2.3-.3.6-.2.3-.6 1.4-1.3 1.2 0 0-.4.4-.6.3 0 0-.4 1-.6 1.3"/><linearGradient id="B" gradientUnits="userSpaceOnUse" x1="-114.698" y1="-15307.912" x2="-114.772" y2="-15304.361" gradientTransform="matrix(1 0 0 -1 135.243 -15314.69)"><stop offset=".006" stop-color="#F6A18E"/><stop offset=".438" stop-color="#FCCFA1"/><stop offset="1" stop-color="#F5E9DF"/></linearGradient><path fill="url(#B)" d="M18.9-7.8s-.3-1.3-.5-1.6c-.2-.3 0-.8.2-.6.2.2 1.5.5 1.9.3.4-.2 1.6-.3 1.9-.1.3.2-.1 1.4-.1 1.4l-2.1 1.1-1.3-.5z"/><linearGradient id="C" gradientUnits="userSpaceOnUse" x1="-107.908" y1="-15313.62" x2="-109.729" y2="-15305.123" gradientTransform="matrix(1 0 0 -1 135.243 -15314.69)"><stop offset=".006" stop-color="#E38B79"/><stop offset=".438" stop-color="#FCCFA1"/><stop offset="1" stop-color="#F5E9DF"/></linearGradient><path fill="url(#C)" d="M26.1 0s-.5-.2-1.5-.1c-.9.1-2.5-.4-3.3-1.4-.8-1-2.3-6.2-2.3-6.2l10.7-.9s1.5-.5 1.7-.7c.2-.2.3-.1.4.1l.4.2c.1.1-.1.7.3.9.3.2.5.2.3.7-.2.5-.3 3.6-.3 4 0 .4-.5.4-1 .6-.6.2-1.3.6-1.5.7-.2.1-.9.3-1 .3-.2 0-.6 1.5-2.9 1.8z"/><linearGradient id="D" gradientUnits="userSpaceOnUse" x1="-106.958" y1="-15310.641" x2="-103.48" y2="-15307.186" gradientTransform="matrix(1 0 0 -1 135.243 -15314.69)"><stop offset=".006" stop-color="#E38B79"/><stop offset=".438" stop-color="#FCCFA1"/><stop offset="1" stop-color="#F5E9DF"/></linearGradient><path fill="url(#D)" d="M31.8-5.9s-.2 0-.3-.3c-.1-.3-.1-.5-.3-.6-.2-.1-.7-.4-.9-.4-.2.1-.8.2-.9.4-.1.2-2.2 2.9-2.2 2.9s-.2.4.2.3c.5-.1 3.9-1.6 4.4-2.3z"/><linearGradient id="E" gradientUnits="userSpaceOnUse" x1="-112.547" y1="-15309.039" x2="-115.876" y2="-15305.51" gradientTransform="matrix(1 0 0 -1 135.243 -15314.69)"><stop offset=".006" stop-color="#E38B79"/><stop offset=".438" stop-color="#FCCFA1"/><stop offset="1" stop-color="#F5E9DF"/></linearGradient><path fill="url(#E)" d="M21.5-8.3s-1 .3-1.2.3c-.2 0-1.4.1-1.4.2l.3.8s1.5 1.7 1.7 1.9c.3.1 2.3 1.4 2.3 1.4l1.3-1.7s-.6-3-3-2.9z"/><linearGradient id="F" gradientUnits="userSpaceOnUse" x1="-109.703" y1="-15306.446" x2="-109.778" y2="-15302.876" gradientTransform="matrix(1 0 0 -1 135.243 -15314.69)"><stop offset=".006" stop-color="#F6A18E"/><stop offset=".438" stop-color="#FCCFA1"/><stop offset="1" stop-color="#F5E9DF"/></linearGradient><path fill="url(#F)" d="M22.4-9.2s1-.9 1.2-1.2c.2-.3 1.1-1.3 1.3-1.1.3.2.7.3.8.2.1-.1.2-.2.3-.1.1 0 .3.2.4.1.1-.1 2.1.6 2.2 1.7.1 1.1-2.4.8-2.4.8l-3.8-.4z"/><linearGradient id="G" gradientUnits="userSpaceOnUse" x1="-114.157" y1="-15310.698" x2="-116.976" y2="-15309.691" gradientTransform="matrix(1 0 0 -1 135.243 -15314.69)"><stop offset=".006" stop-color="#F6A18E"/><stop offset=".438" stop-color="#FCCFA1"/><stop offset="1" stop-color="#F5E9DF"/></linearGradient><path fill="url(#G)" d="M22.1-2.3h-2l-.2-.2-.7-.5c-.1-.1 0-.2-.2-.2s-.6 0-.6-.2c0-.5.6-.8.6-1.4 0-.7-.1-2 0-2l2.5 2.6s.9 1.5.6 1.9z"/><linearGradient id="H" gradientUnits="userSpaceOnUse" x1="-113.642" y1="-15312.497" x2="-113.042" y2="-15308.848" gradientTransform="matrix(1 0 0 -1 135.243 -15314.69)"><stop offset=".006" stop-color="#F6A18E"/><stop offset=".438" stop-color="#FCCFA1"/><stop offset="1" stop-color="#F5E9DF"/></linearGradient><path fill="url(#H)" d="M21.9-2.2s-.6-.8-.8-1.2c-.1-.4-.4-1.1-.6-1.3-.2-.2-1.2-1.4-1.4-1.7-.2-.2-.4-.4-.6-.5-.2-.1-.3-.8-.1-.9.2-.1.5-.1.7.1l.1.5c.1.5.3.8.9 1.2.6.4 1.5.8 1.7 1 .2.2.7.5 1.2.6.5.1 2.4 1 2.6 1.2.3.2-.1.9-.1.9l-3.6.1z"/><linearGradient id="I" gradientUnits="userSpaceOnUse" x1="-108.315" y1="-15307.668" x2="-105.262" y2="-15304.637" gradientTransform="matrix(1 0 0 -1 135.243 -15314.69)"><stop offset=".006" stop-color="#F6A18E"/><stop offset=".438" stop-color="#FCCFA1"/><stop offset="1" stop-color="#F5E9DF"/></linearGradient><path fill="url(#I)" d="M27.3-5.3l1 .3s.7-.6 1-1c.3-.5.5-1.3.5-2 0-.6 0-.9-.2-1.1-.2-.2-.4-.5-.4-.6 0-.1-.9-.2-1.5-.1-.5.1-1.6.6-2 .7-.4 0-.2.7-.2.7l1.8 3.1z"/><linearGradient id="J" gradientUnits="userSpaceOnUse" x1="-108.978" y1="-15308.402" x2="-106.505" y2="-15305.889" gradientTransform="matrix(1 0 0 -1 135.243 -15314.69)"><stop offset=".006" stop-color="#E38B79"/><stop offset=".438" stop-color="#FCCFA1"/><stop offset="1" stop-color="#F5E9DF"/></linearGradient><path fill="url(#J)" d="M27.7-5.4s.1-.1.2-.7.3-1.4.4-1.7c.1-.2-.6-.7-1.4-.6-.9.1-1 0-1 0v2.4c0 .2 1 .7 1.8.6z"/><linearGradient id="K" gradientUnits="userSpaceOnUse" x1="-111.467" y1="-15308.152" x2="-114.169" y2="-15305.45" gradientTransform="matrix(1 0 0 -1 135.243 -15314.69)"><stop offset=".006" stop-color="#F6A18E"/><stop offset=".438" stop-color="#FCCFA1"/><stop offset="1" stop-color="#F5E9DF"/></linearGradient><path fill="url(#K)" d="M22.4-4.9s-.1-.2-.3-.5c-.2-.2-.6-.4-.7-.7s0-.6-.1-.8c-.1-.2-.2-.9-.2-1.3s.1-.5.1-.8c0-.2-.1-.5.2-.5.3-.1.9-.1 1.4-.2.5 0 1 .1 1.2.3.2.2.4 2.9.4 2.9l-2 1.6z"/><linearGradient id="L" gradientUnits="userSpaceOnUse" x1="-110.173" y1="-15306.717" x2="-110.344" y2="-15305.075" gradientTransform="matrix(1 0 0 -1 135.243 -15314.69)"><stop offset=".006" stop-color="#F6A18E"/><stop offset=".438" stop-color="#FCCFA1"/><stop offset="1" stop-color="#F5E9DF"/></linearGradient><path fill="url(#L)" d="M23.8-6.2s.1-.6.1-1-.2-.7-.2-1c0-.3-.3-1 .2-1.2.5-.2 1-.4 1.6 0 .6.4 1.1.9 1.1 1.1 0 .2-.2 2.5-.1 2.7-.1-.1-2 .3-2.7-.6z"/><linearGradient id="M" gradientUnits="userSpaceOnUse" x1="-109.893" y1="-15307.535" x2="-108.753" y2="-15306.338" gradientTransform="matrix(1 0 0 -1 135.243 -15314.69)"><stop offset=".006" stop-color="#B27B76"/><stop offset=".438" stop-color="#FBC591"/><stop offset="1" stop-color="#EDD5C3"/></linearGradient><path fill="url(#M)" d="M26.5-8.4s-.2-.2-.6 0c-.4.2-1.3.6-1.2 1.4.1.8 1.6-.3 1.6-.3l.2-.8c.1 0 0-.1 0-.3z"/><linearGradient id="N" gradientUnits="userSpaceOnUse" x1="-110.289" y1="-15307.728" x2="-110.631" y2="-15306.13" gradientTransform="matrix(1 0 0 -1 135.243 -15314.69)"><stop offset=".006" stop-color="#F6A18E"/><stop offset=".438" stop-color="#FCCFA1"/><stop offset="1" stop-color="#F5E9DF"/></linearGradient><path fill="url(#N)" d="M24.2-6.9s-.1-1-.1-1.2c0-.3 0-.3.2-.1.2.2.4.2.6.1.1-.1.5 0 .6.2 0 .2-.1 1.1-.1 1.1s-.8.2-1.2-.1z"/><linearGradient id="O" gradientUnits="userSpaceOnUse" x1="-111.839" y1="-15306.913" x2="-110.257" y2="-15306.913" gradientTransform="matrix(1 0 0 -1 135.243 -15314.69)"><stop offset=".006" stop-color="#F6A18E"/><stop offset=".438" stop-color="#FCCFA1"/><stop offset="1" stop-color="#F5E9DF"/></linearGradient><path fill="url(#O)" d="M25-7.1s-.1-.2-.3-.3c-.2-.1-.8-.5-1.2-1.4v.4c.1.1.2.7.2 1.1 0 .4-.2.6-.1.9.2.3 1.2-.1 1.4-.7z"/><linearGradient id="P" gradientUnits="userSpaceOnUse" x1="-109.767" y1="-15308.78" x2="-110.252" y2="-15306.518" gradientTransform="matrix(1 0 0 -1 135.243 -15314.69)"><stop offset=".006" stop-color="#F6A18E"/><stop offset=".438" stop-color="#FCCFA1"/><stop offset="1" stop-color="#F5E9DF"/></linearGradient><path fill="url(#P)" d="M23.8-6.6s.1-.3.5-.5c.4-.1 1.1-.2 1.4-.5.3-.3.8-.4.8-.8 0 0 .2.4.1.8s-.2 1.3-.1 1.7c0 0-3.1.3-2.7-.7z"/><linearGradient id="Q" gradientUnits="userSpaceOnUse" x1="-110.328" y1="-15310.232" x2="-110.394" y2="-15307.083" gradientTransform="matrix(1 0 0 -1 135.243 -15314.69)"><stop offset=".006" stop-color="#F6A18E"/><stop offset=".438" stop-color="#FCCFA1"/><stop offset="1" stop-color="#F5E9DF"/></linearGradient><path fill="url(#Q)" d="M23.1-4.9c-.1 0-.7-1-.9-1.5-.2-.4-.2-.5-.3-.7-.1-.3.1 0 .4-.1.3 0 .7.3.8.4.2.1.5.2.8.3.3.1.7.1 1.1.2.4 0 1.8.5 2.1.6.4.1.5.2.5.4v.3s-3.2.3-4.5.1z"/><path fill="#25534D" d="M28-14.2s-.7.8-.3 1.7c0 0 .1 0 0-.2 0-.2-.1-.7.3-1.5zm-.1 1.7s.6 0 .7-.2c0 0 .5.1.7-.2 0 0-.3.3-.6.3-.1.1-.7.5-.8.1zm1.2-1.9s-1.1.6-1.3 1.7c0 0 .7-1.2 1.3-1.7z"/><linearGradient id="R" gradientUnits="userSpaceOnUse" x1="-126.908" y1="-15313.62" x2="-128.729" y2="-15305.123" gradientTransform="matrix(1 0 0 -1 135.243 -15314.69)"><stop offset=".006" stop-color="#E38B79"/><stop offset=".438" stop-color="#FCCFA1"/><stop offset="1" stop-color="#F5E9DF"/></linearGradient><path fill="url(#R)" d="M7.1 0s-.5-.2-1.5-.1c-.9.1-2.5-.4-3.3-1.4-.9-1-2.3-6.2-2.3-6.2l10.7-.9s1.5-.5 1.7-.7c.2-.2.3-.1.4.1l.4.2c.1.1-.1.7.3.9.3.2.5.2.3.7-.2.5-.3 3.6-.3 4 0 .4-.5.4-1 .6-.6.2-1.3.6-1.5.7-.2.1-.9.3-1 .3-.2 0-.6 1.5-2.9 1.8z"/><linearGradient id="S" gradientUnits="userSpaceOnUse" x1="-85.947" y1="-15285.475" x2="-83.779" y2="-15281.004" gradientTransform="matrix(1 0 0 -1 135.243 -15314.69)"><stop offset=".006" stop-color="#25534D"/><stop offset=".438" stop-color="#618E87"/><stop offset="1" stop-color="#B2C3C0"/></linearGradient><path fill="url(#S)" d="M50.5-28.4s-1.2-.8-1.5-1.4c-.3-.6-.2-1.8-.3-2.1-.1-.4-.4-1.6-.6-1.8 0 0 .3.3.8.7.5.4 1.1 0 2.1.7 1.1.7 1.6 3.1 1.2 4-.3.9-1.2.3-1.7-.1z"/><path fill="#25534D" d="M51.5-28.7s-.3-.4-.4-.6c-.1-.2-1.1-2-1.4-2.2 0 0 .6 1 .8 1.4 0 0-1.1-.3-1.3-.2 0 0 1.1.2 1.3.4 0 0 .2.4.3.5.1.1-.9.1-1.1.2 0 0 1-.1 1.1 0l.3.3c.1.1.3.5.3.5l.1-.3zm.1-.6s-.2-.3-.2-.5-.2-.4-.4-.7c-.2-.3-.2-.6-.4-.7 0 0 .5.7.7.9.2.2.2-.1.1-.5s.2.2.2.8c0 .5.3.3.4 0 .1-.3.2.4 0 .8-.2.5-.2.1-.4-.1z"/><linearGradient id="T" gradientUnits="userSpaceOnUse" x1="-84.961" y1="-15283.829" x2="-87.065" y2="-15282.415" gradientTransform="matrix(1 0 0 -1 135.243 -15314.69)"><stop offset=".006" stop-color="#25534D"/><stop offset=".438" stop-color="#618E87"/><stop offset="1" stop-color="#B2C3C0"/></linearGradient><path fill="url(#T)" d="M51.8-28.9s-.5-.3-.7-.9c-.2-.6-1-1.8-1.4-2.1-.4-.3-1.2-1.1-1.3-1.3 0 0 0 .1.2.3.2.2.7.7.9 1 .2.3.8.9 1 1.3.2.3 1.1 1.8 1.2 1.8l.1-.1z"/><linearGradient id="U" gradientUnits="userSpaceOnUse" x1="-88.98" y1="-15290.689" x2="-93.107" y2="-15287.915" gradientTransform="matrix(1 0 0 -1 135.243 -15314.69)"><stop offset=".006" stop-color="#25534D"/><stop offset=".438" stop-color="#618E87"/><stop offset="1" stop-color="#B2C3C0"/></linearGradient><path fill="url(#U)" d="M50.8-22.7s-.5-.7-1.1-.8c-.6-.1-.8-.2-1.2 0-.4.2-.7.8-1 .7-.3 0-.8-.6-1.2-.9-.4-.3-.8-.5-1.2-.3-.4.2-.9.1-1.1 0-.2-.1-.3 0-.6.1s-1.1-.2-1.5-.6c-.4-.4-1-.8-1.5-.8 0 0 .3.1 1.1-.1s2.5-.7 3.1-1c.7-.3 1.4-.5 2.3.1.9.6 2.6 1.5 2.9 2 .2.5.6.7.8 1l.5.5-.3.1z"/><path fill="#25534D" d="M47.6-25.3s-1.3-.3-1.8-.3c-.4 0-1.1-.2-1.1-.2h.6c.5 0 .5-.3.3-.4-.2-.1-.1-.3.6.3.6.7.5.1.5 0s.2 0 .4.3c.1.2.5.3.5.3zm0 .8s-.8-.6-1.1-.6c-.3 0-1.4-.3-1.7-.2-.2 0-.9 0-1.2.1h.8c.2 0 .6-.1.8 0 .2.1.1.1-.2.3-.4.1-1 .6-1.1.8 0 0 .4-.5.8-.6.4-.1.8-.3.8-.4 0 0 .6 0 .9.1.2.1 0 .3-.4.5-.3.2-.5.3-.5.3s.1 0 .4-.2c.3-.1.7-.4.8-.5.1 0 .7.4.8.7l.1-.3z"/><linearGradient id="V" gradientUnits="userSpaceOnUse" x1="-90.246" y1="-15289.933" x2="-92.481" y2="-15288.43" gradientTransform="matrix(1 0 0 -1 135.243 -15314.69)"><stop offset=".006" stop-color="#25534D"/><stop offset=".438" stop-color="#618E87"/><stop offset="1" stop-color="#B2C3C0"/></linearGradient><path fill="url(#V)" d="M41.6-25.2s.2.2.7.1c.5-.1 1.4-.4 2-.4.6 0 2.6.2 2.9.6l.5.5.1-.1s-.5-.5-.7-.6c-.2-.2-2.5-.6-2.9-.5-.3 0-2 .6-2.6.4z"/><linearGradient id="W" gradientUnits="userSpaceOnUse" x1="-83.195" y1="-15295.393" x2="-88.248" y2="-15295.971" gradientTransform="matrix(1 0 0 -1 135.243 -15314.69)"><stop offset=".006" stop-color="#25534D"/><stop offset=".438" stop-color="#618E87"/><stop offset="1" stop-color="#B2C3C0"/></linearGradient><path fill="url(#W)" d="M52.4-19.4s-1-.3-1.3-.1c-.3.2-2.3.9-3.1.7 0 0 1.2.3 1.7.1.5-.1 1-.4 1.5-.3.4.1 1.9.3 1.2-.4z"/><linearGradient id="X" gradientUnits="userSpaceOnUse" x1="-86.198" y1="-15288.912" x2="-86.272" y2="-15285.361" gradientTransform="matrix(1 0 0 -1 135.243 -15314.69)"><stop offset=".006" stop-color="#F6A18E"/><stop offset=".438" stop-color="#FCCFA1"/><stop offset="1" stop-color="#F5E9DF"/></linearGradient><path fill="url(#X)" d="M47.4-26.8s-.3-1.3-.5-1.6c-.2-.3 0-.8.2-.6.2.2 1.5.5 1.9.3.4-.2 1.6-.3 1.9-.1.3.2-.1 1.4-.1 1.4l-2.1 1.1-1.3-.5z"/><linearGradient id="Y" gradientUnits="userSpaceOnUse" x1="-79.408" y1="-15294.62" x2="-81.229" y2="-15286.123" gradientTransform="matrix(1 0 0 -1 135.243 -15314.69)"><stop offset=".006" stop-color="#E38B79"/><stop offset=".438" stop-color="#FCCFA1"/><stop offset="1" stop-color="#F5E9DF"/></linearGradient><path fill="url(#Y)" d="M54.6-19s-.5-.2-1.5-.1c-.9.1-2.5-.4-3.3-1.4-.8-1-2.3-6.2-2.3-6.2l10.7-.9s1.5-.5 1.7-.7c.2-.2.3-.1.4.1l.4.2c.1.1-.1.7.3.9.3.2.5.2.3.7-.2.5-.3 3.6-.3 4 0 .4-.5.4-1 .6-.6.2-1.3.6-1.5.7-.2.1-.9.3-1 .3-.2 0-.6 1.5-2.9 1.8z"/><linearGradient id="Z" gradientUnits="userSpaceOnUse" x1="-84.047" y1="-15290.039" x2="-87.376" y2="-15286.51" gradientTransform="matrix(1 0 0 -1 135.243 -15314.69)"><stop offset=".006" stop-color="#E38B79"/><stop offset=".438" stop-color="#FCCFA1"/><stop offset="1" stop-color="#F5E9DF"/></linearGradient><path fill="url(#Z)" d="M50-27.3s-1 .3-1.2.3c-.2 0-1.4.1-1.4.2l.3.8s1.5 1.7 1.7 1.9c.3.1 2.3 1.4 2.3 1.4l1.3-1.7s-.6-3-3-2.9z"/><linearGradient id="aa" gradientUnits="userSpaceOnUse" x1="-81.646" y1="-15292.322" x2="-80.868" y2="-15288.982" gradientTransform="matrix(1 0 0 -1 135.243 -15314.69)"><stop offset=".006" stop-color="#E38B79"/><stop offset=".438" stop-color="#FCCFA1"/><stop offset="1" stop-color="#F5E9DF"/></linearGradient><path fill="url(#aa)" d="M56-22.8l1-1c.2-.2.5-.5.4-.5-.1.1-1.1.3-1.4.3-.2 0-4.5.3-4.5.3s-1-.2-1 .1c0 .3 2.9 1.5 2.9 1.5l1.4-.2"/><linearGradient id="ab" gradientUnits="userSpaceOnUse" x1="-85.657" y1="-15291.698" x2="-88.476" y2="-15290.691" gradientTransform="matrix(1 0 0 -1 135.243 -15314.69)"><stop offset=".006" stop-color="#F6A18E"/><stop offset=".438" stop-color="#FCCFA1"/><stop offset="1" stop-color="#F5E9DF"/></linearGradient><path fill="url(#ab)" d="M50.6-21.3h-2l-.2-.2-.7-.5c-.1-.1 0-.2-.2-.2s-.6 0-.6-.2c0-.5.6-.8.6-1.4 0-.7-.1-2 0-2l2.5 2.6s.9 1.5.6 1.9z"/><linearGradient id="ac" gradientUnits="userSpaceOnUse" x1="-85.142" y1="-15293.497" x2="-84.542" y2="-15289.848" gradientTransform="matrix(1 0 0 -1 135.243 -15314.69)"><stop offset=".006" stop-color="#F6A18E"/><stop offset=".438" stop-color="#FCCFA1"/><stop offset="1" stop-color="#F5E9DF"/></linearGradient><path fill="url(#ac)" d="M50.4-21.2s-.6-.8-.8-1.2c-.1-.4-.4-1.1-.6-1.3-.2-.2-1.2-1.4-1.4-1.7-.2-.2-.4-.4-.6-.5-.2-.1-.3-.8-.1-.9.2-.1.5-.1.7.1l.1.5c.1.5.3.8.9 1.2.6.4 1.5.8 1.7 1 .2.2.7.5 1.2.6.5.1 2.4 1 2.6 1.2.3.2-.1.9-.1.9l-3.6.1z"/><linearGradient id="ad" gradientUnits="userSpaceOnUse" x1="-82.967" y1="-15289.152" x2="-85.669" y2="-15286.45" gradientTransform="matrix(1 0 0 -1 135.243 -15314.69)"><stop offset=".006" stop-color="#F6A18E"/><stop offset=".438" stop-color="#FCCFA1"/><stop offset="1" stop-color="#F5E9DF"/></linearGradient><path fill="url(#ad)" d="M50.9-23.9s-.1-.2-.3-.5c-.2-.2-.6-.4-.7-.7 0-.3 0-.6-.1-.8-.1-.2-.2-.9-.2-1.3s.1-.5.1-.8c0-.2-.1-.5.2-.5.3-.1.9-.1 1.4-.2.5 0 1 .1 1.2.3.2.2.4 2.9.4 2.9l-2 1.6z"/><linearGradient id="ae" gradientUnits="userSpaceOnUse" x1="-81.828" y1="-15291.232" x2="-81.894" y2="-15288.083" gradientTransform="matrix(1 0 0 -1 135.243 -15314.69)"><stop offset=".006" stop-color="#F6A18E"/><stop offset=".438" stop-color="#FCCFA1"/><stop offset="1" stop-color="#F5E9DF"/></linearGradient><path fill="url(#ae)" d="M51.6-23.9c-.1 0-.7-1-.9-1.5-.2-.4-.2-.5-.2-.8-.1-.3.1 0 .4-.1.3 0 .7.3.8.4.2.1.5.2.8.3.3.1.7.1 1.1.2.4 0 1.8.5 2.1.6.4.1.5.2.5.4v.3s-3.3.4-4.6.2z"/><linearGradient id="af" gradientUnits="userSpaceOnUse" x1="-80.835" y1="-15292.64" x2="-80.461" y2="-15290.083" gradientTransform="matrix(1 0 0 -1 135.243 -15314.69)"><stop offset=".006" stop-color="#F6A18E"/><stop offset=".438" stop-color="#FCCFA1"/><stop offset="1" stop-color="#F5E9DF"/></linearGradient><path fill="url(#af)" d="M51.6-23.5s.2 0 .8.1l1.4-.1c.6 0 1.7-.2 1.9-.2.2.1.3 0 .5-.1s.8-.1 1.2-.1c.4-.1 1.4-.4 1.5-.7.1-.3-.3-.4-.4-.3-.1.1-1.2.4-1.5.5-.3.1-.8.3-1.3.3s-2.9.1-3.5.1c-.6 0-1.7-.2-1.6.1.1.2.5.4 1 .4z"/><linearGradient id="ag" gradientUnits="userSpaceOnUse" x1="-81.375" y1="-15294.595" x2="-81.922" y2="-15292.041" gradientTransform="matrix(1 0 0 -1 135.243 -15314.69)"><stop offset=".006" stop-color="#F6A18E"/><stop offset=".438" stop-color="#FCCFA1"/><stop offset="1" stop-color="#F5E9DF"/></linearGradient><path fill="url(#ag)" d="M57.7-20.7c.5-.2.9-.7 1-.9.1-.2.4-.6.4-.8 0-.2-1.1 0-1.6 0s-1.3.4-1.6.5c-.3.1-1.4.2-1.4.2s-4.8.3-5.4.3c-.6 0-1-.1-1.1 0-.1.1-.2.7.1.7.2 0 1.9.2 2.5.3.7.1 1.7 0 1.8-.1.1-.1.6-.3 1.3-.3.6 0 1.4.1 1.7.2.2.1 1.4-.3 2-.1"/><linearGradient id="ah" gradientUnits="userSpaceOnUse" x1="-104.947" y1="-15285.475" x2="-102.779" y2="-15281.004" gradientTransform="matrix(1 0 0 -1 135.243 -15314.69)"><stop offset=".006" stop-color="#25534D"/><stop offset=".438" stop-color="#618E87"/><stop offset="1" stop-color="#B2C3C0"/></linearGradient><path fill="url(#ah)" d="M31.5-28.4s-1.2-.8-1.5-1.4c-.3-.6-.2-1.8-.3-2.1-.1-.4-.4-1.6-.6-1.8 0 0 .3.3.8.7.5.4 1.1 0 2.1.7 1.1.7 1.6 3.1 1.2 4-.3.9-1.2.3-1.7-.1z"/><path fill="#25534D" d="M32.5-28.7s-.3-.4-.4-.6c-.1-.2-1.1-2-1.4-2.2 0 0 .6 1 .8 1.4 0 0-1.1-.3-1.3-.2 0 0 1.1.2 1.3.4 0 0 .2.4.3.5.1.1-.9.1-1.1.2 0 0 1-.1 1.1 0l.3.3c.1.1.3.5.3.5l.1-.3zm.1-.6s-.2-.3-.2-.5-.2-.4-.4-.7c-.2-.3-.2-.6-.4-.7 0 0 .5.7.7.9.2.2.2-.1.1-.5s.2.2.2.8c0 .5.3.3.4 0 .1-.3.2.4 0 .8-.2.5-.2.1-.4-.1z"/><linearGradient id="ai" gradientUnits="userSpaceOnUse" x1="-103.961" y1="-15283.829" x2="-106.065" y2="-15282.415" gradientTransform="matrix(1 0 0 -1 135.243 -15314.69)"><stop offset=".006" stop-color="#25534D"/><stop offset=".438" stop-color="#618E87"/><stop offset="1" stop-color="#B2C3C0"/></linearGradient><path fill="url(#ai)" d="M32.8-28.9s-.5-.3-.7-.9c-.2-.6-1-1.8-1.4-2.1-.4-.3-1.2-1.1-1.3-1.3 0 0 0 .1.2.3.2.2.7.7.9 1 .2.3.8.9 1 1.3.2.3 1.1 1.8 1.2 1.8l.1-.1z"/><linearGradient id="aj" gradientUnits="userSpaceOnUse" x1="-107.98" y1="-15290.689" x2="-112.107" y2="-15287.915" gradientTransform="matrix(1 0 0 -1 135.243 -15314.69)"><stop offset=".006" stop-color="#25534D"/><stop offset=".438" stop-color="#618E87"/><stop offset="1" stop-color="#B2C3C0"/></linearGradient><path fill="url(#aj)" d="M31.8-22.7s-.5-.7-1.1-.8c-.6-.1-.8-.2-1.2 0-.4.2-.7.8-1 .7-.3 0-.8-.6-1.2-.9-.4-.3-.8-.5-1.2-.3-.4.2-.9.1-1.1 0-.2-.1-.3 0-.6.1s-1.1-.2-1.5-.6c-.4-.4-1-.8-1.5-.8 0 0 .3.1 1.1-.1s2.5-.7 3.1-1c.7-.3 1.4-.5 2.3.1.9.6 2.6 1.5 2.9 2 .2.5.6.7.8 1l.5.5-.3.1z"/><path fill="#25534D" d="M28.6-25.3s-1.3-.3-1.8-.3c-.4 0-1.1-.2-1.1-.2h.6c.5 0 .5-.3.3-.4-.2-.1-.1-.3.6.3.6.7.5.1.5 0s.2 0 .4.3c.1.2.5.3.5.3zm0 .8s-.8-.6-1.1-.6c-.3 0-1.4-.3-1.7-.2-.2 0-.9 0-1.2.1h.8c.2 0 .6-.1.8 0 .2.1.1.1-.2.3-.4.1-1 .6-1.1.8 0 0 .4-.5.8-.6.4-.1.8-.3.8-.4 0 0 .6 0 .9.1.2.1 0 .3-.4.5-.3.2-.5.3-.5.3s.1 0 .4-.2c.3-.1.7-.4.8-.5.1 0 .7.4.8.7l.1-.3z"/><linearGradient id="ak" gradientUnits="userSpaceOnUse" x1="-109.246" y1="-15289.933" x2="-111.481" y2="-15288.43" gradientTransform="matrix(1 0 0 -1 135.243 -15314.69)"><stop offset=".006" stop-color="#25534D"/><stop offset=".438" stop-color="#618E87"/><stop offset="1" stop-color="#B2C3C0"/></linearGradient><path fill="url(#ak)" d="M22.6-25.2s.2.2.7.1c.5-.1 1.4-.4 2-.4.6 0 2.6.2 2.9.6l.5.5.1-.1s-.5-.5-.7-.6c-.2-.2-2.5-.6-2.9-.5-.3 0-2 .6-2.6.4z"/><linearGradient id="al" gradientUnits="userSpaceOnUse" x1="-98.044" y1="-15281.334" x2="-94.812" y2="-15281.334" gradientTransform="matrix(1 0 0 -1 135.243 -15314.69)"><stop offset=".006" stop-color="#F6A18E"/><stop offset=".438" stop-color="#FCCFA1"/><stop offset="1" stop-color="#F5E9DF"/></linearGradient><path fill="url(#al)" d="M37.4-33s.3-.6.6-.9c.3-.3 1-.5 1.6-.8l.7-.3s.1.1.1.2v.3s-.3.1-.5.4c-.2.3-.4 1.1-.8 1.6s-1.2 1-1.6.8c-.3-.2-.5-.9-.1-1.3z"/><linearGradient id="am" gradientUnits="userSpaceOnUse" x1="-98.286" y1="-15284.577" x2="-95.655" y2="-15279.153" gradientTransform="matrix(1 0 0 -1 135.243 -15314.69)"><stop offset=".006" stop-color="#25534D"/><stop offset=".438" stop-color="#618E87"/><stop offset="1" stop-color="#B2C3C0"/></linearGradient><path fill="url(#am)" d="M36.7-30.1c.3-.9.3-.9.4-1.1 0-.3-.1-.3-.1-.7 0-.3-.1-.9.2-1.2.2-.3.6-.6.7-.9 0 0-.1.4-.2.6 0 0 .7-.3.9-.2.2 0 .5-.2.6-.4 0 0-.3.3-.2.5 0 .3-.1.6-.5 1.2l-.1.1c.2-.1.6-.1.8-.4.1-.3.5-.7.7-.7 0 0-.2.3-.3.6-.2.3-.6 1.4-1.3 1.2 0 0-.4.4-.6.3 0 0-.4 1-.6 1.3"/><linearGradient id="an" gradientUnits="userSpaceOnUse" x1="-100.092" y1="-15295.778" x2="-98.782" y2="-15296.706" gradientTransform="matrix(1 0 0 -1 135.243 -15314.69)"><stop offset=".006" stop-color="#25534D"/><stop offset=".438" stop-color="#618E87"/><stop offset="1" stop-color="#B2C3C0"/></linearGradient><path fill="url(#an)" d="M34.1-18.9s.3 1.1.7 1.1c.5.1 1 0 1.1-.3.1-.3.2-1.1.3-1.5 0-.3-2.2-.5-2.1.7z"/><linearGradient id="ao" gradientUnits="userSpaceOnUse" x1="-98.738" y1="-15295.403" x2="-95.464" y2="-15295.403" gradientTransform="matrix(1 0 0 -1 135.243 -15314.69)"><stop offset=".006" stop-color="#25534D"/><stop offset=".438" stop-color="#618E87"/><stop offset="1" stop-color="#B2C3C0"/></linearGradient><path fill="url(#ao)" d="M35.4-19.2s.1.5.6.4c.6-.1.9-.5 1.4-.3.5.2 2.3.3 2.7.2 0 0-.4 0-.7-.1-.4-.2-.8-.4-1.1-.4-.3 0-.8 0-1.1-.2-.3-.2-1.8-.3-1.8.4z"/><linearGradient id="ap" gradientUnits="userSpaceOnUse" x1="-100.304" y1="-15295.368" x2="-103.18" y2="-15298.33" gradientTransform="matrix(1 0 0 -1 135.243 -15314.69)"><stop offset=".006" stop-color="#25534D"/><stop offset=".438" stop-color="#618E87"/><stop offset="1" stop-color="#B2C3C0"/></linearGradient><path fill="url(#ap)" d="M34-19.4s-.6.3-.6.6c-.1.3-.1 1-.4 1.2-.3.3-.7 1.1-.7 1.1s0-.1.3-.3c.3-.2.7-.1 1.1-.5.4-.4 2-1.1 1.7-2-.4-.7-1.1-.3-1.4-.1z"/><path fill="#25534D" d="M34.7-19.1s-.3.2-.4.3c-.1.1-.2.6-.3.8l-.7.7s-.4.3-.5.4c-.1.1 0-.1 0-.1l.3-.3s.6-.5.7-.8c.1-.3.5-1 .8-1.1.3-.1.2-.1.1.1z"/><linearGradient id="aq" gradientUnits="userSpaceOnUse" x1="-102.195" y1="-15295.393" x2="-107.248" y2="-15295.971" gradientTransform="matrix(1 0 0 -1 135.243 -15314.69)"><stop offset=".006" stop-color="#25534D"/><stop offset=".438" stop-color="#618E87"/><stop offset="1" stop-color="#B2C3C0"/></linearGradient><path fill="url(#aq)" d="M33.4-19.4s-1-.3-1.3-.1c-.3.2-2.3.9-3.1.7 0 0 1.2.3 1.7.1.5-.1 1-.4 1.5-.3.4.1 1.9.3 1.2-.4z"/><linearGradient id="ar" gradientUnits="userSpaceOnUse" x1="-105.198" y1="-15288.912" x2="-105.272" y2="-15285.361" gradientTransform="matrix(1 0 0 -1 135.243 -15314.69)"><stop offset=".006" stop-color="#F6A18E"/><stop offset=".438" stop-color="#FCCFA1"/><stop offset="1" stop-color="#F5E9DF"/></linearGradient><path fill="url(#ar)" d="M28.4-26.8s-.3-1.3-.5-1.6c-.2-.3 0-.8.2-.6.2.2 1.5.5 1.9.3.4-.2 1.6-.3 1.9-.1.3.2-.1 1.4-.1 1.4l-2.1 1.1-1.3-.5z"/><linearGradient id="as" gradientUnits="userSpaceOnUse" x1="-98.408" y1="-15294.62" x2="-100.229" y2="-15286.123" gradientTransform="matrix(1 0 0 -1 135.243 -15314.69)"><stop offset=".006" stop-color="#E38B79"/><stop offset=".438" stop-color="#FCCFA1"/><stop offset="1" stop-color="#F5E9DF"/></linearGradient><path fill="url(#as)" d="M35.6-19s-.5-.2-1.5-.1c-.9.1-2.5-.4-3.3-1.4-.8-1-2.3-6.2-2.3-6.2l10.7-.9s1.5-.5 1.7-.7c.2-.2.3-.1.4.1l.4.2c.1.1-.1.7.3.9.3.2.5.2.3.7-.2.5-.3 3.6-.3 4 0 .4-.5.4-1 .6-.6.2-1.3.6-1.5.7-.2.1-.9.3-1 .3-.2 0-.6 1.5-2.9 1.8z"/><linearGradient id="at" gradientUnits="userSpaceOnUse" x1="-97.458" y1="-15291.641" x2="-93.98" y2="-15288.186" gradientTransform="matrix(1 0 0 -1 135.243 -15314.69)"><stop offset=".006" stop-color="#E38B79"/><stop offset=".438" stop-color="#FCCFA1"/><stop offset="1" stop-color="#F5E9DF"/></linearGradient><path fill="url(#at)" d="M41.3-24.9s-.2 0-.3-.3c-.1-.3-.1-.5-.3-.6-.2-.1-.7-.4-.9-.4-.2.1-.8.2-.9.4-.1.2-2.2 2.9-2.2 2.9s-.1.4.3.3c.4-.1 3.8-1.6 4.3-2.3z"/><linearGradient id="au" gradientUnits="userSpaceOnUse" x1="-103.047" y1="-15290.039" x2="-106.376" y2="-15286.51" gradientTransform="matrix(1 0 0 -1 135.243 -15314.69)"><stop offset=".006" stop-color="#E38B79"/><stop offset=".438" stop-color="#FCCFA1"/><stop offset="1" stop-color="#F5E9DF"/></linearGradient><path fill="url(#au)" d="M31-27.3s-1 .3-1.2.3c-.2 0-1.4.1-1.4.2l.3.8s1.5 1.7 1.7 1.9c.3.1 2.3 1.4 2.3 1.4l1.3-1.7s-.6-3-3-2.9z"/><linearGradient id="av" gradientUnits="userSpaceOnUse" x1="-100.203" y1="-15287.446" x2="-100.278" y2="-15283.876" gradientTransform="matrix(1 0 0 -1 135.243 -15314.69)"><stop offset=".006" stop-color="#F6A18E"/><stop offset=".438" stop-color="#FCCFA1"/><stop offset="1" stop-color="#F5E9DF"/></linearGradient><path fill="url(#av)" d="M31.9-28.2s1-.9 1.2-1.2c.2-.3 1.1-1.3 1.3-1.1.3.2.7.3.8.2.1-.1.2-.2.3-.1.1 0 .3.2.4.1.1-.1 2.1.6 2.2 1.7.1 1.1-2.4.8-2.4.8l-3.8-.4z"/><linearGradient id="aw" gradientUnits="userSpaceOnUse" x1="-100.646" y1="-15292.322" x2="-99.868" y2="-15288.982" gradientTransform="matrix(1 0 0 -1 135.243 -15314.69)"><stop offset=".006" stop-color="#E38B79"/><stop offset=".438" stop-color="#FCCFA1"/><stop offset="1" stop-color="#F5E9DF"/></linearGradient><path fill="url(#aw)" d="M37-22.8l1-1c.2-.2.5-.5.4-.5-.1.1-1.1.3-1.4.3-.2 0-4.5.3-4.5.3s-1-.2-1 .1c0 .3 2.9 1.5 2.9 1.5l1.4-.2"/><linearGradient id="ax" gradientUnits="userSpaceOnUse" x1="-96.712" y1="-15292.426" x2="-97.178" y2="-15290.251" gradientTransform="matrix(1 0 0 -1 135.243 -15314.69)"><stop offset=".006" stop-color="#F6A18E"/><stop offset=".438" stop-color="#FCCFA1"/><stop offset="1" stop-color="#F5E9DF"/></linearGradient><path fill="url(#ax)" d="M34.5-21.5s-.1-.1.3-.4c.4-.3.9-.7 1.3-.8.4 0 .8-.2 1.2-.5.5-.2 3.1-1.6 3.5-1.7.4-.1.5-.1.8.2.3.3 1 .7.7.8-.3.1-1.7.7-2.1.8-.5.1-1 .3-1.6.5l-2.2 1c-.3 0-1.8.5-1.9.1"/><linearGradient id="ay" gradientUnits="userSpaceOnUse" x1="-104.657" y1="-15291.698" x2="-107.476" y2="-15290.691" gradientTransform="matrix(1 0 0 -1 135.243 -15314.69)"><stop offset=".006" stop-color="#F6A18E"/><stop offset=".438" stop-color="#FCCFA1"/><stop offset="1" stop-color="#F5E9DF"/></linearGradient><path fill="url(#ay)" d="M31.6-21.3h-2l-.2-.2-.7-.5c-.1-.1 0-.2-.2-.2s-.6 0-.6-.2c0-.5.6-.8.6-1.4 0-.7-.1-2 0-2l2.5 2.6s.9 1.5.6 1.9z"/><linearGradient id="az" gradientUnits="userSpaceOnUse" x1="-104.142" y1="-15293.497" x2="-103.542" y2="-15289.848" gradientTransform="matrix(1 0 0 -1 135.243 -15314.69)"><stop offset=".006" stop-color="#F6A18E"/><stop offset=".438" stop-color="#FCCFA1"/><stop offset="1" stop-color="#F5E9DF"/></linearGradient><path fill="url(#az)" d="M31.4-21.2s-.6-.8-.8-1.2c-.1-.4-.4-1.1-.6-1.3-.2-.2-1.2-1.4-1.4-1.7-.2-.2-.4-.4-.6-.5-.2-.1-.3-.8-.1-.9.2-.1.5-.1.7.1l.1.5c.1.5.3.8.9 1.2.6.4 1.5.8 1.7 1 .2.2.7.5 1.2.6.5.1 2.4 1 2.6 1.2.3.2-.1.9-.1.9l-3.6.1z"/><linearGradient id="aA" gradientUnits="userSpaceOnUse" x1="-98.815" y1="-15288.668" x2="-95.762" y2="-15285.637" gradientTransform="matrix(1 0 0 -1 135.243 -15314.69)"><stop offset=".006" stop-color="#F6A18E"/><stop offset=".438" stop-color="#FCCFA1"/><stop offset="1" stop-color="#F5E9DF"/></linearGradient><path fill="url(#aA)" d="M36.8-24.3l1 .3s.7-.6 1-1c.3-.5.5-1.3.5-2 0-.6 0-.9-.2-1.1-.2-.2-.4-.5-.4-.6 0-.1-.9-.2-1.5-.1-.5.1-1.6.6-2 .7-.4 0-.2.7-.2.7l1.8 3.1z"/><linearGradient id="aB" gradientUnits="userSpaceOnUse" x1="-99.478" y1="-15289.402" x2="-97.005" y2="-15286.889" gradientTransform="matrix(1 0 0 -1 135.243 -15314.69)"><stop offset=".006" stop-color="#E38B79"/><stop offset=".438" stop-color="#FCCFA1"/><stop offset="1" stop-color="#F5E9DF"/></linearGradient><path fill="url(#aB)" d="M37.2-24.4s.1-.1.2-.7.3-1.4.4-1.7c.1-.2-.6-.7-1.4-.6-.9.1-1 0-1 0v2.4c0 .2 1 .7 1.8.6z"/><linearGradient id="aC" gradientUnits="userSpaceOnUse" x1="-101.967" y1="-15289.152" x2="-104.669" y2="-15286.45" gradientTransform="matrix(1 0 0 -1 135.243 -15314.69)"><stop offset=".006" stop-color="#F6A18E"/><stop offset=".438" stop-color="#FCCFA1"/><stop offset="1" stop-color="#F5E9DF"/></linearGradient><path fill="url(#aC)" d="M31.9-23.9s-.1-.2-.3-.5c-.2-.2-.6-.4-.7-.7s0-.6-.1-.8c-.1-.2-.2-.9-.2-1.3s.1-.5.1-.8c0-.2-.1-.5.2-.5.3-.1.9-.1 1.4-.2.5 0 1 .1 1.2.3.2.2.4 2.9.4 2.9l-2 1.6z"/><linearGradient id="aD" gradientUnits="userSpaceOnUse" x1="-100.673" y1="-15287.717" x2="-100.844" y2="-15286.075" gradientTransform="matrix(1 0 0 -1 135.243 -15314.69)"><stop offset=".006" stop-color="#F6A18E"/><stop offset=".438" stop-color="#FCCFA1"/><stop offset="1" stop-color="#F5E9DF"/></linearGradient><path fill="url(#aD)" d="M33.3-25.2s.1-.6.1-1-.2-.7-.2-1c0-.3-.3-1 .2-1.2.5-.2 1-.4 1.6 0 .6.4 1.1.9 1.1 1.1 0 .2-.2 2.5-.1 2.7-.1-.1-2 .3-2.7-.6z"/><linearGradient id="aE" gradientUnits="userSpaceOnUse" x1="-100.393" y1="-15288.535" x2="-99.253" y2="-15287.338" gradientTransform="matrix(1 0 0 -1 135.243 -15314.69)"><stop offset=".006" stop-color="#B27B76"/><stop offset=".438" stop-color="#FBC591"/><stop offset="1" stop-color="#EDD5C3"/></linearGradient><path fill="url(#aE)" d="M36-27.4s-.2-.2-.6 0c-.4.2-1.3.6-1.2 1.4.1.8 1.6-.3 1.6-.3l.2-.8c.1 0 0-.1 0-.3z"/><linearGradient id="aF" gradientUnits="userSpaceOnUse" x1="-100.789" y1="-15288.728" x2="-101.131" y2="-15287.13" gradientTransform="matrix(1 0 0 -1 135.243 -15314.69)"><stop offset=".006" stop-color="#F6A18E"/><stop offset=".438" stop-color="#FCCFA1"/><stop offset="1" stop-color="#F5E9DF"/></linearGradient><path fill="url(#aF)" d="M33.7-25.9s-.1-1-.1-1.2c0-.3 0-.3.2-.1.2.2.4.2.6.1.1-.1.5 0 .6.2 0 .2-.1 1.1-.1 1.1s-.8.2-1.2-.1z"/><linearGradient id="aG" gradientUnits="userSpaceOnUse" x1="-102.339" y1="-15287.913" x2="-100.757" y2="-15287.913" gradientTransform="matrix(1 0 0 -1 135.243 -15314.69)"><stop offset=".006" stop-color="#F6A18E"/><stop offset=".438" stop-color="#FCCFA1"/><stop offset="1" stop-color="#F5E9DF"/></linearGradient><path fill="url(#aG)" d="M34.5-26.1s-.1-.2-.3-.3c-.2-.1-.8-.5-1.2-1.4v.4c.1.1.2.7.2 1.1 0 .4-.2.6-.1.9.2.3 1.2-.1 1.4-.7z"/><linearGradient id="aH" gradientUnits="userSpaceOnUse" x1="-100.267" y1="-15289.78" x2="-100.752" y2="-15287.518" gradientTransform="matrix(1 0 0 -1 135.243 -15314.69)"><stop offset=".006" stop-color="#F6A18E"/><stop offset=".438" stop-color="#FCCFA1"/><stop offset="1" stop-color="#F5E9DF"/></linearGradient><path fill="url(#aH)" d="M33.3-25.6s.1-.3.5-.5c.4-.1 1.1-.2 1.4-.5.3-.3.8-.4.8-.8 0 0 .2.4.1.8s-.2 1.3-.1 1.7c0 0-3.1.3-2.7-.7z"/><linearGradient id="aI" gradientUnits="userSpaceOnUse" x1="-100.828" y1="-15291.232" x2="-100.894" y2="-15288.083" gradientTransform="matrix(1 0 0 -1 135.243 -15314.69)"><stop offset=".006" stop-color="#F6A18E"/><stop offset=".438" stop-color="#FCCFA1"/><stop offset="1" stop-color="#F5E9DF"/></linearGradient><path fill="url(#aI)" d="M32.6-23.9c-.1 0-.7-1-.9-1.5-.2-.4-.2-.5-.2-.8-.1-.3.1 0 .4-.1.3 0 .7.3.8.4.2.1.5.2.8.3.3.1.7.1 1.1.2.4 0 1.8.5 2.1.6.4.1.5.2.5.4v.3s-3.3.4-4.6.2z"/><linearGradient id="aJ" gradientUnits="userSpaceOnUse" x1="-99.835" y1="-15292.64" x2="-99.461" y2="-15290.083" gradientTransform="matrix(1 0 0 -1 135.243 -15314.69)"><stop offset=".006" stop-color="#F6A18E"/><stop offset=".438" stop-color="#FCCFA1"/><stop offset="1" stop-color="#F5E9DF"/></linearGradient><path fill="url(#aJ)" d="M32.6-23.5s.2 0 .8.1l1.4-.1c.6 0 1.7-.2 1.9-.2.2.1.3 0 .5-.1s.8-.1 1.2-.1c.4-.1 1.4-.4 1.5-.7.1-.3-.3-.4-.4-.3-.1.1-1.2.4-1.5.5-.3.1-.8.3-1.3.3s-2.9.1-3.5.1c-.6 0-1.7-.2-1.6.1.1.2.5.4 1 .4z"/><linearGradient id="aK" gradientUnits="userSpaceOnUse" x1="-100.375" y1="-15294.595" x2="-100.922" y2="-15292.041" gradientTransform="matrix(1 0 0 -1 135.243 -15314.69)"><stop offset=".006" stop-color="#F6A18E"/><stop offset=".438" stop-color="#FCCFA1"/><stop offset="1" stop-color="#F5E9DF"/></linearGradient><path fill="url(#aK)" d="M38.7-20.7c.5-.2.9-.7 1-.9.1-.2.4-.6.4-.8 0-.2-1.1 0-1.6 0s-1.3.4-1.6.5c-.3.1-1.4.2-1.4.2s-4.8.3-5.4.3c-.6 0-1-.1-1.1 0-.1.1-.2.7.1.7.2 0 1.9.2 2.5.3.7.1 1.7 0 1.8-.1.1-.1.6-.3 1.3-.3.6 0 1.4.1 1.7.2.2.1 1.4-.3 2-.1"/><path fill="#25534D" d="M37.5-33.2s-.7.8-.3 1.7c0 0 .1 0 0-.2 0-.2-.1-.7.3-1.5zm-.1 1.7s.6 0 .7-.2c0 0 .5.1.7-.2 0 0-.3.3-.6.3-.1.1-.7.5-.8.1zm1.2-1.9s-1.1.6-1.3 1.7c0 0 .7-1.2 1.3-1.7z"/><linearGradient id="aL" gradientUnits="userSpaceOnUse" x1="-123.947" y1="-15285.475" x2="-121.779" y2="-15281.004" gradientTransform="matrix(1 0 0 -1 135.243 -15314.69)"><stop offset=".006" stop-color="#25534D"/><stop offset=".438" stop-color="#618E87"/><stop offset="1" stop-color="#B2C3C0"/></linearGradient><path fill="url(#aL)" d="M12.5-28.4s-1.2-.8-1.5-1.4c-.3-.6-.2-1.8-.3-2.1-.1-.4-.4-1.6-.6-1.8 0 0 .3.3.8.7.5.4 1.1 0 2.1.7 1.1.7 1.6 3.1 1.2 4-.3.9-1.2.3-1.7-.1z"/><path fill="#25534D" d="M13.5-28.7s-.3-.4-.4-.6c-.1-.2-1.1-2-1.4-2.2 0 0 .6 1 .8 1.4 0 0-1.1-.3-1.3-.2 0 0 1.1.2 1.3.4 0 0 .2.4.3.5.1.1-.9.1-1.1.2 0 0 1-.1 1.1 0l.3.3c.1.1.3.5.3.5l.1-.3zm.1-.6s-.2-.3-.2-.5-.2-.4-.4-.7c-.2-.3-.2-.6-.4-.7 0 0 .5.7.7.9.2.2.2-.1.1-.5s.2.2.2.8c0 .5.3.3.4 0 .1-.3.2.4 0 .8-.2.5-.2.1-.4-.1z"/><linearGradient id="aM" gradientUnits="userSpaceOnUse" x1="-122.961" y1="-15283.829" x2="-125.065" y2="-15282.415" gradientTransform="matrix(1 0 0 -1 135.243 -15314.69)"><stop offset=".006" stop-color="#25534D"/><stop offset=".438" stop-color="#618E87"/><stop offset="1" stop-color="#B2C3C0"/></linearGradient><path fill="url(#aM)" d="M13.8-28.9s-.5-.3-.7-.9c-.2-.6-1-1.8-1.4-2.1-.4-.3-1.2-1.1-1.3-1.3 0 0 0 .1.2.3.2.2.7.7.9 1 .2.3.8.9 1 1.3.2.3 1.1 1.8 1.2 1.8l.1-.1z"/><linearGradient id="aN" gradientUnits="userSpaceOnUse" x1="-126.98" y1="-15290.689" x2="-131.107" y2="-15287.915" gradientTransform="matrix(1 0 0 -1 135.243 -15314.69)"><stop offset=".006" stop-color="#25534D"/><stop offset=".438" stop-color="#618E87"/><stop offset="1" stop-color="#B2C3C0"/></linearGradient><path fill="url(#aN)" d="M12.8-22.7s-.5-.7-1.1-.8c-.6-.1-.8-.2-1.2 0-.4.2-.7.8-1 .7-.3 0-.8-.6-1.2-.9-.4-.3-.8-.5-1.2-.3-.4.2-.9.1-1.1 0-.2-.1-.3 0-.6.1-.4.1-1.1-.1-1.5-.5-.4-.4-1-.8-1.5-.8 0 0 .3.1 1.1-.1s2.5-.7 3.1-1c.7-.3 1.4-.5 2.3.1.9.6 2.6 1.5 2.9 2 .2.5.6.7.8 1l.5.5h-.3z"/><linearGradient id="aO" gradientUnits="userSpaceOnUse" x1="-117.044" y1="-15281.334" x2="-113.812" y2="-15281.334" gradientTransform="matrix(1 0 0 -1 135.243 -15314.69)"><stop offset=".006" stop-color="#F6A18E"/><stop offset=".438" stop-color="#FCCFA1"/><stop offset="1" stop-color="#F5E9DF"/></linearGradient><path fill="url(#aO)" d="M18.4-33s.3-.6.6-.9c.3-.3 1-.5 1.6-.8l.7-.3s.1.1.1.2v.3s-.3.1-.5.4c-.2.3-.4 1.1-.8 1.6s-1.2 1-1.6.8c-.3-.2-.5-.9-.1-1.3z"/><linearGradient id="aP" gradientUnits="userSpaceOnUse" x1="-117.286" y1="-15284.577" x2="-114.655" y2="-15279.153" gradientTransform="matrix(1 0 0 -1 135.243 -15314.69)"><stop offset=".006" stop-color="#25534D"/><stop offset=".438" stop-color="#618E87"/><stop offset="1" stop-color="#B2C3C0"/></linearGradient><path fill="url(#aP)" d="M17.7-30.1c.3-.9.3-.9.4-1.1 0-.3-.1-.3-.1-.7 0-.3-.1-.9.2-1.2.2-.3.6-.6.7-.9 0 0-.1.4-.2.6 0 0 .7-.3.9-.2.2 0 .5-.2.6-.4 0 0-.3.3-.2.5 0 .3-.1.6-.5 1.2l-.1.1c.2-.1.6-.1.8-.4.1-.3.5-.7.7-.7 0 0-.2.3-.3.6-.2.3-.6 1.4-1.3 1.2 0 0-.4.4-.6.3 0 0-.4 1-.6 1.3"/><linearGradient id="aQ" gradientUnits="userSpaceOnUse" x1="-119.092" y1="-15295.778" x2="-117.782" y2="-15296.706" gradientTransform="matrix(1 0 0 -1 135.243 -15314.69)"><stop offset=".006" stop-color="#25534D"/><stop offset=".438" stop-color="#618E87"/><stop offset="1" stop-color="#B2C3C0"/></linearGradient><path fill="url(#aQ)" d="M15.1-18.9s.3 1.1.7 1.1c.5.1 1 0 1.1-.3.1-.3.2-1.1.3-1.5 0-.3-2.2-.5-2.1.7z"/><linearGradient id="aR" gradientUnits="userSpaceOnUse" x1="-117.738" y1="-15295.403" x2="-114.464" y2="-15295.403" gradientTransform="matrix(1 0 0 -1 135.243 -15314.69)"><stop offset=".006" stop-color="#25534D"/><stop offset=".438" stop-color="#618E87"/><stop offset="1" stop-color="#B2C3C0"/></linearGradient><path fill="url(#aR)" d="M16.4-19.2s.1.5.6.4c.6-.1.9-.5 1.4-.3.5.2 2.3.3 2.7.2 0 0-.4 0-.7-.1-.4-.2-.8-.4-1.1-.4-.3 0-.8 0-1.1-.2-.3-.2-1.8-.3-1.8.4z"/><linearGradient id="aS" gradientUnits="userSpaceOnUse" x1="-119.304" y1="-15295.368" x2="-122.18" y2="-15298.33" gradientTransform="matrix(1 0 0 -1 135.243 -15314.69)"><stop offset=".006" stop-color="#25534D"/><stop offset=".438" stop-color="#618E87"/><stop offset="1" stop-color="#B2C3C0"/></linearGradient><path fill="url(#aS)" d="M15-19.4s-.6.3-.6.6c-.1.3-.1 1-.4 1.2-.3.3-.7 1.1-.7 1.1s0-.1.3-.3c.3-.2.7-.1 1.1-.5.4-.4 2-1.1 1.7-2-.4-.7-1.1-.3-1.4-.1z"/><path fill="#25534D" d="M15.7-19.1s-.3.2-.4.3c-.1.1-.2.6-.3.8l-.7.7-.5.4c-.1.1 0-.1 0-.1l.3-.3c.1-.1.6-.5.7-.8.1-.3.5-1 .8-1.1.3-.1.2-.1.1.1z"/><linearGradient id="aT" gradientUnits="userSpaceOnUse" x1="-121.195" y1="-15295.393" x2="-126.248" y2="-15295.971" gradientTransform="matrix(1 0 0 -1 135.243 -15314.69)"><stop offset=".006" stop-color="#25534D"/><stop offset=".438" stop-color="#618E87"/><stop offset="1" stop-color="#B2C3C0"/></linearGradient><path fill="url(#aT)" d="M14.4-19.4s-1-.3-1.3-.1c-.3.2-2.3.9-3.1.7 0 0 1.2.3 1.7.1.5-.1 1-.4 1.5-.3.4.1 1.9.3 1.2-.4z"/><linearGradient id="aU" gradientUnits="userSpaceOnUse" x1="-124.198" y1="-15288.912" x2="-124.272" y2="-15285.361" gradientTransform="matrix(1 0 0 -1 135.243 -15314.69)"><stop offset=".006" stop-color="#F6A18E"/><stop offset=".438" stop-color="#FCCFA1"/><stop offset="1" stop-color="#F5E9DF"/></linearGradient><path fill="url(#aU)" d="M9.4-26.8s-.3-1.3-.5-1.6 0-.8.2-.6c.2.2 1.5.5 1.9.3.4-.2 1.6-.3 1.9-.1.3.2-.1 1.4-.1 1.4l-2.1 1.1-1.3-.5z"/><linearGradient id="aV" gradientUnits="userSpaceOnUse" x1="-117.408" y1="-15294.62" x2="-119.229" y2="-15286.123" gradientTransform="matrix(1 0 0 -1 135.243 -15314.69)"><stop offset=".006" stop-color="#E38B79"/><stop offset=".438" stop-color="#FCCFA1"/><stop offset="1" stop-color="#F5E9DF"/></linearGradient><path fill="url(#aV)" d="M16.6-19s-.5-.2-1.5-.1c-.9.1-2.5-.4-3.3-1.4-.8-1-2.3-6.2-2.3-6.2l10.7-.9s1.5-.5 1.7-.7c.2-.2.3-.1.4.1l.4.2c.1.1-.1.7.3.9.3.2.5.2.3.7-.2.5-.3 3.6-.3 4 0 .4-.5.4-1 .6-.6.2-1.3.6-1.5.7-.2.1-.9.3-1 .3-.2 0-.6 1.5-2.9 1.8z"/><linearGradient id="aW" gradientUnits="userSpaceOnUse" x1="-116.458" y1="-15291.641" x2="-112.98" y2="-15288.186" gradientTransform="matrix(1 0 0 -1 135.243 -15314.69)"><stop offset=".006" stop-color="#E38B79"/><stop offset=".438" stop-color="#FCCFA1"/><stop offset="1" stop-color="#F5E9DF"/></linearGradient><path fill="url(#aW)" d="M22.3-24.9s-.2 0-.3-.3c-.1-.3-.1-.5-.3-.6-.2-.1-.7-.4-.9-.4-.2.1-.8.2-.9.4-.1.2-2.2 2.9-2.2 2.9s-.1.4.3.3c.4-.1 3.8-1.6 4.3-2.3z"/><linearGradient id="aX" gradientUnits="userSpaceOnUse" x1="-122.047" y1="-15290.039" x2="-125.376" y2="-15286.51" gradientTransform="matrix(1 0 0 -1 135.243 -15314.69)"><stop offset=".006" stop-color="#E38B79"/><stop offset=".438" stop-color="#FCCFA1"/><stop offset="1" stop-color="#F5E9DF"/></linearGradient><path fill="url(#aX)" d="M12-27.3s-1 .3-1.2.3c-.2 0-1.4.1-1.4.2l.3.8s1.5 1.7 1.7 1.9c.3.1 2.3 1.4 2.3 1.4l1.3-1.7s-.6-3-3-2.9z"/><linearGradient id="aY" gradientUnits="userSpaceOnUse" x1="-119.203" y1="-15287.446" x2="-119.278" y2="-15283.876" gradientTransform="matrix(1 0 0 -1 135.243 -15314.69)"><stop offset=".006" stop-color="#F6A18E"/><stop offset=".438" stop-color="#FCCFA1"/><stop offset="1" stop-color="#F5E9DF"/></linearGradient><path fill="url(#aY)" d="M12.9-28.2s1-.9 1.2-1.2c.2-.3 1.1-1.3 1.3-1.1.3.2.7.3.8.2.1-.1.2-.2.3-.1.1 0 .3.2.4.1.1-.1 2.1.6 2.2 1.7.1 1.1-2.4.8-2.4.8l-3.8-.4z"/><linearGradient id="aZ" gradientUnits="userSpaceOnUse" x1="-119.646" y1="-15292.322" x2="-118.868" y2="-15288.982" gradientTransform="matrix(1 0 0 -1 135.243 -15314.69)"><stop offset=".006" stop-color="#E38B79"/><stop offset=".438" stop-color="#FCCFA1"/><stop offset="1" stop-color="#F5E9DF"/></linearGradient><path fill="url(#aZ)" d="M18-22.8l1-1c.2-.2.5-.5.4-.5-.1.1-1.1.3-1.4.3-.2 0-4.5.3-4.5.3s-1-.2-1 .1c0 .3 2.9 1.5 2.9 1.5l1.4-.2"/><linearGradient id="ba" gradientUnits="userSpaceOnUse" x1="-115.712" y1="-15292.426" x2="-116.178" y2="-15290.251" gradientTransform="matrix(1 0 0 -1 135.243 -15314.69)"><stop offset=".006" stop-color="#F6A18E"/><stop offset=".438" stop-color="#FCCFA1"/><stop offset="1" stop-color="#F5E9DF"/></linearGradient><path fill="url(#ba)" d="M15.5-21.5s-.1-.1.3-.4c.4-.3.9-.7 1.3-.8.4 0 .8-.2 1.2-.5.5-.2 3.1-1.6 3.5-1.7.4-.1.5-.1.8.2.3.3 1 .7.7.8-.3.1-1.7.7-2.1.8-.5.1-1 .3-1.6.5l-2.2 1c-.3 0-1.8.5-1.9.1"/><linearGradient id="bb" gradientUnits="userSpaceOnUse" x1="-123.142" y1="-15293.497" x2="-122.542" y2="-15289.848" gradientTransform="matrix(1 0 0 -1 135.243 -15314.69)"><stop offset=".006" stop-color="#F6A18E"/><stop offset=".438" stop-color="#FCCFA1"/><stop offset="1" stop-color="#F5E9DF"/></linearGradient><path fill="url(#bb)" d="M12.4-21.2s-.6-.8-.8-1.2c-.1-.4-.4-1.1-.6-1.3-.2-.2-1.2-1.4-1.4-1.7-.2-.2-.4-.4-.6-.5-.2-.1-.3-.8-.1-.9.2-.1.5-.1.7.1l.1.5c.1.5.3.8.9 1.2.6.4 1.5.8 1.7 1 .2.2.7.5 1.2.6.5.1 2.4 1 2.6 1.2.3.2-.1.9-.1.9l-3.6.1z"/><linearGradient id="bc" gradientUnits="userSpaceOnUse" x1="-117.815" y1="-15288.668" x2="-114.762" y2="-15285.637" gradientTransform="matrix(1 0 0 -1 135.243 -15314.69)"><stop offset=".006" stop-color="#F6A18E"/><stop offset=".438" stop-color="#FCCFA1"/><stop offset="1" stop-color="#F5E9DF"/></linearGradient><path fill="url(#bc)" d="M17.8-24.3l1 .3s.7-.6 1-1c.3-.5.5-1.3.5-2 0-.6 0-.9-.2-1.1-.2-.2-.4-.5-.4-.6 0-.1-.9-.2-1.5-.1-.5.1-1.6.6-2 .7-.4 0-.2.7-.2.7l1.8 3.1z"/><linearGradient id="bd" gradientUnits="userSpaceOnUse" x1="-118.478" y1="-15289.402" x2="-116.005" y2="-15286.889" gradientTransform="matrix(1 0 0 -1 135.243 -15314.69)"><stop offset=".006" stop-color="#E38B79"/><stop offset=".438" stop-color="#FCCFA1"/><stop offset="1" stop-color="#F5E9DF"/></linearGradient><path fill="url(#bd)" d="M18.2-24.4s.1-.1.2-.7.3-1.4.4-1.7c.1-.2-.6-.7-1.4-.6-.9.1-1 0-1 0v2.4c0 .2 1 .7 1.8.6z"/><linearGradient id="be" gradientUnits="userSpaceOnUse" x1="-120.967" y1="-15289.152" x2="-123.669" y2="-15286.45" gradientTransform="matrix(1 0 0 -1 135.243 -15314.69)"><stop offset=".006" stop-color="#F6A18E"/><stop offset=".438" stop-color="#FCCFA1"/><stop offset="1" stop-color="#F5E9DF"/></linearGradient><path fill="url(#be)" d="M12.9-23.9s-.1-.2-.3-.5c-.2-.2-.6-.4-.7-.7 0-.3 0-.6-.1-.8-.1-.2-.2-.9-.2-1.3s.1-.5.1-.8c0-.2-.1-.5.2-.5.3-.1.9-.1 1.4-.2.5 0 1 .1 1.2.3.2.2.4 2.9.4 2.9l-2 1.6z"/><linearGradient id="bf" gradientUnits="userSpaceOnUse" x1="-119.673" y1="-15287.717" x2="-119.844" y2="-15286.075" gradientTransform="matrix(1 0 0 -1 135.243 -15314.69)"><stop offset=".006" stop-color="#F6A18E"/><stop offset=".438" stop-color="#FCCFA1"/><stop offset="1" stop-color="#F5E9DF"/></linearGradient><path fill="url(#bf)" d="M14.3-25.2s.1-.6.1-1-.2-.7-.2-1c0-.3-.3-1 .2-1.2.5-.2 1-.4 1.6 0 .6.4 1.1.9 1.1 1.1 0 .2-.2 2.5-.1 2.7-.1-.1-2 .3-2.7-.6z"/><linearGradient id="bg" gradientUnits="userSpaceOnUse" x1="-119.393" y1="-15288.535" x2="-118.253" y2="-15287.338" gradientTransform="matrix(1 0 0 -1 135.243 -15314.69)"><stop offset=".006" stop-color="#B27B76"/><stop offset=".438" stop-color="#FBC591"/><stop offset="1" stop-color="#EDD5C3"/></linearGradient><path fill="url(#bg)" d="M17-27.4s-.2-.2-.6 0c-.4.2-1.3.6-1.2 1.4.1.8 1.6-.3 1.6-.3l.2-.8c.1 0 0-.1 0-.3z"/><linearGradient id="bh" gradientUnits="userSpaceOnUse" x1="-119.789" y1="-15288.728" x2="-120.131" y2="-15287.13" gradientTransform="matrix(1 0 0 -1 135.243 -15314.69)"><stop offset=".006" stop-color="#F6A18E"/><stop offset=".438" stop-color="#FCCFA1"/><stop offset="1" stop-color="#F5E9DF"/></linearGradient><path fill="url(#bh)" d="M14.7-25.9s-.1-1-.1-1.2c0-.3 0-.3.2-.1.2.2.4.2.6.1.1-.1.5 0 .6.2 0 .2-.1 1.1-.1 1.1s-.8.2-1.2-.1z"/><linearGradient id="bi" gradientUnits="userSpaceOnUse" x1="-121.339" y1="-15287.913" x2="-119.757" y2="-15287.913" gradientTransform="matrix(1 0 0 -1 135.243 -15314.69)"><stop offset=".006" stop-color="#F6A18E"/><stop offset=".438" stop-color="#FCCFA1"/><stop offset="1" stop-color="#F5E9DF"/></linearGradient><path fill="url(#bi)" d="M15.5-26.1s-.1-.2-.3-.3c-.2-.1-.8-.5-1.2-1.4v.4c.1.1.2.7.2 1.1 0 .4-.2.6-.1.9.2.3 1.2-.1 1.4-.7z"/><linearGradient id="bj" gradientUnits="userSpaceOnUse" x1="-119.267" y1="-15289.78" x2="-119.752" y2="-15287.518" gradientTransform="matrix(1 0 0 -1 135.243 -15314.69)"><stop offset=".006" stop-color="#F6A18E"/><stop offset=".438" stop-color="#FCCFA1"/><stop offset="1" stop-color="#F5E9DF"/></linearGradient><path fill="url(#bj)" d="M14.3-25.6s.1-.3.5-.5c.4-.1 1.1-.2 1.4-.5.3-.3.8-.4.8-.8 0 0 .2.4.1.8s-.2 1.3-.1 1.7c0 0-3.1.3-2.7-.7z"/><linearGradient id="bk" gradientUnits="userSpaceOnUse" x1="-119.828" y1="-15291.232" x2="-119.894" y2="-15288.083" gradientTransform="matrix(1 0 0 -1 135.243 -15314.69)"><stop offset=".006" stop-color="#F6A18E"/><stop offset=".438" stop-color="#FCCFA1"/><stop offset="1" stop-color="#F5E9DF"/></linearGradient><path fill="url(#bk)" d="M13.6-23.9c-.1 0-.7-1-.9-1.5-.2-.4-.2-.5-.2-.8-.1-.3.1 0 .4-.1.3 0 .7.3.8.4.2.1.5.2.8.3.3.1.7.1 1.1.2.4 0 1.8.5 2.1.6.4.1.5.2.5.4v.3s-3.3.4-4.6.2z"/><linearGradient id="bl" gradientUnits="userSpaceOnUse" x1="-118.835" y1="-15292.64" x2="-118.461" y2="-15290.083" gradientTransform="matrix(1 0 0 -1 135.243 -15314.69)"><stop offset=".006" stop-color="#F6A18E"/><stop offset=".438" stop-color="#FCCFA1"/><stop offset="1" stop-color="#F5E9DF"/></linearGradient><path fill="url(#bl)" d="M13.6-23.5s.2 0 .8.1l1.4-.1c.6 0 1.7-.2 1.9-.2.2.1.3 0 .5-.1s.8-.1 1.2-.1c.4-.1 1.4-.4 1.5-.7.1-.3-.3-.4-.4-.3-.1.1-1.2.4-1.5.5-.3.1-.8.3-1.3.3s-2.9.1-3.5.1c-.6 0-1.7-.2-1.6.1.1.2.5.4 1 .4z"/><linearGradient id="bm" gradientUnits="userSpaceOnUse" x1="-119.375" y1="-15294.595" x2="-119.922" y2="-15292.041" gradientTransform="matrix(1 0 0 -1 135.243 -15314.69)"><stop offset=".006" stop-color="#F6A18E"/><stop offset=".438" stop-color="#FCCFA1"/><stop offset="1" stop-color="#F5E9DF"/></linearGradient><path fill="url(#bm)" d="M19.7-20.7c.5-.2.9-.7 1-.9.1-.2.4-.6.4-.8 0-.2-1.1 0-1.6 0s-1.3.4-1.6.5c-.3.1-1.4.2-1.4.2s-4.8.3-5.4.3c-.6 0-1-.1-1.1 0-.1.1-.2.7.1.7.2 0 1.9.2 2.5.3.7.1 1.7 0 1.8-.1.1-.1.6-.3 1.3-.3.6 0 1.4.1 1.7.2.2.1 1.4-.3 2-.1"/><path fill="#25534D" d="M18.5-33.2s-.7.8-.3 1.7c0 0 .1 0 0-.2 0-.2-.1-.7.3-1.5zm-.1 1.7s.6 0 .7-.2c0 0 .5.1.7-.2 0 0-.3.3-.6.3-.1.1-.7.5-.8.1zm1.2-1.9s-1.1.6-1.3 1.7c0 0 .7-1.2 1.3-1.7z"/><linearGradient id="bn" gradientUnits="userSpaceOnUse" x1="-79.48" y1="-15271.689" x2="-83.607" y2="-15268.915" gradientTransform="matrix(1 0 0 -1 135.243 -15314.69)"><stop offset=".006" stop-color="#25534D"/><stop offset=".438" stop-color="#618E87"/><stop offset="1" stop-color="#B2C3C0"/></linearGradient><path fill="url(#bn)" d="M60.3-41.7s-.5-.7-1.1-.8c-.6-.1-.8-.2-1.2 0-.4.2-.7.8-1 .7-.3 0-.8-.6-1.2-.9-.4-.3-.8-.5-1.2-.3-.4.2-.9.1-1.1 0-.2-.1-.3 0-.6.1s-1.1-.2-1.5-.6c-.4-.4-1-.8-1.5-.8 0 0 .3.1 1.1-.1s2.5-.7 3.1-1c.7-.3 1.4-.5 2.3.1.9.6 2.6 1.5 2.9 2 .2.5.6.7.8 1l.5.5-.3.1z"/><linearGradient id="bo" gradientUnits="userSpaceOnUse" x1="-98.48" y1="-15271.689" x2="-102.607" y2="-15268.915" gradientTransform="matrix(1 0 0 -1 135.243 -15314.69)"><stop offset=".006" stop-color="#25534D"/><stop offset=".438" stop-color="#618E87"/><stop offset="1" stop-color="#B2C3C0"/></linearGradient><path fill="url(#bo)" d="M41.3-41.7s-.5-.7-1.1-.8c-.6-.1-.8-.2-1.2 0-.4.2-.7.8-1 .7-.3 0-.8-.6-1.2-.9-.4-.3-.8-.5-1.2-.3-.4.2-.9.1-1.1 0-.2-.1-.3 0-.6.1s-1.1-.2-1.5-.6c-.4-.4-1-.8-1.5-.8 0 0 .3.1 1.1-.1s2.5-.7 3.1-1c.7-.3 1.4-.5 2.3.1.9.6 2.6 1.5 2.9 2 .2.5.6.7.8 1l.5.5-.3.1z"/><path fill="#25534D" d="M38.1-44.3s-1.3-.3-1.8-.3c-.4 0-1.1-.2-1.1-.2h.6c.5 0 .5-.3.3-.4-.2-.1-.1-.3.6.3.6.7.5.1.5 0s.2 0 .4.3c.1.2.5.3.5.3zm0 .8s-.8-.6-1.1-.6c-.3 0-1.4-.3-1.7-.2-.2 0-.9 0-1.2.1h.8c.2 0 .6-.1.8 0 .2.1.1.1-.2.3-.4.1-1 .6-1.1.8 0 0 .4-.5.8-.6.4-.1.8-.3.8-.4 0 0 .6 0 .9.1.2.1 0 .3-.4.5-.3.2-.5.3-.5.3s.1 0 .4-.2c.3-.1.7-.4.8-.5.1 0 .7.4.8.7l.1-.3z"/><linearGradient id="bp" gradientUnits="userSpaceOnUse" x1="-99.746" y1="-15270.933" x2="-101.981" y2="-15269.43" gradientTransform="matrix(1 0 0 -1 135.243 -15314.69)"><stop offset=".006" stop-color="#25534D"/><stop offset=".438" stop-color="#618E87"/><stop offset="1" stop-color="#B2C3C0"/></linearGradient><path fill="url(#bp)" d="M32.1-44.2s.2.2.7.1c.5-.1 1.4-.4 2-.4.6 0 2.6.2 2.9.6l.5.5.1-.1s-.5-.5-.7-.6c-.2-.2-2.5-.6-2.9-.5-.3 0-2 .6-2.6.4z"/><linearGradient id="bq" gradientUnits="userSpaceOnUse" x1="-90.592" y1="-15276.778" x2="-89.282" y2="-15277.706" gradientTransform="matrix(1 0 0 -1 135.243 -15314.69)"><stop offset=".006" stop-color="#25534D"/><stop offset=".438" stop-color="#618E87"/><stop offset="1" stop-color="#B2C3C0"/></linearGradient><path fill="url(#bq)" d="M43.6-37.9s.3 1.1.7 1.1c.5.1 1 0 1.1-.3.1-.3.2-1.1.3-1.5 0-.3-2.2-.5-2.1.7z"/><linearGradient id="br" gradientUnits="userSpaceOnUse" x1="-89.238" y1="-15276.403" x2="-85.964" y2="-15276.403" gradientTransform="matrix(1 0 0 -1 135.243 -15314.69)"><stop offset=".006" stop-color="#25534D"/><stop offset=".438" stop-color="#618E87"/><stop offset="1" stop-color="#B2C3C0"/></linearGradient><path fill="url(#br)" d="M44.9-38.2s.1.5.6.4c.6-.1.9-.5 1.4-.3.5.2 2.3.3 2.7.2 0 0-.4 0-.7-.1-.4-.2-.8-.4-1.1-.4-.3 0-.8 0-1.1-.2-.3-.2-1.8-.3-1.8.4z"/><linearGradient id="bs" gradientUnits="userSpaceOnUse" x1="-90.804" y1="-15276.368" x2="-93.68" y2="-15279.33" gradientTransform="matrix(1 0 0 -1 135.243 -15314.69)"><stop offset=".006" stop-color="#25534D"/><stop offset=".438" stop-color="#618E87"/><stop offset="1" stop-color="#B2C3C0"/></linearGradient><path fill="url(#bs)" d="M43.5-38.4s-.6.3-.6.6c-.1.3-.1 1-.4 1.2-.3.3-.7 1.1-.7 1.1s0-.1.3-.3c.3-.2.7-.1 1.1-.5.4-.4 2-1.1 1.7-2-.4-.7-1.1-.3-1.4-.1z"/><path fill="#25534D" d="M44.2-38.1s-.3.2-.4.3c-.1.1-.2.6-.3.8l-.7.7-.5.4c-.1.1 0-.1 0-.1l.3-.3c.1-.1.6-.5.7-.8.1-.3.5-1 .8-1.1.3-.1.2-.1.1.1z"/><linearGradient id="bt" gradientUnits="userSpaceOnUse" x1="-92.695" y1="-15276.393" x2="-97.748" y2="-15276.971" gradientTransform="matrix(1 0 0 -1 135.243 -15314.69)"><stop offset=".006" stop-color="#25534D"/><stop offset=".438" stop-color="#618E87"/><stop offset="1" stop-color="#B2C3C0"/></linearGradient><path fill="url(#bt)" d="M42.9-38.4s-1-.3-1.3-.1c-.3.2-2.3.9-3.1.7 0 0 1.2.3 1.7.1.5-.1 1-.4 1.5-.3.4.1 1.9.3 1.2-.4z"/><linearGradient id="bu" gradientUnits="userSpaceOnUse" x1="-88.908" y1="-15275.62" x2="-90.729" y2="-15267.123" gradientTransform="matrix(1 0 0 -1 135.243 -15314.69)"><stop offset=".006" stop-color="#E38B79"/><stop offset=".438" stop-color="#FCCFA1"/><stop offset="1" stop-color="#F5E9DF"/></linearGradient><path fill="url(#bu)" d="M45.1-38s-.5-.2-1.5-.1c-.9.1-2.5-.4-3.3-1.4-.8-1-2.3-6.2-2.3-6.2l10.7-.9s1.5-.5 1.7-.7c.2-.2.3-.1.4.1l.4.2c.1.1-.1.7.3.9.3.2.5.2.3.7-.2.5-.3 3.6-.3 4 0 .4-.5.4-1 .6-.6.2-1.3.6-1.5.7-.2.1-.9.3-1 .3-.2 0-.6 1.5-2.9 1.8z"/><linearGradient id="bv" gradientUnits="userSpaceOnUse" x1="-87.958" y1="-15272.641" x2="-84.48" y2="-15269.186" gradientTransform="matrix(1 0 0 -1 135.243 -15314.69)"><stop offset=".006" stop-color="#E38B79"/><stop offset=".438" stop-color="#FCCFA1"/><stop offset="1" stop-color="#F5E9DF"/></linearGradient><path fill="url(#bv)" d="M50.8-43.9s-.2 0-.3-.3c-.1-.3-.1-.5-.3-.6-.2-.1-.7-.4-.9-.4-.2.1-.8.2-.9.4-.1.2-2.2 2.9-2.2 2.9s-.1.4.3.3c.4-.1 3.8-1.6 4.3-2.3z"/><linearGradient id="bw" gradientUnits="userSpaceOnUse" x1="-93.547" y1="-15271.039" x2="-96.876" y2="-15267.51" gradientTransform="matrix(1 0 0 -1 135.243 -15314.69)"><stop offset=".006" stop-color="#E38B79"/><stop offset=".438" stop-color="#FCCFA1"/><stop offset="1" stop-color="#F5E9DF"/></linearGradient><path fill="url(#bw)" d="M40.5-46.3s-1 .3-1.2.3c-.2 0-1.4.1-1.4.2l.3.8s1.5 1.7 1.7 1.9c.3.1 2.3 1.4 2.3 1.4l1.3-1.7s-.6-3-3-2.9z"/><linearGradient id="bx" gradientUnits="userSpaceOnUse" x1="-91.146" y1="-15273.322" x2="-90.368" y2="-15269.982" gradientTransform="matrix(1 0 0 -1 135.243 -15314.69)"><stop offset=".006" stop-color="#E38B79"/><stop offset=".438" stop-color="#FCCFA1"/><stop offset="1" stop-color="#F5E9DF"/></linearGradient><path fill="url(#bx)" d="M46.5-41.8l1-1c.2-.2.5-.5.4-.5-.1.1-1.1.3-1.3.3-.2 0-4.5.3-4.5.3s-1-.2-1 .1c-.1.3 2.9 1.6 2.9 1.6l1.4-.2"/><linearGradient id="by" gradientUnits="userSpaceOnUse" x1="-87.212" y1="-15273.426" x2="-87.678" y2="-15271.251" gradientTransform="matrix(1 0 0 -1 135.243 -15314.69)"><stop offset=".006" stop-color="#F6A18E"/><stop offset=".438" stop-color="#FCCFA1"/><stop offset="1" stop-color="#F5E9DF"/></linearGradient><path fill="url(#by)" d="M44-40.5s-.1-.1.3-.4c.4-.3.9-.7 1.3-.8.4 0 .8-.2 1.2-.5.5-.2 3.1-1.6 3.5-1.7.4-.1.5-.1.8.2.3.3 1 .7.7.8-.3.1-1.7.7-2.1.8-.5.1-1 .3-1.6.5l-2.2 1c-.3 0-1.8.5-1.9.1"/><linearGradient id="bz" gradientUnits="userSpaceOnUse" x1="-95.157" y1="-15272.698" x2="-97.976" y2="-15271.691" gradientTransform="matrix(1 0 0 -1 135.243 -15314.69)"><stop offset=".006" stop-color="#F6A18E"/><stop offset=".438" stop-color="#FCCFA1"/><stop offset="1" stop-color="#F5E9DF"/></linearGradient><path fill="url(#bz)" d="M41.1-40.3h-2l-.2-.2-.7-.5c-.1-.1 0-.2-.2-.2s-.6 0-.6-.2c0-.5.6-.8.6-1.4 0-.7-.1-2 0-2l2.5 2.6s.9 1.5.6 1.9z"/><linearGradient id="bA" gradientUnits="userSpaceOnUse" x1="-94.642" y1="-15274.497" x2="-94.042" y2="-15270.848" gradientTransform="matrix(1 0 0 -1 135.243 -15314.69)"><stop offset=".006" stop-color="#F6A18E"/><stop offset=".438" stop-color="#FCCFA1"/><stop offset="1" stop-color="#F5E9DF"/></linearGradient><path fill="url(#bA)" d="M40.9-40.2s-.6-.8-.8-1.2c-.1-.4-.4-1.1-.6-1.3-.2-.2-1.2-1.4-1.4-1.7-.2-.2-.4-.4-.6-.5-.2-.1-.3-.8-.1-.9.2-.1.5-.1.7.1l.1.5c.1.5.3.8.9 1.2.6.4 1.5.8 1.7 1 .2.2.7.5 1.2.6.5.1 2.4 1 2.6 1.2.3.2-.1.9-.1.9l-3.6.1z"/><linearGradient id="bB" gradientUnits="userSpaceOnUse" x1="-89.315" y1="-15269.668" x2="-86.262" y2="-15266.637" gradientTransform="matrix(1 0 0 -1 135.243 -15314.69)"><stop offset=".006" stop-color="#F6A18E"/><stop offset=".438" stop-color="#FCCFA1"/><stop offset="1" stop-color="#F5E9DF"/></linearGradient><path fill="url(#bB)" d="M46.3-43.3l1 .3s.7-.6 1-1c.3-.5.5-1.3.5-2 0-.6 0-.9-.2-1.1-.2-.2-.4-.5-.4-.6 0-.1-.9-.2-1.5-.1-.5.1-1.6.6-2 .7-.4 0-.2.7-.2.7l1.8 3.1z"/><linearGradient id="bC" gradientUnits="userSpaceOnUse" x1="-89.978" y1="-15270.402" x2="-87.505" y2="-15267.889" gradientTransform="matrix(1 0 0 -1 135.243 -15314.69)"><stop offset=".006" stop-color="#E38B79"/><stop offset=".438" stop-color="#FCCFA1"/><stop offset="1" stop-color="#F5E9DF"/></linearGradient><path fill="url(#bC)" d="M46.7-43.4s.1-.1.2-.7.3-1.4.4-1.7c.1-.2-.6-.7-1.4-.6-.9.1-1 0-1 0v2.4c0 .2 1 .7 1.8.6z"/><linearGradient id="bD" gradientUnits="userSpaceOnUse" x1="-92.467" y1="-15270.152" x2="-95.169" y2="-15267.45" gradientTransform="matrix(1 0 0 -1 135.243 -15314.69)"><stop offset=".006" stop-color="#F6A18E"/><stop offset=".438" stop-color="#FCCFA1"/><stop offset="1" stop-color="#F5E9DF"/></linearGradient><path fill="url(#bD)" d="M41.4-42.9s-.1-.2-.3-.5c-.2-.2-.6-.4-.7-.7 0-.3 0-.6-.1-.8-.1-.2-.2-.9-.2-1.3s.1-.5.1-.8c0-.2-.1-.5.2-.5.3-.1.9-.1 1.4-.2.5 0 1 .1 1.2.3.2.2.4 2.9.4 2.9l-2 1.6z"/><linearGradient id="bE" gradientUnits="userSpaceOnUse" x1="-91.173" y1="-15268.717" x2="-91.344" y2="-15267.075" gradientTransform="matrix(1 0 0 -1 135.243 -15314.69)"><stop offset=".006" stop-color="#F6A18E"/><stop offset=".438" stop-color="#FCCFA1"/><stop offset="1" stop-color="#F5E9DF"/></linearGradient><path fill="url(#bE)" d="M42.8-44.2s.1-.6.1-1-.2-.7-.2-1c0-.3-.3-1 .2-1.2.5-.2 1-.4 1.6 0 .6.4 1.1.9 1.1 1.1 0 .2-.2 2.5-.1 2.7-.1-.1-2 .3-2.7-.6z"/><linearGradient id="bF" gradientUnits="userSpaceOnUse" x1="-90.893" y1="-15269.535" x2="-89.753" y2="-15268.338" gradientTransform="matrix(1 0 0 -1 135.243 -15314.69)"><stop offset=".006" stop-color="#B27B76"/><stop offset=".438" stop-color="#FBC591"/><stop offset="1" stop-color="#EDD5C3"/></linearGradient><path fill="url(#bF)" d="M45.5-46.4s-.2-.2-.6 0c-.4.2-1.3.6-1.2 1.4.1.8 1.6-.3 1.6-.3l.2-.8c.1 0 0-.1 0-.3z"/><linearGradient id="bG" gradientUnits="userSpaceOnUse" x1="-92.839" y1="-15268.913" x2="-91.257" y2="-15268.913" gradientTransform="matrix(1 0 0 -1 135.243 -15314.69)"><stop offset=".006" stop-color="#F6A18E"/><stop offset=".438" stop-color="#FCCFA1"/><stop offset="1" stop-color="#F5E9DF"/></linearGradient><path fill="url(#bG)" d="M44-45.1s-.1-.2-.3-.3c-.2-.1-.8-.5-1.2-1.4v.4c.1.1.2.7.2 1.1 0 .4-.2.6-.1.9.2.3 1.2-.1 1.4-.7z"/><linearGradient id="bH" gradientUnits="userSpaceOnUse" x1="-90.767" y1="-15270.78" x2="-91.252" y2="-15268.518" gradientTransform="matrix(1 0 0 -1 135.243 -15314.69)"><stop offset=".006" stop-color="#F6A18E"/><stop offset=".438" stop-color="#FCCFA1"/><stop offset="1" stop-color="#F5E9DF"/></linearGradient><path fill="url(#bH)" d="M42.8-44.6s.1-.3.5-.5c.4-.1 1.1-.2 1.4-.5.3-.3.8-.4.8-.8 0 0 .2.4.1.8s-.2 1.3-.1 1.7c0 0-3.1.3-2.7-.7z"/><linearGradient id="bI" gradientUnits="userSpaceOnUse" x1="-91.328" y1="-15272.232" x2="-91.394" y2="-15269.083" gradientTransform="matrix(1 0 0 -1 135.243 -15314.69)"><stop offset=".006" stop-color="#F6A18E"/><stop offset=".438" stop-color="#FCCFA1"/><stop offset="1" stop-color="#F5E9DF"/></linearGradient><path fill="url(#bI)" d="M42.1-42.9c-.1 0-.7-1-.9-1.5-.2-.4-.2-.5-.2-.8-.1-.3.1 0 .4-.1.3 0 .7.3.8.4.2.1.5.2.8.3.3.1.7.1 1.1.2.4 0 1.8.5 2.1.6.4.1.5.2.5.4v.3s-3.3.4-4.6.2z"/><linearGradient id="bJ" gradientUnits="userSpaceOnUse" x1="-90.335" y1="-15273.64" x2="-89.961" y2="-15271.083" gradientTransform="matrix(1 0 0 -1 135.243 -15314.69)"><stop offset=".006" stop-color="#F6A18E"/><stop offset=".438" stop-color="#FCCFA1"/><stop offset="1" stop-color="#F5E9DF"/></linearGradient><path fill="url(#bJ)" d="M42.1-42.5s.2 0 .8.1l1.4-.1c.6 0 1.7-.2 1.9-.2.2.1.3 0 .5-.1s.8-.1 1.2-.1c.4-.1 1.4-.4 1.5-.7.1-.3-.3-.4-.4-.3-.1.1-1.2.4-1.5.5-.3.1-.8.3-1.3.3s-2.9.1-3.5.1c-.6 0-1.7-.2-1.6.1.1.2.5.4 1 .4z"/><linearGradient id="bK" gradientUnits="userSpaceOnUse" x1="-90.875" y1="-15275.595" x2="-91.422" y2="-15273.041" gradientTransform="matrix(1 0 0 -1 135.243 -15314.69)"><stop offset=".006" stop-color="#F6A18E"/><stop offset=".438" stop-color="#FCCFA1"/><stop offset="1" stop-color="#F5E9DF"/></linearGradient><path fill="url(#bK)" d="M48.2-39.7c.5-.2.9-.7 1-.9.1-.2.4-.6.4-.8 0-.2-1.1 0-1.6 0s-1.3.4-1.6.5c-.3.1-1.4.2-1.4.2s-4.8.3-5.4.3c-.6 0-1-.1-1.1 0-.1.1-.2.7.1.7.2 0 1.9.2 2.5.3.7.1 1.7 0 1.8-.1.1-.1.6-.3 1.3-.3.6 0 1.4.1 1.7.2.2.1 1.4-.3 2-.1"/><linearGradient id="bL" gradientUnits="userSpaceOnUse" x1="-117.48" y1="-15271.689" x2="-121.607" y2="-15268.915" gradientTransform="matrix(1 0 0 -1 135.243 -15314.69)"><stop offset=".006" stop-color="#25534D"/><stop offset=".438" stop-color="#618E87"/><stop offset="1" stop-color="#B2C3C0"/></linearGradient><path fill="url(#bL)" d="M22.3-41.7s-.5-.7-1.1-.8c-.6-.1-.8-.2-1.2 0-.4.2-.7.8-1 .7-.3 0-.8-.6-1.2-.9-.4-.3-.8-.5-1.2-.3-.4.2-.9.1-1.1 0-.2-.1-.3 0-.6.1s-1.1-.2-1.5-.6c-.4-.4-1-.8-1.5-.8 0 0 .3.1 1.1-.1s2.5-.7 3.1-1c.7-.3 1.4-.5 2.3.1.9.6 2.6 1.5 2.9 2 .2.5.6.7.8 1l.5.5-.3.1z"/><path fill="#25534D" d="M19.1-44.3s-1.3-.3-1.8-.3c-.4 0-1.1-.2-1.1-.2h.6c.5 0 .5-.3.3-.4-.2-.1-.1-.3.6.3.6.7.5.1.5 0s.2 0 .4.3c.1.2.5.3.5.3zm0 .8s-.8-.6-1.1-.6c-.3 0-1.4-.3-1.7-.2-.2 0-.9 0-1.2.1h.8c.2 0 .6-.1.8 0 .2.1.1.1-.2.3-.4.1-1 .6-1.1.8 0 0 .4-.5.8-.6.4-.1.8-.3.8-.4 0 0 .6 0 .9.1.2.1 0 .3-.4.5-.3.2-.5.3-.5.3s.1 0 .4-.2c.3-.1.7-.4.8-.5.1 0 .7.4.8.7l.1-.3z"/><linearGradient id="bM" gradientUnits="userSpaceOnUse" x1="-118.746" y1="-15270.933" x2="-120.981" y2="-15269.43" gradientTransform="matrix(1 0 0 -1 135.243 -15314.69)"><stop offset=".006" stop-color="#25534D"/><stop offset=".438" stop-color="#618E87"/><stop offset="1" stop-color="#B2C3C0"/></linearGradient><path fill="url(#bM)" d="M13.1-44.2s.2.2.7.1c.5-.1 1.4-.4 2-.4.6 0 2.6.2 2.9.6l.5.5.1-.1s-.5-.5-.7-.6c-.2-.2-2.5-.6-2.9-.5-.3 0-2 .6-2.6.4z"/><linearGradient id="bN" gradientUnits="userSpaceOnUse" x1="-109.592" y1="-15276.778" x2="-108.282" y2="-15277.706" gradientTransform="matrix(1 0 0 -1 135.243 -15314.69)"><stop offset=".006" stop-color="#25534D"/><stop offset=".438" stop-color="#618E87"/><stop offset="1" stop-color="#B2C3C0"/></linearGradient><path fill="url(#bN)" d="M24.6-37.9s.3 1.1.7 1.1c.5.1 1 0 1.1-.3.1-.3.2-1.1.3-1.5 0-.3-2.2-.5-2.1.7z"/><linearGradient id="bO" gradientUnits="userSpaceOnUse" x1="-108.238" y1="-15276.403" x2="-104.964" y2="-15276.403" gradientTransform="matrix(1 0 0 -1 135.243 -15314.69)"><stop offset=".006" stop-color="#25534D"/><stop offset=".438" stop-color="#618E87"/><stop offset="1" stop-color="#B2C3C0"/></linearGradient><path fill="url(#bO)" d="M25.9-38.2s.1.5.6.4c.6-.1.9-.5 1.4-.3.5.2 2.3.3 2.7.2 0 0-.4 0-.7-.1-.4-.2-.8-.4-1.1-.4-.3 0-.8 0-1.1-.2-.3-.2-1.8-.3-1.8.4z"/><linearGradient id="bP" gradientUnits="userSpaceOnUse" x1="-109.804" y1="-15276.368" x2="-112.68" y2="-15279.33" gradientTransform="matrix(1 0 0 -1 135.243 -15314.69)"><stop offset=".006" stop-color="#25534D"/><stop offset=".438" stop-color="#618E87"/><stop offset="1" stop-color="#B2C3C0"/></linearGradient><path fill="url(#bP)" d="M24.5-38.4s-.6.3-.6.6c-.1.3-.1 1-.4 1.2-.3.3-.7 1.1-.7 1.1s0-.1.3-.3c.3-.2.7-.1 1.1-.5.4-.4 2-1.1 1.7-2-.4-.7-1.1-.3-1.4-.1z"/><path fill="#25534D" d="M25.2-38.1s-.3.2-.4.3c-.1.1-.2.6-.3.8l-.7.7-.5.4c-.1.1 0-.1 0-.1l.3-.3c.1-.1.6-.5.7-.8.1-.3.5-1 .8-1.1.3-.1.2-.1.1.1z"/><linearGradient id="bQ" gradientUnits="userSpaceOnUse" x1="-111.695" y1="-15276.393" x2="-116.748" y2="-15276.971" gradientTransform="matrix(1 0 0 -1 135.243 -15314.69)"><stop offset=".006" stop-color="#25534D"/><stop offset=".438" stop-color="#618E87"/><stop offset="1" stop-color="#B2C3C0"/></linearGradient><path fill="url(#bQ)" d="M23.9-38.4s-1-.3-1.3-.1c-.3.2-2.3.9-3.1.7 0 0 1.2.3 1.7.1.5-.1 1-.4 1.5-.3.4.1 1.9.3 1.2-.4z"/><linearGradient id="bR" gradientUnits="userSpaceOnUse" x1="-107.908" y1="-15275.62" x2="-109.729" y2="-15267.123" gradientTransform="matrix(1 0 0 -1 135.243 -15314.69)"><stop offset=".006" stop-color="#E38B79"/><stop offset=".438" stop-color="#FCCFA1"/><stop offset="1" stop-color="#F5E9DF"/></linearGradient><path fill="url(#bR)" d="M26.1-38s-.5-.2-1.5-.1c-.9.1-2.5-.4-3.3-1.4-.8-1-2.3-6.2-2.3-6.2l10.7-.9s1.5-.5 1.7-.7c.2-.2.3-.1.4.1l.4.2c.1.1-.1.7.3.9.3.2.5.2.3.7-.2.5-.3 3.6-.3 4 0 .4-.5.4-1 .6-.6.2-1.3.6-1.5.7-.2.1-.9.3-1 .3-.2 0-.6 1.5-2.9 1.8z"/><linearGradient id="bS" gradientUnits="userSpaceOnUse" x1="-106.958" y1="-15272.641" x2="-103.48" y2="-15269.186" gradientTransform="matrix(1 0 0 -1 135.243 -15314.69)"><stop offset=".006" stop-color="#E38B79"/><stop offset=".438" stop-color="#FCCFA1"/><stop offset="1" stop-color="#F5E9DF"/></linearGradient><path fill="url(#bS)" d="M31.8-43.9s-.2 0-.3-.3c-.1-.3-.1-.5-.3-.6-.2-.1-.7-.4-.9-.4-.2.1-.8.2-.9.4-.1.2-2.2 2.9-2.2 2.9s-.1.4.3.3c.4-.1 3.8-1.6 4.3-2.3z"/><linearGradient id="bT" gradientUnits="userSpaceOnUse" x1="-112.547" y1="-15271.039" x2="-115.876" y2="-15267.51" gradientTransform="matrix(1 0 0 -1 135.243 -15314.69)"><stop offset=".006" stop-color="#E38B79"/><stop offset=".438" stop-color="#FCCFA1"/><stop offset="1" stop-color="#F5E9DF"/></linearGradient><path fill="url(#bT)" d="M21.5-46.3s-1 .3-1.2.3c-.2 0-1.4.1-1.4.2l.3.8s1.5 1.7 1.7 1.9c.3.1 2.3 1.4 2.3 1.4l1.3-1.7s-.6-3-3-2.9z"/><linearGradient id="bU" gradientUnits="userSpaceOnUse" x1="-110.146" y1="-15273.322" x2="-109.368" y2="-15269.982" gradientTransform="matrix(1 0 0 -1 135.243 -15314.69)"><stop offset=".006" stop-color="#E38B79"/><stop offset=".438" stop-color="#FCCFA1"/><stop offset="1" stop-color="#F5E9DF"/></linearGradient><path fill="url(#bU)" d="M27.5-41.8l1-1c.2-.2.5-.5.4-.5-.1.1-1.1.3-1.3.3-.2 0-4.5.3-4.5.3s-1-.2-1 .1c-.1.3 2.9 1.6 2.9 1.6l1.4-.2"/><linearGradient id="bV" gradientUnits="userSpaceOnUse" x1="-106.212" y1="-15273.426" x2="-106.678" y2="-15271.251" gradientTransform="matrix(1 0 0 -1 135.243 -15314.69)"><stop offset=".006" stop-color="#F6A18E"/><stop offset=".438" stop-color="#FCCFA1"/><stop offset="1" stop-color="#F5E9DF"/></linearGradient><path fill="url(#bV)" d="M25-40.5s-.1-.1.3-.4c.4-.3.9-.7 1.3-.8.4 0 .8-.2 1.2-.5.5-.2 3.1-1.6 3.5-1.7.4-.1.5-.1.8.2.3.3 1 .7.7.8-.3.1-1.7.7-2.1.8-.5.1-1 .3-1.6.5l-2.2 1c-.3 0-1.8.5-1.9.1"/><linearGradient id="bW" gradientUnits="userSpaceOnUse" x1="-114.157" y1="-15272.698" x2="-116.976" y2="-15271.691" gradientTransform="matrix(1 0 0 -1 135.243 -15314.69)"><stop offset=".006" stop-color="#F6A18E"/><stop offset=".438" stop-color="#FCCFA1"/><stop offset="1" stop-color="#F5E9DF"/></linearGradient><path fill="url(#bW)" d="M22.1-40.3h-2l-.2-.2-.7-.5c-.1-.1 0-.2-.2-.2s-.6 0-.6-.2c0-.5.6-.8.6-1.4 0-.7-.1-2 0-2l2.5 2.6s.9 1.5.6 1.9z"/><linearGradient id="bX" gradientUnits="userSpaceOnUse" x1="-113.642" y1="-15274.497" x2="-113.042" y2="-15270.848" gradientTransform="matrix(1 0 0 -1 135.243 -15314.69)"><stop offset=".006" stop-color="#F6A18E"/><stop offset=".438" stop-color="#FCCFA1"/><stop offset="1" stop-color="#F5E9DF"/></linearGradient><path fill="url(#bX)" d="M21.9-40.2s-.6-.8-.8-1.2c-.1-.4-.4-1.1-.6-1.3-.2-.2-1.2-1.4-1.4-1.7-.2-.2-.4-.4-.6-.5-.2-.1-.3-.8-.1-.9.2-.1.5-.1.7.1l.1.5c.1.5.3.8.9 1.2.6.4 1.5.8 1.7 1 .2.2.7.5 1.2.6.5.1 2.4 1 2.6 1.2.3.2-.1.9-.1.9l-3.6.1z"/><linearGradient id="bY" gradientUnits="userSpaceOnUse" x1="-108.315" y1="-15269.668" x2="-105.262" y2="-15266.637" gradientTransform="matrix(1 0 0 -1 135.243 -15314.69)"><stop offset=".006" stop-color="#F6A18E"/><stop offset=".438" stop-color="#FCCFA1"/><stop offset="1" stop-color="#F5E9DF"/></linearGradient><path fill="url(#bY)" d="M27.3-43.3l1 .3s.7-.6 1-1c.3-.5.5-1.3.5-2 0-.6 0-.9-.2-1.1-.2-.2-.4-.5-.4-.6 0-.1-.9-.2-1.5-.1-.5.1-1.6.6-2 .7-.4 0-.2.7-.2.7l1.8 3.1z"/><linearGradient id="bZ" gradientUnits="userSpaceOnUse" x1="-108.978" y1="-15270.402" x2="-106.505" y2="-15267.889" gradientTransform="matrix(1 0 0 -1 135.243 -15314.69)"><stop offset=".006" stop-color="#E38B79"/><stop offset=".438" stop-color="#FCCFA1"/><stop offset="1" stop-color="#F5E9DF"/></linearGradient><path fill="url(#bZ)" d="M27.7-43.4s.1-.1.2-.7.3-1.4.4-1.7c.1-.2-.6-.7-1.4-.6-.9.1-1 0-1 0v2.4c0 .2 1 .7 1.8.6z"/><linearGradient id="ca" gradientUnits="userSpaceOnUse" x1="-111.467" y1="-15270.152" x2="-114.169" y2="-15267.45" gradientTransform="matrix(1 0 0 -1 135.243 -15314.69)"><stop offset=".006" stop-color="#F6A18E"/><stop offset=".438" stop-color="#FCCFA1"/><stop offset="1" stop-color="#F5E9DF"/></linearGradient><path fill="url(#ca)" d="M22.4-42.9s-.1-.2-.3-.5c-.2-.2-.6-.4-.7-.7 0-.3 0-.6-.1-.8-.1-.2-.2-.9-.2-1.3s.1-.5.1-.8c0-.2-.1-.5.2-.5.3-.1.9-.1 1.4-.2.5 0 1 .1 1.2.3.2.2.4 2.9.4 2.9l-2 1.6z"/><linearGradient id="cb" gradientUnits="userSpaceOnUse" x1="-110.173" y1="-15268.717" x2="-110.344" y2="-15267.075" gradientTransform="matrix(1 0 0 -1 135.243 -15314.69)"><stop offset=".006" stop-color="#F6A18E"/><stop offset=".438" stop-color="#FCCFA1"/><stop offset="1" stop-color="#F5E9DF"/></linearGradient><path fill="url(#cb)" d="M23.8-44.2s.1-.6.1-1-.2-.7-.2-1c0-.3-.3-1 .2-1.2.5-.2 1-.4 1.6 0 .6.4 1.1.9 1.1 1.1 0 .2-.2 2.5-.1 2.7-.1-.1-2 .3-2.7-.6z"/><linearGradient id="cc" gradientUnits="userSpaceOnUse" x1="-109.893" y1="-15269.535" x2="-108.753" y2="-15268.338" gradientTransform="matrix(1 0 0 -1 135.243 -15314.69)"><stop offset=".006" stop-color="#B27B76"/><stop offset=".438" stop-color="#FBC591"/><stop offset="1" stop-color="#EDD5C3"/></linearGradient><path fill="url(#cc)" d="M26.5-46.4s-.2-.2-.6 0c-.4.2-1.3.6-1.2 1.4.1.8 1.6-.3 1.6-.3l.2-.8c.1 0 0-.1 0-.3z"/><linearGradient id="cd" gradientUnits="userSpaceOnUse" x1="-111.839" y1="-15268.913" x2="-110.257" y2="-15268.913" gradientTransform="matrix(1 0 0 -1 135.243 -15314.69)"><stop offset=".006" stop-color="#F6A18E"/><stop offset=".438" stop-color="#FCCFA1"/><stop offset="1" stop-color="#F5E9DF"/></linearGradient><path fill="url(#cd)" d="M25-45.1s-.1-.2-.3-.3c-.2-.1-.8-.5-1.2-1.4v.4c.1.1.2.7.2 1.1 0 .4-.2.6-.1.9.2.3 1.2-.1 1.4-.7z"/><linearGradient id="ce" gradientUnits="userSpaceOnUse" x1="-109.767" y1="-15270.78" x2="-110.252" y2="-15268.518" gradientTransform="matrix(1 0 0 -1 135.243 -15314.69)"><stop offset=".006" stop-color="#F6A18E"/><stop offset=".438" stop-color="#FCCFA1"/><stop offset="1" stop-color="#F5E9DF"/></linearGradient><path fill="url(#ce)" d="M23.8-44.6s.1-.3.5-.5c.4-.1 1.1-.2 1.4-.5.3-.3.8-.4.8-.8 0 0 .2.4.1.8s-.2 1.3-.1 1.7c0 0-3.1.3-2.7-.7z"/><linearGradient id="cf" gradientUnits="userSpaceOnUse" x1="-110.328" y1="-15272.232" x2="-110.394" y2="-15269.083" gradientTransform="matrix(1 0 0 -1 135.243 -15314.69)"><stop offset=".006" stop-color="#F6A18E"/><stop offset=".438" stop-color="#FCCFA1"/><stop offset="1" stop-color="#F5E9DF"/></linearGradient><path fill="url(#cf)" d="M23.1-42.9c-.1 0-.7-1-.9-1.5-.2-.4-.2-.5-.2-.8-.1-.3.1 0 .4-.1.3 0 .7.3.8.4.2.1.5.2.8.3.3.1.7.1 1.1.2.4 0 1.8.5 2.1.6.4.1.5.2.5.4v.3s-3.3.4-4.6.2z"/><linearGradient id="cg" gradientUnits="userSpaceOnUse" x1="-109.335" y1="-15273.64" x2="-108.961" y2="-15271.083" gradientTransform="matrix(1 0 0 -1 135.243 -15314.69)"><stop offset=".006" stop-color="#F6A18E"/><stop offset=".438" stop-color="#FCCFA1"/><stop offset="1" stop-color="#F5E9DF"/></linearGradient><path fill="url(#cg)" d="M23.1-42.5s.2 0 .8.1l1.4-.1c.6 0 1.7-.2 1.9-.2.2.1.3 0 .5-.1s.8-.1 1.2-.1c.4-.1 1.4-.4 1.5-.7.1-.3-.3-.4-.4-.3-.1.1-1.2.4-1.5.5-.3.1-.8.3-1.3.3s-2.9.1-3.5.1c-.6 0-1.7-.2-1.6.1.1.2.5.4 1 .4z"/><linearGradient id="ch" gradientUnits="userSpaceOnUse" x1="-109.875" y1="-15275.595" x2="-110.422" y2="-15273.041" gradientTransform="matrix(1 0 0 -1 135.243 -15314.69)"><stop offset=".006" stop-color="#F6A18E"/><stop offset=".438" stop-color="#FCCFA1"/><stop offset="1" stop-color="#F5E9DF"/></linearGradient><path fill="url(#ch)" d="M29.2-39.7c.5-.2.9-.7 1-.9.1-.2.4-.6.4-.8 0-.2-1.1 0-1.6 0s-1.3.4-1.6.5c-.3.1-1.4.2-1.4.2s-4.8.3-5.4.3c-.6 0-1-.1-1.1 0-.1.1-.2.7.1.7.2 0 1.9.2 2.5.3.7.1 1.7 0 1.8-.1.1-.1.6-.3 1.3-.3.6 0 1.4.1 1.7.2.2.1 1.4-.3 2-.1"/><linearGradient id="ci" gradientUnits="userSpaceOnUse" x1="-126.908" y1="-15275.62" x2="-128.729" y2="-15267.123" gradientTransform="matrix(1 0 0 -1 135.243 -15314.69)"><stop offset=".006" stop-color="#E38B79"/><stop offset=".438" stop-color="#FCCFA1"/><stop offset="1" stop-color="#F5E9DF"/></linearGradient><path fill="url(#ci)" d="M7.1-38s-.5-.2-1.5-.1c-.9.1-2.5-.4-3.3-1.4-.8-1-2.3-6.2-2.3-6.2l10.7-.9s1.5-.5 1.7-.7c.2-.2.3-.1.4.1l.4.2c.1.1-.1.7.3.9.3.2.5.2.3.7-.2.5-.3 3.6-.3 4 0 .4-.5.4-1 .6-.6.2-1.3.6-1.5.7-.2.1-.9.3-1 .3-.2 0-.6 1.5-2.9 1.8z"/><linearGradient id="cj" gradientUnits="userSpaceOnUse" x1="-125.212" y1="-15273.426" x2="-125.678" y2="-15271.251" gradientTransform="matrix(1 0 0 -1 135.243 -15314.69)"><stop offset=".006" stop-color="#F6A18E"/><stop offset=".438" stop-color="#FCCFA1"/><stop offset="1" stop-color="#F5E9DF"/></linearGradient><path fill="url(#cj)" d="M6-40.5s-.1-.1.3-.4c.4-.3.9-.7 1.3-.8.4 0 .8-.2 1.2-.5.5-.2 3.1-1.6 3.5-1.7.4-.1.5-.1.8.2.3.3 1 .7.7.8-.3.1-1.7.7-2.1.8-.5.1-1 .3-1.6.5l-2.2 1c-.3 0-1.8.5-1.9.1"/></pattern><path fill="#D19040" d="M0 0h1008.3v768.4h-1008.3z"/><path fill="#F8F7D9" d="M0 0h1008.3v562.5h-1008.3z"/><path fill="url(#ck)" d="M0 0h1008.3v562.5h-1008.3z"/></svg>