<svg xmlns="http://www.w3.org/2000/svg" width="360" height="504" viewBox="0 0 360 504">
  <style>
    .st0{fill:#2CB4C3;} .st1{fill:#7CC842;} .st2{opacity:0.61;fill:url(#SVGID_1_);} .st3{opacity:0.7;fill:url(#SVGID_2_);} .st4{opacity:0.49;fill:url(#SVGID_3_);} .st5{fill:#C6E417;} .st6{fill:url(#SVGID_4_);} .st7{fill:url(#SVGID_5_);} .st8{fill:url(#SVGID_6_);} .st9{fill:url(#SVGID_7_);} .st10{fill:url(#SVGID_8_);} .st11{fill:url(#SVGID_9_);} .st12{fill:url(#SVGID_10_);} .st13{fill:url(#SVGID_11_);} .st14{fill:url(#SVGID_12_);} .st15{fill:#9EA688;} .st16{fill:url(#SVGID_13_);} .st17{fill:url(#SVGID_14_);} .st18{fill:url(#SVGID_15_);} .st19{fill:url(#SVGID_16_);} .st20{fill:url(#SVGID_17_);} .st21{fill:url(#SVGID_18_);} .st22{fill:url(#SVGID_19_);} .st23{fill:url(#SVGID_20_);} .st24{fill:url(#SVGID_21_);} .st25{fill:url(#SVGID_22_);} .st26{fill:url(#SVGID_23_);} .st27{fill:url(#SVGID_24_);} .st28{fill:url(#SVGID_25_);} .st29{fill:url(#SVGID_26_);} .st30{fill:#FFFFFF;} .st31{fill:url(#SVGID_27_);} .st32{fill:url(#SVGID_28_);} .st33{fill:#F5B90E;} .st34{fill:none;stroke:#000000;stroke-width:0.5;stroke-miterlimit:10;} .st35{fill:url(#SVGID_29_);stroke:#000000;stroke-width:0.5;stroke-miterlimit:10;}
  </style>
  <g id="Layer_1">
    <path d="M0 0h360v391.5H0z" class="st0"/>
    <path d="M360 277.5v114l-193.2 4v-126s130.1-41.3 193.2 8z" class="st1"/>
    <linearGradient id="SVGID_1_" x1="223.829" x2="223.829" y1="57.09" y2="137.214" gradientUnits="userSpaceOnUse" gradientTransform="matrix(.989 .146 -.146 .989 -86.926 -69.287)">
      <stop offset=".399" stop-color="#F4FBFD"/>
      <stop offset="1" stop-color="#2CB4C3"/>
    </linearGradient>
    <path d="M172.5 55.4c-.6-.1-1.2-.1-1.8-.1-2.2-9.5-9.5-17-19.1-18.4-4.5-.7-8.9.1-12.8 2-1.7-10.1-9.3-18.3-19.3-19.9-8.9-1.3-17.4 2.9-22.4 10.2-2.4-5.5-7.3-9.6-13.3-10.5-9.6-1.5-18.7 5.7-20.2 16.1-.6 4.3.2 8.4 2 11.9-6.2 3.7-10.9 10.2-12 18.3-2 13.6 6.7 26.2 19.5 28.1 7.5 1.1 14.8-1.7 19.8-7.1 3.3 3.3 7.6 5.7 12.5 6.4C116 94 126 87.7 130.2 77.6c3.5 4.5 8.5 7.6 14.4 8.5 6 .9 11.8-.7 16.5-4.1 2 1.8 4.4 3 7.2 3.5 7.8 1.2 15-4.6 16.2-12.9s-4.3-16-12-17.2z" class="st2"/>
    <linearGradient id="SVGID_2_" x1="-83.539" x2="-83.539" y1="236.164" y2="316.363" gradientUnits="userSpaceOnUse" gradientTransform="matrix(.695 .059 -.062 .735 143.171 -100.882)">
      <stop offset=".399" stop-color="#F4FBFD"/>
      <stop offset="1" stop-color="#2CB4C3"/>
    </linearGradient>
    <path d="M104.1 91.4h-1.2c-1.9-6.8-7.3-12-14-12.6-3.2-.3-6.2.5-8.9 2.1-1.6-7.4-7.2-13-14.3-13.6-6.2-.5-12 3-15.2 8.6-1.9-3.9-5.4-6.7-9.7-7-6.8-.6-12.8 5.2-13.4 12.8-.3 3.2.4 6.2 1.8 8.7-4.2 3-7.2 8.1-7.7 14-.8 10.1 5.7 18.9 14.7 19.7 5.3.5 10.2-2 13.5-6.2 2.4 2.3 5.5 3.8 9 4.1 7.4.6 14.2-4.5 16.7-12.1 2.6 3.1 6.2 5.2 10.3 5.5 4.2.4 8.2-1.1 11.3-3.9 1.4 1.2 3.2 2 5.1 2.2 5.4.5 10.3-4.1 10.8-10.3s-3.3-11.5-8.8-12z" class="st3"/>
    <linearGradient id="SVGID_3_" x1="149.678" x2="149.678" y1="541.604" y2="621.788" gradientUnits="userSpaceOnUse" gradientTransform="matrix(.708 .06 -.051 .604 143.407 -171.58)">
      <stop offset=".399" stop-color="#F4FBFD"/>
      <stop offset="1" stop-color="#2CB4C3"/>
    </linearGradient>
    <path d="M256.4 184.4h-1.3c-2-5.7-7.6-10-14.5-10.6-3.2-.3-6.3.3-9 1.6-1.7-6.1-7.5-10.8-14.7-11.5-6.4-.6-12.2 2.3-15.3 6.9-2-3.2-5.6-5.6-10-5.9-6.9-.6-12.9 4-13.4 10.3-.2 2.6.6 5.1 2 7.2-4.2 2.4-7.2 6.5-7.6 11.4-.7 8.3 6.1 15.7 15.2 16.5 5.4.5 10.4-1.5 13.7-4.9 2.5 1.9 5.7 3.2 9.2 3.5 7.6.7 14.3-3.5 16.8-9.7 2.7 2.6 6.4 4.4 10.6 4.7 4.3.4 8.3-.8 11.4-3 1.5 1 3.3 1.7 5.2 1.9 5.5.5 10.4-3.2 10.8-8.3.6-5.2-3.6-9.6-9.1-10.1z" class="st4"/>
    <path d="M0 176.2s124-56.7 360 194v133.4H0V176.2z" class="st5"/>
    <linearGradient id="SVGID_4_" x1="438.632" x2="438.632" y1="326.485" y2="372.348" gradientUnits="userSpaceOnUse" gradientTransform="matrix(.889 .457 -.457 .889 -139.92 -218.305)">
      <stop offset=".497" stop-color="#7CC842"/>
      <stop offset="1" stop-color="#0E7360"/>
    </linearGradient>
    <path d="M81 314.1s-8.3-14.1-22-11.6c0 0 11.8-13.3 20.8-4.8 0 0-9.1-12.5-19.5-10.7 0 0 16-9.9 21.4 1.2 0 0-5.1-14.7-9.8-12.6 0 0 22.1 2.8 20.7 9.9l2.1-15.9s10.4 11.5 6.2 19.8c0 0 9-6.8 19.4-4 0 0-33.6 15-2 18.1 0 0-10.9-2.4-21.2 5" class="st6"/>
    <linearGradient id="SVGID_5_" x1="428.971" x2="428.971" y1="377.916" y2="418.217" gradientUnits="userSpaceOnUse" gradientTransform="matrix(.972 .237 -.237 .972 -59.531 -145.087)">
      <stop offset=".497" stop-color="#7CC842"/>
      <stop offset="1" stop-color="#0E7360"/>
    </linearGradient>
    <path d="M245.9 359.9s-1.3-16.4-14.7-20.4c0 0 16.3-6.6 20.7 5.1 0 0-2.8-15.3-12.9-18.5 0 0 18.6-1.6 18.6 10.8 0 0 1.8-15.5-3.3-15.8 0 0 18.5 12.5 14.3 18.2l8.8-13.3s4.3 15-3 20.5c0 0 11-2.1 19.2 5.2 0 0-36.6-1.8-9.6 15.3 0 0-8.8-7.1-21.2-5.1" class="st7"/>
    <linearGradient id="SVGID_6_" x1="33.029" x2="33.029" y1="151.26" y2="198.187" gradientUnits="userSpaceOnUse">
      <stop offset=".497" stop-color="#7CC842"/>
      <stop offset="1" stop-color="#0E7360"/>
    </linearGradient>
    <path d="M16.1 189.7s-.8-16.4-14.1-20.8c0 0 16.5-6 20.5 5.7 0 0-2.3-15.4-12.3-18.9 0 0 18.6-1 18.3 11.4 0 0 2.3-15.4-2.8-15.9 0 0 18.2 13.1 13.7 18.7l9.2-13s3.9 15.1-3.6 20.4c0 0 11.1-1.7 19 5.8 0 0-36.5-3-10.1 15 0 0-8.5-7.3-21-5.8" class="st8"/>
    <linearGradient id="SVGID_7_" x1="-106.989" x2="-106.989" y1="183.041" y2="235.495" gradientUnits="userSpaceOnUse" gradientTransform="matrix(.868 -.497 .497 .868 150.376 188.902)">
      <stop offset=".497" stop-color="#7CC842"/>
      <stop offset="1" stop-color="#0E7360"/>
    </linearGradient>
    <path d="M148.4 440.8s-4.8-15.7-18.8-16.5c0 0 14.5-10.1 21.3.3 0 0-6-14.3-16.5-15.1 0 0 17.8-5.8 20.5 6.3 0 0-1.6-15.5-6.6-14.6 0 0 20.8 8 17.9 14.6l5.7-14.9s7.5 13.6 1.5 20.7c0 0 10.3-4.5 19.8.8 0 0-36.1 6.5-6.1 17.1 0 0-10.1-4.9-21.8-.3" class="st9"/>
    <linearGradient id="SVGID_8_" x1="171.421" x2="171.421" y1="187.008" y2="239.167" gradientUnits="userSpaceOnUse">
      <stop offset=".497" stop-color="#7CC842"/>
      <stop offset="1" stop-color="#0E7360"/>
    </linearGradient>
    <path d="M152 222.3s2.8-16.2-9.2-23.5c0 0 17.4-2.1 18.8 10.3 0 0 1.1-15.5-7.9-21.2 0 0 18.4 3.2 15.4 15.2 0 0 5.6-14.5.7-16.1 0 0 14.9 16.9 9.3 21.3l11.8-10.6s.5 15.6-8 19.1c0 0 11.1.8 17.3 10 0 0-35-11.2-13.1 12.4 0 0-6.7-9.1-19.2-10.4" class="st10"/>
    <linearGradient id="SVGID_9_" x1="210.242" x2="210.242" y1="410.78" y2="470.587" gradientUnits="userSpaceOnUse">
      <stop offset="0" stop-color="#909D7F"/>
      <stop offset=".34" stop-color="#748976"/>
      <stop offset=".576" stop-color="#607E6F"/>
      <stop offset=".867" stop-color="#2E4B47"/>
    </linearGradient>
    <path d="M204.8 470.6s-35.5.7-41.8-9.3c0 0-11.1-13.3 14.6-43.3 0 0 17.4-16.3 43.2 0 0 0 41.1 22 39 39.8 0 0 0 13.5-55 12.8z" class="st11"/>
    <linearGradient id="SVGID_10_" x1="74.315" x2="74.315" y1="420.761" y2="469.964" gradientUnits="userSpaceOnUse">
      <stop offset=".497" stop-color="#7CC842"/>
      <stop offset="1" stop-color="#0E7360"/>
    </linearGradient>
    <path d="M77.8 467.1s-14.6-7-24.6 2.9c0 0 2.6-17.8 14.6-15.8 0 0-14.4-5.2-22.1 2.2 0 0 7.9-17.3 18.4-11.1 0 0-12.2-9.3-15-4.9 0 0 19.9-10.2 22.6-3.6l-6.9-14.4s14.9 3.6 15.9 12.9c0 0 3.7-10.8 14-14.4 0 0-19.7 31.5 8.2 16.1 0 0-10.4 4.2-14.9 16.2" class="st12"/>
    <linearGradient id="SVGID_11_" x1="292.255" x2="292.255" y1="438.976" y2="491.595" gradientUnits="userSpaceOnUse">
      <stop offset=".497" stop-color="#7CC842"/>
      <stop offset="1" stop-color="#0E7360"/>
    </linearGradient>
    <path d="M272.5 473.8s3.2-16.1-8.6-23.8c0 0 17.5-1.6 18.5 10.8 0 0 1.5-15.5-7.3-21.4 0 0 18.3 3.7 15 15.7 0 0 5.9-14.3 1.1-16.1 0 0 14.4 17.3 8.8 21.6l12-10.2s.1 15.6-8.5 18.8c0 0 11.1 1.1 17 10.4 0 0-34.7-12.1-13.4 12 0 0-6.5-9.3-18.9-11" class="st13"/>
    <linearGradient id="SVGID_12_" x1="139.087" x2="139.087" y1="416.083" y2="494.129" gradientUnits="userSpaceOnUse">
      <stop offset="0" stop-color="#909D7F"/>
      <stop offset=".34" stop-color="#748976"/>
      <stop offset=".576" stop-color="#607E6F"/>
      <stop offset=".867" stop-color="#2E4B47"/>
    </linearGradient>
    <path d="M132 494.1s-46.3.9-54.5-12.1c0 0-14.5-17.4 19.1-56.5 0 0 22.7-21.2 56.3 0 0 0 53.6 28.8 50.9 51.9 0 0 0 17.6-71.8 16.7z" class="st14"/>
    <path d="M161.2 455.8c.9 3.2-1.7 6.8-5.9 8.1-4.2 1.3-8.3-.3-9.3-3.5-.9-3.2 1.7-6.8 5.9-8.1 4.2-1.2 8.4.4 9.3 3.5zm-16.5-29.6c2.3 2.4 1.7 6.8-1.4 10-3.1 3.2-7.5 3.8-9.8 1.5s-1.7-6.8 1.4-10c3.1-3.2 7.5-3.8 9.8-1.5zm69.7-4.5c2.6-2 6.8-.8 9.5 2.8 2.7 3.6 2.7 8.1.1 10.1s-6.8.8-9.5-2.8c-2.6-3.5-2.7-8.1-.1-10.1z" class="st15"/>
    <linearGradient id="SVGID_13_" x1="-170.103" x2="-170.103" y1="212.635" y2="265.089" gradientUnits="userSpaceOnUse" gradientTransform="matrix(.868 -.497 .497 .868 150.376 188.902)">
      <stop offset=".497" stop-color="#7CC842"/>
      <stop offset="1" stop-color="#0E7360"/>
    </linearGradient>
    <path d="M108.4 497.9s-4.8-15.7-18.8-16.5c0 0 14.5-10.1 21.3.3 0 0-6-14.3-16.5-15.1 0 0 17.8-5.8 20.5 6.3 0 0-1.6-15.5-6.6-14.6 0 0 20.8 8 17.9 14.6l5.7-14.9s7.5 13.6 1.5 20.7c0 0 10.3-4.5 19.8.8 0 0-36.1 6.5-6.1 17.1 0 0-10.1-4.9-21.8-.3" class="st16"/>
  </g>
  <g id="sun">
    <linearGradient id="SVGID_14_" x1="227.616" x2="308.511" y1="121.619" y2="69.072" gradientUnits="userSpaceOnUse">
      <stop offset=".187" stop-color="#FFF100"/>
      <stop offset="1" stop-color="#F5B90E"/>
    </linearGradient>
    <ellipse cx="265.9" cy="96.8" class="st17" rx="51.5" ry="52.7"/>
    <linearGradient id="SVGID_15_" x1="226.876" x2="231.052" y1="38.964" y2="36.876" gradientUnits="userSpaceOnUse">
      <stop offset=".187" stop-color="#FFF100"/>
      <stop offset="1" stop-color="#F5B90E"/>
    </linearGradient>
    <path d="M230.9 51.8s-5.5-23.9-11.7-23.9c0 0 14.4-4.9 19.2 16.1l-7.5 7.8z" class="st18"/>
    <linearGradient id="SVGID_16_" x1="-102.061" x2="-97.843" y1="-227.746" y2="-229.855" gradientUnits="userSpaceOnUse" gradientTransform="matrix(.923 -.386 .386 .923 384.751 232.257)">
      <stop offset=".187" stop-color="#FFF100"/>
      <stop offset="1" stop-color="#F5B90E"/>
    </linearGradient>
    <path d="M211.3 71.8s-14.1-19.9-19.8-17.4c0 0 11.5-10.2 23.8 7.3l-4 10.1z" class="st19"/>
    <linearGradient id="SVGID_17_" x1="-294.901" x2="-290.679" y1="-982.948" y2="-985.058" gradientUnits="userSpaceOnUse" gradientTransform="matrix(.376 -.927 .927 .376 1218.767 198.94)">
      <stop offset=".187" stop-color="#FFF100"/>
      <stop offset="1" stop-color="#F5B90E"/>
    </linearGradient>
    <path d="M210.2 103.8s-23.7-3.8-26 2.1c0 0 1-15.5 21.9-12.1l4.1 10z" class="st20"/>
    <linearGradient id="SVGID_18_" x1="-127.048" x2="-122.806" y1="-1409.088" y2="-1411.209" gradientUnits="userSpaceOnUse" gradientTransform="matrix(-.088 -.996 .996 -.088 1603.085 -110.01)">
      <stop offset=".187" stop-color="#FFF100"/>
      <stop offset="1" stop-color="#F5B90E"/>
    </linearGradient>
    <path d="M222.7 134.7s-22.8 7.7-22.2 14c0 0-6.1-14.3 14.1-21l8.1 7z" class="st21"/>
    <linearGradient id="SVGID_19_" x1="177.425" x2="181.635" y1="-1662.872" y2="-1664.977" gradientUnits="userSpaceOnUse" gradientTransform="matrix(-.478 -.878 .878 -.478 1775.956 -477.632)">
      <stop offset=".187" stop-color="#FFF100"/>
      <stop offset="1" stop-color="#F5B90E"/>
    </linearGradient>
    <path d="M240.1 152.5s-17.9 16.4-14.9 21.9c0 0-11.1-10.6 4.7-25l10.2 3.1z" class="st22"/>
    <linearGradient id="SVGID_20_" x1="689.196" x2="693.327" y1="-1748.336" y2="-1750.401" gradientUnits="userSpaceOnUse" gradientTransform="matrix(-.858 -.514 .514 -.858 1759.163 -972.235)">
      <stop offset=".187" stop-color="#FFF100"/>
      <stop offset="1" stop-color="#F5B90E"/>
    </linearGradient>
    <path d="M273 160.7s-7.3 23.4-2 26.6c0 0-14.8-3.4-8.4-23.9l10.4-2.7z" class="st23"/>
    <linearGradient id="SVGID_21_" x1="982.278" x2="986.431" y1="195.088" y2="193.012" gradientUnits="userSpaceOnUse" gradientTransform="matrix(.772 .635 -.635 .772 -369.976 -748.861)">
      <stop offset=".187" stop-color="#FFF100"/>
      <stop offset="1" stop-color="#F5B90E"/>
    </linearGradient>
    <path d="M259.9 38.2s10.6-22 5.8-26c0 0 14.2 5.6 4.8 25l-10.6 1z" class="st24"/>
    <linearGradient id="SVGID_22_" x1="1373.383" x2="1377.586" y1="81.72" y2="79.618" gradientUnits="userSpaceOnUse" gradientTransform="matrix(.517 .856 -.856 .517 -339.387 -1182.896)">
      <stop offset=".187" stop-color="#FFF100"/>
      <stop offset="1" stop-color="#F5B90E"/>
    </linearGradient>
    <path d="M291.5 45.4s17.2-17.1 14-22.5c0 0 11.6 10.1-3.6 25.2l-10.4-2.7z" class="st25"/>
    <linearGradient id="SVGID_23_" x1="1630.748" x2="1634.979" y1="-61.959" y2="-64.074" gradientUnits="userSpaceOnUse" gradientTransform="matrix(.301 .954 -.954 .301 -222.712 -1476.356)">
      <stop offset=".187" stop-color="#FFF100"/>
      <stop offset="1" stop-color="#F5B90E"/>
    </linearGradient>
    <path d="M315.8 68.1s20.6-12.5 18.8-18.6c0 0 8.9 12.6-9.3 23.6l-9.5-5z" class="st26"/>
    <linearGradient id="SVGID_24_" x1="2078.861" x2="2083.073" y1="-771.53" y2="-773.636" gradientUnits="userSpaceOnUse" gradientTransform="matrix(-.455 .891 -.891 -.455 593.92 -2109.992)">
      <stop offset=".187" stop-color="#FFF100"/>
      <stop offset="1" stop-color="#F5B90E"/>
    </linearGradient>
    <path d="M322.4 90s23.3 5.9 26.1.2c0 0-2.3 15.4-22.8 10.2L322.4 90z" class="st27"/>
    <linearGradient id="SVGID_25_" x1="1969.973" x2="1974.192" y1="-1488.344" y2="-1490.454" gradientUnits="userSpaceOnUse" gradientTransform="matrix(-.919 .394 -.394 -.919 1555.974 -2014.838)">
      <stop offset=".187" stop-color="#FFF100"/>
      <stop offset="1" stop-color="#F5B90E"/>
    </linearGradient>
    <path d="M322.9 119s14.3 19.7 19.9 17.2c0 0-11.4 10.3-23.9-7.1l4-10.1z" class="st28"/>
    <linearGradient id="SVGID_26_" x1="1795.034" x2="1799.223" y1="-1753.419" y2="-1755.513" gradientUnits="userSpaceOnUse" gradientTransform="matrix(-.995 .103 -.103 -.995 1915.9 -1766.989)">
      <stop offset=".187" stop-color="#FFF100"/>
      <stop offset="1" stop-color="#F5B90E"/>
    </linearGradient>
    <path d="M305 149s7.9 23.2 14 22.5c0 0-13.9 6.4-20.8-14l6.8-8.5z" class="st29"/>
    <path d="M243.2 82.8c-.5 5.3-4.1 9.3-8.1 8.9s-6.8-5-6.3-10.3 4.1-9.3 8.1-8.9c4 .4 6.8 5 6.3 10.3zm37.6 6.4c-.5 5.5-4.2 9.7-8.1 9.3-4-.4-6.7-5.2-6.2-10.7.5-5.5 4.2-9.7 8.1-9.3 4 .4 6.8 5.2 6.2 10.7z" class="st30"/>
    <radialGradient id="SVGID_27_" cx="365.82" cy="329.798" r="6.205" gradientTransform="matrix(.933 .148 -.128 .845 -62.886 -247.656)" gradientUnits="userSpaceOnUse">
      <stop offset=".005" stop-color="#F4FBFD"/>
      <stop offset=".665"/>
    </radialGradient>
    <path d="M240.4 86c-.5 3.5-2.9 5.9-5.3 5.6-2.4-.4-4-3.5-3.4-7s2.9-5.9 5.3-5.6c2.4.4 3.9 3.6 3.4 7z" class="st31"/>
    <radialGradient id="SVGID_28_" cx="358.404" cy="-17.013" r="4.854" gradientTransform="matrix(1.138 0 0 1.138 -134.442 111.253)" gradientUnits="userSpaceOnUse">
      <stop offset=".005" stop-color="#F4FBFD"/>
      <stop offset=".665"/>
    </radialGradient>
    <ellipse cx="273.6" cy="91.9" class="st32" rx="4.2" ry="6.6"/>
    <ellipse cx="282.6" cy="112" class="st33" rx="7.8" ry="8"/>
    <ellipse cx="230.5" cy="114.3" class="st33" rx="7.8" ry="8"/>
    <path d="M230.5 115.2s4.9 18.9 26.4 18.8c0 0 21.3 0 25.8-23.5" class="st34"/>
    <linearGradient id="SVGID_29_" x1="252.437" x2="269.365" y1="135.277" y2="128.285" gradientUnits="userSpaceOnUse">
      <stop offset="0" stop-color="#F21127"/>
      <stop offset="1" stop-color="#A2201C"/>
    </linearGradient>
    <path d="M276.3 127.8c.7-1.6 1.3-3.4 1.8-5.5 0 0-14 20.3-36.2 8 0 0 4.8 10.9 19.4 9.8 6.8-.4 12.4-5.8 15-12.3z" class="st35"/>
  </g>
</svg>
