<?xml version="1.0" encoding="utf-8"?>
<!-- Generator: Adobe Illustrator 18.1.1, SVG Export Plug-In . SVG Version: 6.00 Build 0)  -->
<!DOCTYPE svg PUBLIC "-//W3C//DTD SVG 1.1//EN" "http://www.w3.org/Graphics/SVG/1.1/DTD/svg11.dtd">
<svg version="1.1" id="Layer_1" xmlns="http://www.w3.org/2000/svg" xmlns:xlink="http://www.w3.org/1999/xlink" x="0px" y="0px"
	 viewBox="0 0 390 300" enable-background="new 0 0 390 300" xml:space="preserve">
<path fill="#CED2CB" stroke="#000000" stroke-miterlimit="10" d="M381.5,153.5c-9.4-58.4-86.8-51.3-105.8-48.7
	c-3.7-17.7-12.2-29.3-12.2-29.3c-24.7-50-88.7-48-88.7-48l-64.7,16c-1.1,0.5-2.1,1.1-3.2,1.6c-2.7-18.7-18.8-33.1-38.2-33.1
	c-21.3,0-38.6,17.3-38.6,38.6c0,15.4,9,28.7,22.1,34.9c-26.2,26.8-36,51.2-36,51.2c-3.3,12.7,32.7,35.3,32.7,35.3
	C59.1,178,69,182.9,78.5,187c-1.1,2.5-2,5.2-2.6,8.2c-3.1,14.2,1.2,27.2,9.6,29.1c8.4,1.8,17.8-8.2,20.9-22.4
	c0.3-1.5,0.6-3.1,0.7-4.6c35.2,10.1,65.1,9.3,88.3,4.6c1.1,4,3,8.2,5.8,12.2c8.2,12,20.7,17.7,27.8,12.9c7.1-4.9,6.2-18.6-2.1-30.5
	c-0.8-1.1-1.6-2.2-2.5-3.3c17.5-7.2,27-14.9,27-14.9c20.3-20.6,26.1-41.4,25.8-58.9c60.4-7,76.9,14.6,76.9,14.6
	c60,75.7-76.8,105-76.8,105c-36.2,29.3-5.8,52.2-5.8,52.2c-12-49.8,35.3-51.6,35.3-51.6C398.2,214.2,381.5,153.5,381.5,153.5z"/>
<line fill="#CED2CB" stroke="#000000" stroke-miterlimit="10" x1="195.5" y1="201.9" x2="224.5" y2="193.1"/>
<circle stroke="#FFFFFF" stroke-miterlimit="10" cx="86.2" cy="125.5" r="13.3"/>
<circle fill="#FCC8D4" stroke="#000000" stroke-miterlimit="10" cx="19.9" cy="133.9" r="13.9"/>
<ellipse transform="matrix(0.9129 -0.4082 0.4082 0.9129 -60.0949 115.3865)" fill="#CED2CB" stroke="#000000" stroke-miterlimit="10" cx="240.3" cy="198.5" rx="17.7" ry="29.8"/>
<path fill="#CED2CB" stroke="#000000" stroke-miterlimit="10" d="M52.2,85.6c0,0,50.6-60.8,122.6-58.1"/>
<circle fill="#CED2CB" stroke="#000000" stroke-miterlimit="10" cx="142.5" cy="46.8" r="38.6"/>
<path fill="#CED2CB" stroke="#000000" stroke-miterlimit="10" d="M78.5,187c0,0,34.5,13.3,40.1,13.2"/>
<ellipse transform="matrix(0.9771 0.213 -0.213 0.9771 45.7748 -20.6282)" fill="#CED2CB" stroke="#000000" stroke-miterlimit="10" cx="118.6" cy="202.2" rx="17.7" ry="29.8"/>
</svg>
