<svg xmlns="http://www.w3.org/2000/svg" viewBox="0 0 390 300" enable-background="new 0 0 390 300"><path fill="#CED2CB" stroke="#000" stroke-miterlimit="10" d="M381.5 153.5c-9.4-58.4-86.8-51.3-105.8-48.7-3.7-17.7-12.2-29.3-12.2-29.3-24.7-50-88.7-48-88.7-48l-64.7 16-3.2 1.6c-2.7-18.7-18.8-33.1-38.2-33.1-21.3 0-38.6 17.3-38.6 38.6 0 15.4 9 28.7 22.1 34.9-26.2 26.8-36 51.2-36 51.2-3.3 12.7 32.7 35.3 32.7 35.3 10.2 6 20.1 10.9 29.6 15-1.1 2.5-2 5.2-2.6 8.2-3.1 14.2 1.2 27.2 9.6 29.1 8.4 1.8 17.8-8.2 20.9-22.4.3-1.5.6-3.1.7-4.6 35.2 10.1 65.1 9.3 88.3 4.6 1.1 4 3 8.2 5.8 12.2 8.2 12 20.7 17.7 27.8 12.9 7.1-4.9 6.2-18.6-2.1-30.5-.8-1.1-1.6-2.2-2.5-3.3 17.5-7.2 27-14.9 27-14.9 20.3-20.6 26.1-41.4 25.8-58.9 60.4-7 76.9 14.6 76.9 14.6 60 75.7-76.8 105-76.8 105-36.2 29.3-5.8 52.2-5.8 52.2-12-49.8 35.3-51.6 35.3-51.6 91.4-25.4 74.7-86.1 74.7-86.1zM195.5 201.9l29-8.8"/><circle stroke="#fff" stroke-miterlimit="10" cx="86.2" cy="125.5" r="13.3"/><circle fill="#FCC8D4" stroke="#000" stroke-miterlimit="10" cx="19.9" cy="133.9" r="13.9"/><ellipse transform="matrix(.913 -.408 .408 .913 -60.095 115.386)" fill="#CED2CB" stroke="#000" stroke-miterlimit="10" cx="240.3" cy="198.5" rx="17.7" ry="29.8"/><path fill="#CED2CB" stroke="#000" stroke-miterlimit="10" d="M52.2 85.6s50.6-60.8 122.6-58.1"/><circle fill="#CED2CB" stroke="#000" stroke-miterlimit="10" cx="142.5" cy="46.8" r="38.6"/><path fill="#CED2CB" stroke="#000" stroke-miterlimit="10" d="M78.5 187s34.5 13.3 40.1 13.2"/><ellipse transform="matrix(.977 .213 -.213 .977 45.775 -20.628)" fill="#CED2CB" stroke="#000" stroke-miterlimit="10" cx="118.6" cy="202.2" rx="17.7" ry="29.8"/></svg>