<svg xmlns="http://www.w3.org/2000/svg" width="360" height="504" viewBox="0 0 360 504">
  <style>
    .st0{fill:#2C1B45;} .st1{fill:#FFF100;} .st2{fill:#2C6B42;} .st3{opacity:0.7;fill:url(#SVGID_1_);} .st4{opacity:0.49;fill:url(#SVGID_2_);} .st5{opacity:0.61;fill:url(#SVGID_3_);} .st6{fill:#AFBF19;} .st7{fill:url(#SVGID_4_);} .st8{fill:url(#SVGID_5_);} .st9{fill:url(#SVGID_6_);} .st10{fill:url(#SVGID_7_);} .st11{fill:url(#SVGID_8_);} .st12{fill:url(#SVGID_9_);} .st13{fill:url(#SVGID_10_);} .st14{fill:url(#SVGID_11_);} .st15{fill:url(#SVGID_12_);} .st16{fill:#9EA688;} .st17{fill:url(#SVGID_13_);} .st18{fill:#FFCC00;stroke:#000000;stroke-miterlimit:10;} .st19{fill:#F4FBFD;stroke:#FFCC00;stroke-miterlimit:10;} .st20{fill:url(#SVGID_14_);} .st21{fill:none;stroke:#000000;stroke-miterlimit:10;} .st22{fill:none;stroke:#000000;stroke-linecap:round;stroke-miterlimit:10;} .st23{fill:#F8B2BB;} .st24{fill:#F6F2DD;} .st25{fill:#FFDC4E;}
  </style>
  <g id="background">
    <path d="M0 0h360v391.5H0z" class="st0"/>
    <path d="M244.5 251.6l-6.5-3.2-6.3 3.6 1-7.2-5.3-4.9 7.1-1.2 3.1-6.6 3.4 6.4 7.2.8-5.1 5.2z" class="st1"/>
    <path d="M360 277.5v114l-193.2 4v-126s130.1-41.3 193.2 8z" class="st2"/>
    <linearGradient id="SVGID_1_" x1="-48.162" x2="-48.162" y1="186.926" y2="267.124" gradientUnits="userSpaceOnUse" gradientTransform="matrix(.695 .059 -.062 .735 143.171 -100.882)">
      <stop offset=".399" stop-color="#F4FBFD"/>
      <stop offset="1" stop-color="#2CB4C3"/>
    </linearGradient>
    <path d="M131.8 57.3h-1.2c-1.9-6.8-7.3-12-14-12.6-3.2-.3-6.2.5-8.9 2.1-1.6-7.4-7.2-13-14.3-13.6-6.2-.5-12 3-15.2 8.6-1.9-3.9-5.4-6.7-9.7-7-6.8-.6-12.8 5.2-13.4 12.8-.3 3.2.4 6.2 1.8 8.7-4.2 3-7.2 8.1-7.7 14-.7 10.2 5.8 19 14.8 19.8 5.3.5 10.2-2 13.5-6.2 2.4 2.3 5.5 3.8 9 4.1 7.4.6 14.2-4.5 16.7-12.1 2.6 3.1 6.2 5.2 10.3 5.5 4.2.4 8.2-1.1 11.3-3.9 1.4 1.2 3.2 2 5.1 2.2 5.4.5 10.3-4.1 10.8-10.3s-3.5-11.6-8.9-12.1z" class="st3"/>
    <linearGradient id="SVGID_2_" x1="266.536" x2="266.536" y1="470.775" y2="550.959" gradientUnits="userSpaceOnUse" gradientTransform="matrix(.708 .06 -.051 .604 143.407 -171.58)">
      <stop offset=".399" stop-color="#F4FBFD"/>
      <stop offset="1" stop-color="#2CB4C3"/>
    </linearGradient>
    <path d="M342.7 148.6h-1.3c-2-5.7-7.6-10-14.5-10.6-3.2-.3-6.3.3-9 1.6-1.7-6.1-7.5-10.8-14.7-11.5-6.4-.6-12.2 2.3-15.3 6.9-2-3.2-5.6-5.6-10-5.9-6.9-.6-12.9 4-13.4 10.3-.2 2.6.6 5.1 2 7.2-4.2 2.4-7.2 6.5-7.6 11.4-.7 8.3 6.1 15.7 15.2 16.5 5.4.5 10.4-1.5 13.7-4.9 2.5 1.9 5.7 3.2 9.2 3.5 7.6.7 14.3-3.5 16.8-9.7 2.7 2.6 6.4 4.4 10.6 4.7 4.3.4 8.3-.8 11.4-3 1.5 1 3.3 1.7 5.2 1.9 5.5.5 10.4-3.2 10.8-8.3.7-5.1-3.5-9.6-9.1-10.1z" class="st4"/>
    <path d="M81.1 112.6l-6.5-3.1-6.4 3.5 1.1-7.2-5.4-4.9 7.2-1.2 3-6.6 3.4 6.4 7.2.8-5 5.2zm75.1-61.4l-6.5-3.2-6.3 3.5 1-7.1-5.3-5 7.1-1.2 3.1-6.6 3.4 6.4 7.2.9-5.1 5.2zm100.4 154.2l-6.5-3.2-6.4 3.5 1.1-7.2-5.4-4.9 7.2-1.2 3-6.6 3.4 6.4 7.2.8-5 5.2zM296 36.9l-6.5-3.2-6.3 3.5 1-7.1-5.4-5 7.2-1.2 3-6.6 3.4 6.4 7.2.9-5 5.2zM34.7 33.5l-6.5-3.2-6.4 3.5 1.1-7.2-5.4-4.9 7.2-1.2 3-6.6 3.4 6.4 7.2.8-5.1 5.2z" class="st1"/>
    <linearGradient id="SVGID_3_" x1="264.543" x2="264.543" y1="169.426" y2="249.549" gradientUnits="userSpaceOnUse" gradientTransform="matrix(.989 .146 -.146 .989 -86.926 -69.287)">
      <stop offset=".399" stop-color="#F4FBFD"/>
      <stop offset="1" stop-color="#2CB4C3"/>
    </linearGradient>
    <path d="M196.3 172.5c-.6-.1-1.2-.1-1.8-.1-2.2-9.5-9.5-17-19.1-18.4-4.5-.7-8.9.1-12.8 2-1.7-10.1-9.3-18.3-19.3-19.9-8.9-1.3-17.4 2.9-22.4 10.2-2.4-5.5-7.3-9.6-13.3-10.5-9.6-1.5-18.7 5.7-20.2 16.1-.6 4.3.2 8.4 2 11.9-6.2 3.7-10.9 10.2-12 18.3-2 13.6 6.7 26.2 19.5 28.1 7.5 1.1 14.8-1.7 19.8-7.1 3.3 3.3 7.6 5.7 12.5 6.4 10.6 1.6 20.6-4.7 24.8-14.8 3.5 4.5 8.5 7.6 14.4 8.5 6 .9 11.8-.7 16.5-4.1 2 1.8 4.4 3 7.2 3.5 7.8 1.2 15-4.6 16.2-12.9 1.1-8.4-4.2-16.1-12-17.2z" class="st5"/>
    <path d="M0 176.2s124-56.7 360 194v133.4H0V176.2z" class="st6"/>
    <linearGradient id="SVGID_4_" x1="438.632" x2="438.632" y1="326.485" y2="372.348" gradientUnits="userSpaceOnUse" gradientTransform="matrix(.889 .457 -.457 .889 -139.92 -218.305)">
      <stop offset=".497" stop-color="#7CC842"/>
      <stop offset="1" stop-color="#0E7360"/>
    </linearGradient>
    <path d="M81 314.1s-8.3-14.1-22-11.6c0 0 11.8-13.3 20.8-4.8 0 0-9.1-12.5-19.5-10.7 0 0 16-9.9 21.4 1.2 0 0-5.1-14.7-9.8-12.6 0 0 22.1 2.8 20.7 9.9l2.1-15.9s10.4 11.5 6.2 19.8c0 0 9-6.8 19.4-4 0 0-33.6 15-2 18.1 0 0-10.9-2.4-21.2 5" class="st7"/>
    <linearGradient id="SVGID_5_" x1="428.971" x2="428.971" y1="377.916" y2="418.217" gradientUnits="userSpaceOnUse" gradientTransform="matrix(.972 .237 -.237 .972 -59.531 -145.087)">
      <stop offset=".497" stop-color="#7CC842"/>
      <stop offset="1" stop-color="#0E7360"/>
    </linearGradient>
    <path d="M245.9 359.9s-1.3-16.4-14.7-20.4c0 0 16.3-6.6 20.7 5.1 0 0-2.8-15.3-12.9-18.5 0 0 18.6-1.6 18.6 10.8 0 0 1.8-15.5-3.3-15.8 0 0 18.5 12.5 14.3 18.2l8.8-13.3s4.3 15-3 20.5c0 0 11-2.1 19.2 5.2 0 0-36.6-1.8-9.6 15.3 0 0-8.8-7.1-21.2-5.1" class="st8"/>
    <linearGradient id="SVGID_6_" x1="33.029" x2="33.029" y1="151.26" y2="198.187" gradientUnits="userSpaceOnUse">
      <stop offset=".497" stop-color="#7CC842"/>
      <stop offset="1" stop-color="#0E7360"/>
    </linearGradient>
    <path d="M16.1 189.7s-.8-16.4-14.1-20.8c0 0 16.5-6 20.5 5.7 0 0-2.3-15.4-12.3-18.9 0 0 18.6-1 18.3 11.4 0 0 2.3-15.4-2.8-15.9 0 0 18.2 13.1 13.7 18.7l9.2-13s3.9 15.1-3.6 20.4c0 0 11.1-1.7 19 5.8 0 0-36.5-3-10.1 15 0 0-8.5-7.3-21-5.8" class="st9"/>
    <linearGradient id="SVGID_7_" x1="-106.989" x2="-106.989" y1="183.041" y2="235.495" gradientUnits="userSpaceOnUse" gradientTransform="matrix(.868 -.497 .497 .868 150.376 188.902)">
      <stop offset=".497" stop-color="#7CC842"/>
      <stop offset="1" stop-color="#0E7360"/>
    </linearGradient>
    <path d="M148.4 440.8s-4.8-15.7-18.8-16.5c0 0 14.5-10.1 21.3.3 0 0-6-14.3-16.5-15.1 0 0 17.8-5.8 20.5 6.3 0 0-1.6-15.5-6.6-14.6 0 0 20.8 8 17.9 14.6l5.7-14.9s7.5 13.6 1.5 20.7c0 0 10.3-4.5 19.8.8 0 0-36.1 6.5-6.1 17.1 0 0-10.1-4.9-21.8-.3" class="st10"/>
    <linearGradient id="SVGID_8_" x1="171.421" x2="171.421" y1="187.008" y2="239.167" gradientUnits="userSpaceOnUse">
      <stop offset=".497" stop-color="#7CC842"/>
      <stop offset="1" stop-color="#0E7360"/>
    </linearGradient>
    <path d="M152 222.3s2.8-16.2-9.2-23.5c0 0 17.4-2.1 18.8 10.3 0 0 1.1-15.5-7.9-21.2 0 0 18.4 3.2 15.4 15.2 0 0 5.6-14.5.7-16.1 0 0 14.9 16.9 9.3 21.3l11.8-10.6s.5 15.6-8 19.1c0 0 11.1.8 17.3 10 0 0-35-11.2-13.1 12.4 0 0-6.7-9.1-19.2-10.4" class="st11"/>
    <linearGradient id="SVGID_9_" x1="210.242" x2="210.242" y1="410.78" y2="470.587" gradientUnits="userSpaceOnUse">
      <stop offset="0" stop-color="#909D7F"/>
      <stop offset=".34" stop-color="#748976"/>
      <stop offset=".576" stop-color="#607E6F"/>
      <stop offset=".867" stop-color="#2E4B47"/>
    </linearGradient>
    <path d="M204.8 470.6s-35.5.7-41.8-9.3c0 0-11.1-13.3 14.6-43.3 0 0 17.4-16.3 43.2 0 0 0 41.1 22 39 39.8 0 0 0 13.5-55 12.8z" class="st12"/>
    <linearGradient id="SVGID_10_" x1="74.315" x2="74.315" y1="420.761" y2="469.964" gradientUnits="userSpaceOnUse">
      <stop offset=".497" stop-color="#7CC842"/>
      <stop offset="1" stop-color="#0E7360"/>
    </linearGradient>
    <path d="M77.8 467.1s-14.6-7-24.6 2.9c0 0 2.6-17.8 14.6-15.8 0 0-14.4-5.2-22.1 2.2 0 0 7.9-17.3 18.4-11.1 0 0-12.2-9.3-15-4.9 0 0 19.9-10.2 22.6-3.6l-6.9-14.4s14.9 3.6 15.9 12.9c0 0 3.7-10.8 14-14.4 0 0-19.7 31.5 8.2 16.1 0 0-10.4 4.2-14.9 16.2" class="st13"/>
    <linearGradient id="SVGID_11_" x1="292.255" x2="292.255" y1="438.976" y2="491.595" gradientUnits="userSpaceOnUse">
      <stop offset=".497" stop-color="#7CC842"/>
      <stop offset="1" stop-color="#0E7360"/>
    </linearGradient>
    <path d="M272.5 473.8s3.2-16.1-8.6-23.8c0 0 17.5-1.6 18.5 10.8 0 0 1.5-15.5-7.3-21.4 0 0 18.3 3.7 15 15.7 0 0 5.9-14.3 1.1-16.1 0 0 14.4 17.3 8.8 21.6l12-10.2s.1 15.6-8.5 18.8c0 0 11.1 1.1 17 10.4 0 0-34.7-12.1-13.4 12 0 0-6.5-9.3-18.9-11" class="st14"/>
    <linearGradient id="SVGID_12_" x1="139.087" x2="139.087" y1="416.083" y2="494.129" gradientUnits="userSpaceOnUse">
      <stop offset="0" stop-color="#909D7F"/>
      <stop offset=".34" stop-color="#748976"/>
      <stop offset=".576" stop-color="#607E6F"/>
      <stop offset=".867" stop-color="#2E4B47"/>
    </linearGradient>
    <path d="M132 494.1s-46.3.9-54.5-12.1c0 0-14.5-17.4 19.1-56.5 0 0 22.7-21.2 56.3 0 0 0 53.6 28.8 50.9 51.9 0 0 0 17.6-71.8 16.7z" class="st15"/>
    <path d="M161.2 455.8c.9 3.2-1.7 6.8-5.9 8.1-4.2 1.3-8.3-.3-9.3-3.5-.9-3.2 1.7-6.8 5.9-8.1 4.2-1.2 8.4.4 9.3 3.5zm-16.5-29.6c2.3 2.4 1.7 6.8-1.4 10-3.1 3.2-7.5 3.8-9.8 1.5s-1.7-6.8 1.4-10c3.1-3.2 7.5-3.8 9.8-1.5zm69.7-4.5c2.6-2 6.8-.8 9.5 2.8 2.7 3.6 2.7 8.1.1 10.1s-6.8.8-9.5-2.8c-2.6-3.5-2.7-8.1-.1-10.1z" class="st16"/>
    <linearGradient id="SVGID_13_" x1="-170.103" x2="-170.103" y1="212.635" y2="265.089" gradientUnits="userSpaceOnUse" gradientTransform="matrix(.868 -.497 .497 .868 150.376 188.902)">
      <stop offset=".497" stop-color="#7CC842"/>
      <stop offset="1" stop-color="#0E7360"/>
    </linearGradient>
    <path d="M108.4 497.9s-4.8-15.7-18.8-16.5c0 0 14.5-10.1 21.3.3 0 0-6-14.3-16.5-15.1 0 0 17.8-5.8 20.5 6.3 0 0-1.6-15.5-6.6-14.6 0 0 20.8 8 17.9 14.6l5.7-14.9s7.5 13.6 1.5 20.7c0 0 10.3-4.5 19.8.8 0 0-36.1 6.5-6.1 17.1 0 0-10.1-4.9-21.8-.3" class="st17"/>
    <path d="M136.4 130.1l-6.5-3.2-6.4 3.5 1.1-7.2-5.4-4.9 7.2-1.2 3-6.6 3.4 6.4 7.2.8-5 5.3zm212 102.6l-6.5-3.2-6.3 3.5 1-7.2-5.3-4.9 7.1-1.2 3.1-6.6 3.4 6.4 7.2.9-5.1 5.2zM338 107l-6.5-3.2-6.3 3.5 1-7.2-5.3-4.9L328 94l3.1-6.6 3.4 6.4 7.2.8-5.1 5.2zM29.4 145.4l-6.5-3.2-6.3 3.5 1-7.2-5.4-4.9 7.2-1.2 3-6.6 3.4 6.4 7.2.8-5 5.2z" class="st1"/>
  </g>
  <g id="moon">
    <path d="M199.3 144.6c1.3-2.2.4-3-.9-3.2-.3-1.3-.7-2.8-1-4.6l1.8-.9c1.6-.8 1.8-3 .4-4.1l-1.1-.9c-1.4-1.1-2.3-2.8-2.3-4.6l.4-.6c.9-1.2 1.1-2.8.4-4.2l-.6-1.5c1.2-10.9 6.7-22.1 23-25.7 0 0-21.2-8.3-40 16-6.8 8.8-9.8 20.1-7.7 31 2.1 11.2 9.5 24.1 30.6 30.9 0 0 27.6 6.5 38.7-18.9-.1 0-28.2 17.8-41.7-8.7z" class="st18"/>
    <ellipse cx="192.6" cy="129.4" class="st19" rx="2.6" ry="3.6"/>
    <radialGradient id="SVGID_14_" cx="194.212" cy="130.411" r="1.129" fx="193.195" fy="130.902" gradientTransform="matrix(1 0 0 1.2 0 -26.082)" gradientUnits="userSpaceOnUse">
      <stop offset="0" stop-color="#F4FBFD"/>
      <stop offset=".611"/>
    </radialGradient>
    <ellipse cx="193.3" cy="130.2" class="st20" rx="1.2" ry="2.2"/>
    <path d="M188.4 127.2s1.2-4.5 6.8-2.9" class="st21"/>
    <path d="M185.9 140.7s6.2 4.9 12.5.6m-3.4-6.6s-1.1 1.6 1.1 2.2" class="st22"/>
  </g>
  <g id="cow">
    <path d="M197.6 82.7s-4.8 4.5-7.2-1.5c0 0-4.6-6.9.7-6.4l5.6 2.5.9 5.4zM192.2 70s-6.1 3.1-6.9-3.6c0 0-2.7-8.4 2.6-6.3l5 4.2-.7 5.7zm104.1 31s5.5 4.2-.3 7.8c0 0-6.4 6.1-6.8.4l1.6-6.3 5.5-1.9zm-10.8 4.4s6.2 4.3-.1 7.8c0 0-6.9 5.9-7.5.2l1.6-6.3 6-1.7z"/>
    <path d="M255.6 91.2c.8-3.2 5.9-4.7 11.5-3.3 5.5 1.4 9.4 5.1 8.6 8.3-.5 1.9-2.4 3.2-5.1 3.6 0 .3-.1.6-.1.9-.4 1.5-1.2 2.5-1.8 2.3-.6-.2-.8-1.5-.5-2.9v-.1c-.6 0-1.2 0-1.9-.1-.4 1.3-1.3 2.2-2.2 2-.8-.2-1.2-1.4-1-2.7-.5-.2-1-.3-1.4-.5v.3c-.3 1.2-1.3 2-2.1 1.8-.9-.2-1.3-1.4-1-2.6.1-.4.2-.7.4-1-2.5-1.7-3.9-4-3.4-6z" class="st23"/>
    <path d="M191.1 70.6l.4-7.7s4.9 5.8 15 1.8c0-.8.1-1.5.3-2.3 2.5-10 21.7-13.8 42.8-8.5 16.6 4.2 29.5 12.7 33.1 21 3.4-.5 13.5-1.3 22.8 3l-.6 2.3s-12.6-4-21.6-3.2c.4 1.5.4 3.1 0 4.5-.3 1.3-1 2.5-1.8 3.6 0 2.3 1.1 6.3 8.8 8.2l-.4 1.4s8.2 4.5 5.5 7.2l-6.1 4.8s1.5-10.3-14.7-14.6c.9 1.8 2.8 3.7 6.5 5.3l-.6 1.3s7.3 5.8 4.2 8l-6.8 3.7s3.6-11.3-15.2-18.2c-6.6.4-14.4-.2-22.4-2.2-11.4-2.9-21.1-7.8-27.2-13.3-3.5 1-8.9 2.8-16.2 6.4l-2.8-7.2s6.8 3.3 14.4-4.4c0-.1-.1-.1-.1-.2-3.3-.5-8.9-1-17.3-.7z" class="st24"/>
    <path d="M302.7 76.8s9.1-.7 8.9 7.7c0 0-1.9 1.9-3.8 0-.7-.7-1.6-1.1-2.5-1.4-1.3-.3-3.1-1.3-4.3-4.1-.7-1.5 1.7-2.2 1.7-2.2z" class="st25"/>
    <path d="M249.6 53.9s11.2 8.5-.7 15c-6 3.2-7 5-6.5 6 .8 1.6-.3 3.5-2 3.9-1.9.5-4.4.4-7.3-1.2-1.5-.9-3.4-1.1-5.1-.6-3.4 1-8.6 1.7-8.1-3.5.3-2.8-.8-5.6-3.1-7.1-.7-.5-1.6-.9-2.7-1.2-2.2-.5-3.4-3-2.1-4.9 1.8-2.7 7.8-6.1 24.5-8.9l13.1 2.5zm20 8c-5.4-1.9-1.9 4.1-.3 6.2.3.4.7.8 1.1 1.1 3.7 2.9-4.3 3-7.3 3-1 0-1.9.2-2.7.6-1.6.9-1.2 1.9-.3 2.7 1.4 1.3 3.5 1.5 5.2.8 4.4-1.9 5.4.6 5.7 2.5.2 1.9 1.3 3.7 2.9 4.8 4.2 3 5.8-3.3 3.7-6.2-1.7-2.4 2.8-2.3 2.8-2.3s2.3-.4-.3-4.5c0 0-6.6-7.3-10.5-8.7zm-13.2 17.8s2 3.1-1.2 4.7c-2.4 1.2-2.2-1-1.9-2.1.1-.4.2-.8.2-1.2.3-1 .9-2.9 2.9-1.4zm-13.1 6.6c-.2.3-.4.5-.6.7-.9.6-2-.1-2.2-1.1-.1-.4-.3-.8-.9-1.1-1-.5-1.1-1.9-.1-2.5.6-.3 1.4-.4 2.6.3 1.4.7 2 2.3 1.2 3.7zM235.2 34s-2.1.2-2.3 2c-.1 1 .3 1.9 1.2 2.5.8.5 1.7 1.4 1.1 2.4-.5.7-.7 1.6-.4 2.4.3.9.9 1.7 2.2 1.1-.1-.1.6-7.2-1.8-10.4zm-13.6-6.7s3.5 1 2.9 2.7c-.3.9-1.4 1.2-2.2.8-1.2-.7-3.2-1.4-3.4 1.1-.1 1.8-.9 2.7-1.6 3.1-.6.4-.9 1-.7 1.7.4 1.4.5 3.8-2.6 5.3 0 0-4.2 1.3-4.9 1.8 0-.1 2.4-14 12.5-16.5z"/>
    <path d="M216.4 30s-5.4-11.1-14.6-3.6c0 0-3.1 5.1 11.4 7 14.6 1.8 3.2-3.4 3.2-3.4zm18.8 4.8s11.1-6.5 16.5 4.1c0 0-.5 5.8-16.5.3s0-4.4 0-4.4z"/>
    <ellipse cx="242.2" cy="38.7" transform="matrix(-.97 -.242 .242 -.97 467.715 134.863)" class="st23" rx="7.9" ry="2.1"/>
    <ellipse cx="208.8" cy="30.1" transform="matrix(-.97 -.242 .242 -.97 404.052 109.959)" class="st23" rx="7.2" ry="1.9"/>
    <path d="M222.1 27.4s-4-1.6-2.3-4.9c0 0-7.7 1.4-2.2 8.1s4.5-3.2 4.5-3.2zm9.3 3.1s6.4.4 6.8-3.4c0 0 1.9 5.6-3.7 9.6-5.7 4.1-3.1-6.2-3.1-6.2z" class="st25"/>
    <ellipse cx="223" cy="44.2" transform="matrix(-.97 -.242 .242 -.97 428.716 141.195)" class="st24" rx="13.7" ry="17.6"/>
    <ellipse cx="221" cy="53.5" transform="matrix(-.97 -.242 .242 -.97 422.505 158.895)" class="st23" rx="17" ry="11.5"/>
    <path d="M213.3 53.9c-.7 2.7 2 5.7 6 6.7s7.7-.4 8.4-3.1" class="st21"/>
    <ellipse cx="229" cy="40.1" transform="matrix(-.97 -.242 .242 -.97 441.478 134.547)" rx="1.5" ry="2.2"/>
    <ellipse cx="219.5" cy="37.7" transform="matrix(-.97 -.242 .242 -.97 423.3 127.555)" rx="1.5" ry="2.2"/>
    <circle cx="226.1" cy="51.9" r="1.5"/>
    <circle cx="218" cy="49.9" r="1.5"/>
  </g>
</svg>
