<?xml version="1.0" encoding="utf-8"?>
<!-- Generator: Adobe Illustrator 18.1.1, SVG Export Plug-In . SVG Version: 6.00 Build 0)  -->
<!DOCTYPE svg PUBLIC "-//W3C//DTD SVG 1.1//EN" "http://www.w3.org/Graphics/SVG/1.1/DTD/svg11.dtd">
<svg version="1.1" xmlns="http://www.w3.org/2000/svg" xmlns:xlink="http://www.w3.org/1999/xlink" x="0px" y="0px" width="360px"
	 height="504px" viewBox="0 0 360 504" style="enable-background:new 0 0 360 504;" xml:space="preserve">
<style type="text/css">
	.st0{fill:#2C1B45;}
	.st1{fill:#7CC842;}
	.st2{opacity:0.61;fill:url(#SVGID_1_);}
	.st3{opacity:0.7;fill:url(#SVGID_2_);}
	.st4{opacity:0.49;fill:url(#SVGID_3_);}
	.st5{fill:#C6E417;}
	.st6{fill:url(#SVGID_4_);}
	.st7{fill:url(#SVGID_5_);}
	.st8{fill:url(#SVGID_6_);}
	.st9{fill:url(#SVGID_7_);}
	.st10{fill:url(#SVGID_8_);}
	.st11{fill:url(#SVGID_9_);}
	.st12{fill:url(#SVGID_10_);}
	.st13{fill:url(#SVGID_11_);}
	.st14{fill:url(#SVGID_12_);}
	.st15{fill:#9EA688;}
	.st16{fill:url(#SVGID_13_);}
	.st17{fill:#FFCC00;stroke:#000000;stroke-miterlimit:10;}
	.st18{fill:#F4FBFD;stroke:#FFCC00;stroke-miterlimit:10;}
	.st19{fill:url(#SVGID_14_);}
	.st20{fill:none;stroke:#000000;stroke-miterlimit:10;}
	.st21{fill:none;stroke:#000000;stroke-linecap:round;stroke-miterlimit:10;}
	.st22{fill:#F8B2BB;}
	.st23{fill:#F6F2DD;}
	.st24{fill:#FFDC4E;}
</style>
<g id="background">
	<rect x="0" class="st0" width="360" height="391.5"/>
	<path class="st1" d="M360,277.5v114l-193.2,4v-126C166.8,269.5,296.9,228.2,360,277.5z"/>
	
		<linearGradient id="SVGID_1_" gradientUnits="userSpaceOnUse" x1="264.5433" y1="169.4257" x2="264.5433" y2="249.5493" gradientTransform="matrix(0.9892 0.1462 -0.1462 0.9892 -86.9262 -69.2868)">
		<stop  offset="0.399" style="stop-color:#F4FBFD"/>
		<stop  offset="1" style="stop-color:#2CB4C3"/>
	</linearGradient>
	<path class="st2" d="M196.3,172.5c-0.6-0.1-1.2-0.1-1.8-0.1c-2.2-9.5-9.5-17-19.1-18.4c-4.5-0.7-8.9,0.1-12.8,2
		c-1.7-10.1-9.3-18.3-19.3-19.9c-8.9-1.3-17.4,2.9-22.4,10.2c-2.4-5.5-7.3-9.6-13.3-10.5c-9.6-1.5-18.7,5.7-20.2,16.1
		c-0.6,4.3,0.2,8.4,2,11.9c-6.2,3.7-10.9,10.2-12,18.3c-2,13.6,6.7,26.2,19.5,28.1c7.5,1.1,14.8-1.7,19.8-7.1
		c3.3,3.3,7.6,5.7,12.5,6.4c10.6,1.6,20.6-4.7,24.8-14.8c3.5,4.5,8.5,7.6,14.4,8.5c6,0.9,11.8-0.7,16.5-4.1c2,1.8,4.4,3,7.2,3.5
		c7.8,1.2,15-4.6,16.2-12.9C209.4,181.3,204.1,173.6,196.3,172.5z"/>
	
		<linearGradient id="SVGID_2_" gradientUnits="userSpaceOnUse" x1="-48.1624" y1="186.9256" x2="-48.1624" y2="267.1244" gradientTransform="matrix(0.6951 5.880738e-02 -6.215347e-02 0.7346 143.171 -100.8817)">
		<stop  offset="0.399" style="stop-color:#F4FBFD"/>
		<stop  offset="1" style="stop-color:#2CB4C3"/>
	</linearGradient>
	<path class="st3" d="M131.8,57.3c-0.4,0-0.8,0-1.2,0c-1.9-6.8-7.3-12-14-12.6c-3.2-0.3-6.2,0.5-8.9,2.1c-1.6-7.4-7.2-13-14.3-13.6
		c-6.2-0.5-12,3-15.2,8.6c-1.9-3.9-5.4-6.7-9.7-7c-6.8-0.6-12.8,5.2-13.4,12.8c-0.3,3.2,0.4,6.2,1.8,8.7c-4.2,3-7.2,8.1-7.7,14
		C48.5,80.5,55,89.3,64,90.1c5.3,0.5,10.2-2,13.5-6.2c2.4,2.3,5.5,3.8,9,4.1c7.4,0.6,14.2-4.5,16.7-12.1c2.6,3.1,6.2,5.2,10.3,5.5
		c4.2,0.4,8.2-1.1,11.3-3.9c1.4,1.2,3.2,2,5.1,2.2c5.4,0.5,10.3-4.1,10.8-10.3S137.2,57.8,131.8,57.3z"/>
	
		<linearGradient id="SVGID_3_" gradientUnits="userSpaceOnUse" x1="266.5362" y1="470.7753" x2="266.5362" y2="550.9594" gradientTransform="matrix(0.708 5.990116e-02 -5.106460e-02 0.6035 143.4073 -171.5802)">
		<stop  offset="0.399" style="stop-color:#F4FBFD"/>
		<stop  offset="1" style="stop-color:#2CB4C3"/>
	</linearGradient>
	<path class="st4" d="M342.7,148.6c-0.4,0-0.8,0-1.3,0c-2-5.7-7.6-10-14.5-10.6c-3.2-0.3-6.3,0.3-9,1.6c-1.7-6.1-7.5-10.8-14.7-11.5
		c-6.4-0.6-12.2,2.3-15.3,6.9c-2-3.2-5.6-5.6-10-5.9c-6.9-0.6-12.9,4-13.4,10.3c-0.2,2.6,0.6,5.1,2,7.2c-4.2,2.4-7.2,6.5-7.6,11.4
		c-0.7,8.3,6.1,15.7,15.2,16.5c5.4,0.5,10.4-1.5,13.7-4.9c2.5,1.9,5.7,3.2,9.2,3.5c7.6,0.7,14.3-3.5,16.8-9.7
		c2.7,2.6,6.4,4.4,10.6,4.7c4.3,0.4,8.3-0.8,11.4-3c1.5,1,3.3,1.7,5.2,1.9c5.5,0.5,10.4-3.2,10.8-8.3
		C352.5,153.6,348.3,149.1,342.7,148.6z"/>
	<path class="st5" d="M0,176.2c0,0,124-56.7,360,194v133.4H0L0,176.2z"/>
	
		<linearGradient id="SVGID_4_" gradientUnits="userSpaceOnUse" x1="438.6324" y1="326.4853" x2="438.6324" y2="372.348" gradientTransform="matrix(0.8892 0.4574 -0.4574 0.8892 -139.9198 -218.3052)">
		<stop  offset="0.4975" style="stop-color:#7CC842"/>
		<stop  offset="1" style="stop-color:#0E7360"/>
	</linearGradient>
	<path class="st6" d="M81,314.1c0,0-8.3-14.1-22-11.6c0,0,11.8-13.3,20.8-4.8c0,0-9.1-12.5-19.5-10.7c0,0,16-9.9,21.4,1.2
		c0,0-5.1-14.7-9.8-12.6c0,0,22.1,2.8,20.7,9.9l2.1-15.9c0,0,10.4,11.5,6.2,19.8c0,0,9-6.8,19.4-4c0,0-33.6,15-2,18.1
		c0,0-10.9-2.4-21.2,5"/>
	
		<linearGradient id="SVGID_5_" gradientUnits="userSpaceOnUse" x1="428.9713" y1="377.9158" x2="428.9713" y2="418.2174" gradientTransform="matrix(0.9715 0.2369 -0.2369 0.9715 -59.5313 -145.0872)">
		<stop  offset="0.4975" style="stop-color:#7CC842"/>
		<stop  offset="1" style="stop-color:#0E7360"/>
	</linearGradient>
	<path class="st7" d="M245.9,359.9c0,0-1.3-16.4-14.7-20.4c0,0,16.3-6.6,20.7,5.1c0,0-2.8-15.3-12.9-18.5c0,0,18.6-1.6,18.6,10.8
		c0,0,1.8-15.5-3.3-15.8c0,0,18.5,12.5,14.3,18.2l8.8-13.3c0,0,4.3,15-3,20.5c0,0,11-2.1,19.2,5.2c0,0-36.6-1.8-9.6,15.3
		c0,0-8.8-7.1-21.2-5.1"/>
	<linearGradient id="SVGID_6_" gradientUnits="userSpaceOnUse" x1="33.0285" y1="151.2598" x2="33.0285" y2="198.1874">
		<stop  offset="0.4975" style="stop-color:#7CC842"/>
		<stop  offset="1" style="stop-color:#0E7360"/>
	</linearGradient>
	<path class="st8" d="M16.1,189.7c0,0-0.8-16.4-14.1-20.8c0,0,16.5-6,20.5,5.7c0,0-2.3-15.4-12.3-18.9c0,0,18.6-1,18.3,11.4
		c0,0,2.3-15.4-2.8-15.9c0,0,18.2,13.1,13.7,18.7l9.2-13c0,0,3.9,15.1-3.6,20.4c0,0,11.1-1.7,19,5.8c0,0-36.5-3-10.1,15
		c0,0-8.5-7.3-21-5.8"/>
	
		<linearGradient id="SVGID_7_" gradientUnits="userSpaceOnUse" x1="-106.9886" y1="183.0409" x2="-106.9886" y2="235.4947" gradientTransform="matrix(0.8675 -0.4974 0.4974 0.8675 150.3761 188.9016)">
		<stop  offset="0.4975" style="stop-color:#7CC842"/>
		<stop  offset="1" style="stop-color:#0E7360"/>
	</linearGradient>
	<path class="st9" d="M148.4,440.8c0,0-4.8-15.7-18.8-16.5c0,0,14.5-10.1,21.3,0.3c0,0-6-14.3-16.5-15.1c0,0,17.8-5.8,20.5,6.3
		c0,0-1.6-15.5-6.6-14.6c0,0,20.8,8,17.9,14.6l5.7-14.9c0,0,7.5,13.6,1.5,20.7c0,0,10.3-4.5,19.8,0.8c0,0-36.1,6.5-6.1,17.1
		c0,0-10.1-4.9-21.8-0.3"/>
	<linearGradient id="SVGID_8_" gradientUnits="userSpaceOnUse" x1="171.4211" y1="187.0083" x2="171.4211" y2="239.1671">
		<stop  offset="0.4975" style="stop-color:#7CC842"/>
		<stop  offset="1" style="stop-color:#0E7360"/>
	</linearGradient>
	<path class="st10" d="M152,222.3c0,0,2.8-16.2-9.2-23.5c0,0,17.4-2.1,18.8,10.3c0,0,1.1-15.5-7.9-21.2c0,0,18.4,3.2,15.4,15.2
		c0,0,5.6-14.5,0.7-16.1c0,0,14.9,16.9,9.3,21.3l11.8-10.6c0,0,0.5,15.6-8,19.1c0,0,11.1,0.8,17.3,10c0,0-35-11.2-13.1,12.4
		c0,0-6.7-9.1-19.2-10.4"/>
	<linearGradient id="SVGID_9_" gradientUnits="userSpaceOnUse" x1="210.2417" y1="410.7803" x2="210.2417" y2="470.5875">
		<stop  offset="0" style="stop-color:#909D7F"/>
		<stop  offset="0.3399" style="stop-color:#748976"/>
		<stop  offset="0.5764" style="stop-color:#607E6F"/>
		<stop  offset="0.8666" style="stop-color:#2E4B47"/>
	</linearGradient>
	<path class="st11" d="M204.8,470.6c0,0-35.5,0.7-41.8-9.3c0,0-11.1-13.3,14.6-43.3c0,0,17.4-16.3,43.2,0c0,0,41.1,22,39,39.8
		C259.8,457.8,259.8,471.3,204.8,470.6z"/>
	<linearGradient id="SVGID_10_" gradientUnits="userSpaceOnUse" x1="74.3152" y1="420.7609" x2="74.3152" y2="469.9635">
		<stop  offset="0.4975" style="stop-color:#7CC842"/>
		<stop  offset="1" style="stop-color:#0E7360"/>
	</linearGradient>
	<path class="st12" d="M77.8,467.1c0,0-14.6-7-24.6,2.9c0,0,2.6-17.8,14.6-15.8c0,0-14.4-5.2-22.1,2.2c0,0,7.9-17.3,18.4-11.1
		c0,0-12.2-9.3-15-4.9c0,0,19.9-10.2,22.6-3.6l-6.9-14.4c0,0,14.9,3.6,15.9,12.9c0,0,3.7-10.8,14-14.4c0,0-19.7,31.5,8.2,16.1
		c0,0-10.4,4.2-14.9,16.2"/>
	<linearGradient id="SVGID_11_" gradientUnits="userSpaceOnUse" x1="292.2545" y1="438.9755" x2="292.2545" y2="491.595">
		<stop  offset="0.4975" style="stop-color:#7CC842"/>
		<stop  offset="1" style="stop-color:#0E7360"/>
	</linearGradient>
	<path class="st13" d="M272.5,473.8c0,0,3.2-16.1-8.6-23.8c0,0,17.5-1.6,18.5,10.8c0,0,1.5-15.5-7.3-21.4c0,0,18.3,3.7,15,15.7
		c0,0,5.9-14.3,1.1-16.1c0,0,14.4,17.3,8.8,21.6l12-10.2c0,0,0.1,15.6-8.5,18.8c0,0,11.1,1.1,17,10.4c0,0-34.7-12.1-13.4,12
		c0,0-6.5-9.3-18.9-11"/>
	<linearGradient id="SVGID_12_" gradientUnits="userSpaceOnUse" x1="139.0871" y1="416.0826" x2="139.0871" y2="494.1294">
		<stop  offset="0" style="stop-color:#909D7F"/>
		<stop  offset="0.3399" style="stop-color:#748976"/>
		<stop  offset="0.5764" style="stop-color:#607E6F"/>
		<stop  offset="0.8666" style="stop-color:#2E4B47"/>
	</linearGradient>
	<path class="st14" d="M132,494.1c0,0-46.3,0.9-54.5-12.1c0,0-14.5-17.4,19.1-56.5c0,0,22.7-21.2,56.3,0c0,0,53.6,28.8,50.9,51.9
		C203.8,477.4,203.8,495,132,494.1z"/>
	<path class="st15" d="M161.2,455.8c0.9,3.2-1.7,6.8-5.9,8.1c-4.2,1.3-8.3-0.3-9.3-3.5c-0.9-3.2,1.7-6.8,5.9-8.1
		C156.1,451.1,160.3,452.7,161.2,455.8z"/>
	<path class="st15" d="M144.7,426.2c2.3,2.4,1.7,6.8-1.4,10c-3.1,3.2-7.5,3.8-9.8,1.5s-1.7-6.8,1.4-10
		C138,424.5,142.4,423.9,144.7,426.2z"/>
	<path class="st15" d="M214.4,421.7c2.6-2,6.8-0.8,9.5,2.8c2.7,3.6,2.7,8.1,0.1,10.1c-2.6,2-6.8,0.8-9.5-2.8
		C211.9,428.3,211.8,423.7,214.4,421.7z"/>
	
		<linearGradient id="SVGID_13_" gradientUnits="userSpaceOnUse" x1="-170.1028" y1="212.6351" x2="-170.1028" y2="265.0888" gradientTransform="matrix(0.8675 -0.4974 0.4974 0.8675 150.3761 188.9016)">
		<stop  offset="0.4975" style="stop-color:#7CC842"/>
		<stop  offset="1" style="stop-color:#0E7360"/>
	</linearGradient>
	<path class="st16" d="M108.4,497.9c0,0-4.8-15.7-18.8-16.5c0,0,14.5-10.1,21.3,0.3c0,0-6-14.3-16.5-15.1c0,0,17.8-5.8,20.5,6.3
		c0,0-1.6-15.5-6.6-14.6c0,0,20.8,8,17.9,14.6l5.7-14.9c0,0,7.5,13.6,1.5,20.7c0,0,10.3-4.5,19.8,0.8c0,0-36.1,6.5-6.1,17.1
		c0,0-10.1-4.9-21.8-0.3"/>
</g>
<g id="moon">
	<g>
		<path class="st17" d="M199.3,144.6c1.3-2.2,0.4-3-0.9-3.2c-0.3-1.3-0.7-2.8-1-4.6l1.8-0.9c1.6-0.8,1.8-3,0.4-4.1l-1.1-0.9
			c-1.4-1.1-2.3-2.8-2.3-4.6l0,0l0.4-0.6c0.9-1.2,1.1-2.8,0.4-4.2c-0.2-0.5-0.4-1-0.6-1.5c1.2-10.9,6.7-22.1,23-25.7
			c0,0-21.2-8.3-40,16c-6.8,8.8-9.8,20.1-7.7,31c2.1,11.2,9.5,24.1,30.6,30.9c0,0,27.6,6.5,38.7-18.9
			C240.9,153.3,212.8,171.1,199.3,144.6z"/>
		<ellipse class="st18" cx="192.6" cy="129.4" rx="2.6" ry="3.6"/>
		
			<radialGradient id="SVGID_14_" cx="194.2121" cy="130.4107" r="1.1294" fx="193.1953" fy="130.902" gradientTransform="matrix(1 0 0 1.2 0 -26.0821)" gradientUnits="userSpaceOnUse">
			<stop  offset="0" style="stop-color:#F4FBFD"/>
			<stop  offset="0.6106" style="stop-color:#000000"/>
		</radialGradient>
		<ellipse class="st19" cx="193.3" cy="130.2" rx="1.2" ry="2.2"/>
		<path class="st20" d="M188.4,127.2c0,0,1.2-4.5,6.8-2.9"/>
		<path class="st21" d="M185.9,140.7c0,0,6.2,4.9,12.5,0.6"/>
		<path class="st21" d="M195,134.7c0,0-1.1,1.6,1.1,2.2"/>
	</g>
</g>
<g id="cow">
	<g>
		<path d="M197.6,82.7c0,0-4.8,4.5-7.2-1.5c0,0-4.6-6.9,0.7-6.4l5.6,2.5L197.6,82.7z"/>
		<path d="M192.2,70c0,0-6.1,3.1-6.9-3.6c0,0-2.7-8.4,2.6-6.3l5,4.2L192.2,70z"/>
		<path d="M296.3,101c0,0,5.5,4.2-0.3,7.8c0,0-6.4,6.1-6.8,0.4l1.6-6.3L296.3,101z"/>
		<path d="M285.5,105.4c0,0,6.2,4.3-0.1,7.8c0,0-6.9,5.9-7.5,0.2l1.6-6.3L285.5,105.4z"/>
		<path class="st22" d="M255.6,91.2c0.8-3.2,5.9-4.7,11.5-3.3c5.5,1.4,9.4,5.1,8.6,8.3c-0.5,1.9-2.4,3.2-5.1,3.6
			c0,0.3-0.1,0.6-0.1,0.9c-0.4,1.5-1.2,2.5-1.8,2.3c-0.6-0.2-0.8-1.5-0.5-2.9c0,0,0-0.1,0-0.1c-0.6,0-1.2,0-1.9-0.1
			c-0.4,1.3-1.3,2.2-2.2,2c-0.8-0.2-1.2-1.4-1-2.7c-0.5-0.2-1-0.3-1.4-0.5c0,0.1,0,0.2,0,0.3c-0.3,1.2-1.3,2-2.1,1.8
			c-0.9-0.2-1.3-1.4-1-2.6c0.1-0.4,0.2-0.7,0.4-1C256.5,95.5,255.1,93.2,255.6,91.2z"/>
		<path class="st23" d="M191.1,70.6l0.4-7.7c0,0,4.9,5.8,15,1.8c0-0.8,0.1-1.5,0.3-2.3c2.5-10,21.7-13.8,42.8-8.5
			c16.6,4.2,29.5,12.7,33.1,21c3.4-0.5,13.5-1.3,22.8,3l-0.6,2.3c0,0-12.6-4-21.6-3.2c0.4,1.5,0.4,3.1,0,4.5c-0.3,1.3-1,2.5-1.8,3.6
			c0,2.3,1.1,6.3,8.8,8.2l-0.4,1.4c0,0,8.2,4.5,5.5,7.2l-6.1,4.8c0,0,1.5-10.3-14.7-14.6c0.9,1.8,2.8,3.7,6.5,5.3l-0.6,1.3
			c0,0,7.3,5.8,4.2,8l-6.8,3.7c0,0,3.6-11.3-15.2-18.2c-6.6,0.4-14.4-0.2-22.4-2.2c-11.4-2.9-21.1-7.8-27.2-13.3
			c-3.5,1-8.9,2.8-16.2,6.4l-2.8-7.2c0,0,6.8,3.3,14.4-4.4c0-0.1-0.1-0.1-0.1-0.2C205.1,70.8,199.5,70.3,191.1,70.6z"/>
		<path class="st24" d="M302.7,76.8c0,0,9.1-0.7,8.9,7.7c0,0-1.9,1.9-3.8,0c-0.7-0.7-1.6-1.1-2.5-1.4c-1.3-0.3-3.1-1.3-4.3-4.1
			C300.3,77.5,302.7,76.8,302.7,76.8z"/>
		<path d="M249.6,53.9c0,0,11.2,8.5-0.7,15c-6,3.2-7,5-6.5,6c0.8,1.6-0.3,3.5-2,3.9c-1.9,0.5-4.4,0.4-7.3-1.2
			c-1.5-0.9-3.4-1.1-5.1-0.6c-3.4,1-8.6,1.7-8.1-3.5c0.3-2.8-0.8-5.6-3.1-7.1c-0.7-0.5-1.6-0.9-2.7-1.2c-2.2-0.5-3.4-3-2.1-4.9
			c1.8-2.7,7.8-6.1,24.5-8.9L249.6,53.9z"/>
		<path d="M269.6,61.9c-5.4-1.9-1.9,4.1-0.3,6.2c0.3,0.4,0.7,0.8,1.1,1.1c3.7,2.9-4.3,3-7.3,3c-1,0-1.9,0.2-2.7,0.6
			c-1.6,0.9-1.2,1.9-0.3,2.7c1.4,1.3,3.5,1.5,5.2,0.8c4.4-1.9,5.4,0.6,5.7,2.5c0.2,1.9,1.3,3.7,2.9,4.8c4.2,3,5.8-3.3,3.7-6.2
			c-1.7-2.4,2.8-2.3,2.8-2.3s2.3-0.4-0.3-4.5C280.1,70.6,273.5,63.3,269.6,61.9z"/>
		<path d="M256.4,79.7c0,0,2,3.1-1.2,4.7c-2.4,1.2-2.2-1-1.9-2.1c0.1-0.4,0.2-0.8,0.2-1.2C253.8,80.1,254.4,78.2,256.4,79.7z"/>
		<path d="M243.3,86.3c-0.2,0.3-0.4,0.5-0.6,0.7c-0.9,0.6-2-0.1-2.2-1.1c-0.1-0.4-0.3-0.8-0.9-1.1c-1-0.5-1.1-1.9-0.1-2.5
			c0.6-0.3,1.4-0.4,2.6,0.3C243.5,83.3,244.1,84.9,243.3,86.3z"/>
		<path d="M235.2,34c0,0-2.1,0.2-2.3,2c-0.1,1,0.3,1.9,1.2,2.5c0.8,0.5,1.7,1.4,1.1,2.4c-0.5,0.7-0.7,1.6-0.4,2.4
			c0.3,0.9,0.9,1.7,2.2,1.1C236.9,44.3,237.6,37.2,235.2,34z"/>
		<path d="M221.6,27.3c0,0,3.5,1,2.9,2.7c-0.3,0.9-1.4,1.2-2.2,0.8c-1.2-0.7-3.2-1.4-3.4,1.1c-0.1,1.8-0.9,2.7-1.6,3.1
			c-0.6,0.4-0.9,1-0.7,1.7c0.4,1.4,0.5,3.8-2.6,5.3c0,0-4.2,1.3-4.9,1.8C209.1,43.7,211.5,29.8,221.6,27.3z"/>
		<path d="M216.4,30c0,0-5.4-11.1-14.6-3.6c0,0-3.1,5.1,11.4,7C227.8,35.2,216.4,30,216.4,30z"/>
		<path d="M235.2,34.8c0,0,11.1-6.5,16.5,4.1c0,0-0.5,5.8-16.5,0.3S235.2,34.8,235.2,34.8z"/>
		
			<ellipse transform="matrix(-0.9702 -0.2423 0.2423 -0.9702 467.7148 134.8635)" class="st22" cx="242.2" cy="38.7" rx="7.9" ry="2.1"/>
		
			<ellipse transform="matrix(-0.9702 -0.2423 0.2423 -0.9702 404.0519 109.9594)" class="st22" cx="208.8" cy="30.1" rx="7.2" ry="1.9"/>
		<path class="st24" d="M222.1,27.4c0,0-4-1.6-2.3-4.9c0,0-7.7,1.4-2.2,8.1S222.1,27.4,222.1,27.4z"/>
		<path class="st24" d="M231.4,30.5c0,0,6.4,0.4,6.8-3.4c0,0,1.9,5.6-3.7,9.6C228.8,40.8,231.4,30.5,231.4,30.5z"/>
		
			<ellipse transform="matrix(-0.9702 -0.2423 0.2423 -0.9702 428.7159 141.1945)" class="st23" cx="223" cy="44.2" rx="13.7" ry="17.6"/>
		
			<ellipse transform="matrix(-0.9702 -0.2423 0.2423 -0.9702 422.5051 158.8946)" class="st22" cx="221" cy="53.5" rx="17" ry="11.5"/>
		<path class="st20" d="M213.3,53.9c-0.7,2.7,2,5.7,6,6.7c4,1,7.7-0.4,8.4-3.1"/>
		<ellipse transform="matrix(-0.9702 -0.2423 0.2423 -0.9702 441.478 134.5465)" cx="229" cy="40.1" rx="1.5" ry="2.2"/>
		<ellipse transform="matrix(-0.9702 -0.2423 0.2423 -0.9702 423.2998 127.5555)" cx="219.5" cy="37.7" rx="1.5" ry="2.2"/>
		<circle cx="226.1" cy="51.9" r="1.5"/>
		<circle cx="218" cy="49.9" r="1.5"/>
	</g>
</g>
</svg>
