<svg xmlns="http://www.w3.org/2000/svg" viewBox="-324.9 264 51.7 74.1" enable-background="new -324.9 264 51.7 74.1"><path d="M-323.8 332.5c6.7 3.6 14.2 5.5 21.9 5.5 10.3 0 20-3.3 28.1-9.6.9-.7 1-1.9.4-2.7-.7-.9-1.9-1-2.7-.4-2.7 2.1-5.5 3.8-8.5 5.1l-.7-17.5 8.9-47c.2-.9-.4-1.8-1.3-2-.9-.2-1.8.4-2 1.3l-6.2 32.8-33.5-1c-.6 0-1.3.5-1.3 1.2s.5 1.3 1.2 1.3l5.4.2-2 31.7c-2-.7-3.9-1.5-5.7-2.5-1-.5-2.1-.2-2.7.8-.6 1.1-.3 2.3.7 2.8zm35.3-9.8l-24.4-.5.5-7.7 23.6.5.3 7.7zm-18.9-12.4l.6-10.2 4.2.1-1 10.2c.1 0-3.8-.1-3.8-.1zm6.3-10l4.2.1-1.3 10.2-3.9-.1 1-10.2zm5.6.1l4.2.1-1.6 10.1-3.9-.1 1.3-10.1zm-16-.4l3.3.1-.7 10.3-3.3-.1.7-10.3zm24.9.7l-1.9 10.1-3.1-.1 1.6-10.1 3.4.1zm-15.4 33.4c-3.9 0-7.8-.6-11.5-1.6l.5-8.4 24.6.5.3 7.2c-4.4 1.5-9.1 2.3-13.9 2.3z"/></svg>