<svg xmlns="http://www.w3.org/2000/svg" viewBox="-332.9 260.9 60 80" enable-background="new -332.9 260.9 60 80"><g stroke-miterlimit="10"><path stroke="#000" stroke-width=".494" d="M-324.1 305s7.2-2.3 10.1 3.4" fill="none"/><path fill="#FCD1C4" stroke="#000" stroke-width=".494" d="M-296.1 273.4l-3.2 3-3.9.4h-.3c-.3 0-.6 0-.8.1-1.1.3-1.9 1.4-1.9 2.6 0 1.5 1.2 2.7 2.7 2.7.3 0 .7-.1 1-.2.3.5.5.9.7.9 0 0-2.8.3-2.5 3.6 0 0 .1 2.2 4.5 1.7l-.2 2.2s6.5-1.2 10-4.8l.6-1.1s7.1-6 5.9-8c-2-3.3-12.7-3.7-12.6-3.1z"/><path stroke="#4C3024" stroke-width=".987" stroke-linecap="round" d="M-296.6 274.1c1 .4 1.6 1.4 1.4 1.2" fill="none"/><ellipse fill="#B1CDEE" stroke="#000" stroke-width=".494" cx="-300.6" cy="276.3" rx=".8" ry="1.6"/><ellipse fill="#B1CDEE" stroke="#000" stroke-width=".494" cx="-298.2" cy="276.7" rx="1.6" ry="3.3"/><path stroke="#000" stroke-width=".494" d="M-298.8 280s-.1 5 5.5 2.4M-301.8 282.9s2.8.7 4.3-.2M-296.1 286.9s-4 .4-3.7 2M-296.6 277.2l8.5.7M-288.9 280.6s.7-2.6 1.7-.7M-296.1 272.9s.4.6 1.3.6c.2 0 .3 0 .5-.1" fill="none"/><path fill="#EEEFF2" stroke="#000" stroke-width=".494" d="M-299.2 269s-4.1 2.6 1.7 3.2c0 0 .6 1.4 2.8 1.2 0 0-.6 3.4 3.5 2.5 0 0 .3 2.5 2.7 1.9 0 0 .2 1.2 2.9.6 0 0 .2 2.4-2.4 4.2 0 0-1.9 2.9.9 2.4 0 0 4.2.9 3.9-1.4 0 0 2.6-.9 1.4-2.6 0 0 2.3-2.8.7-3.6 0 0 1.7-3.3-.4-3.7 0 0 2.4-2.9 0-3.3 0 0 .4-3.3-2.2-3 0 0-.3-2.4-3.5-1.1 0 0-.4-3.5-3.3-1.6l-1.4.5s-2.6-3.4-4.6.2c0 0-2.6-.8-1.4 1.1 0 .2-2.2.9-1.3 2.5z"/><circle fill="#E9C78C" stroke="#000" stroke-width=".494" cx="-289.3" cy="282.7" r="1.2"/><path fill="#D56397" stroke="#000" stroke-width=".494" d="M-300.7 290.5s-5.4 1-4.7 6.2c0 0-15.1 1.6-16.8 4.6 0 0-3.7 4.8-1.1 6l8.2 3.1s2.8 2.3 3.5 2.3c0 0 .5-2.3 1.8-1.9 0 0 3.7-.5 4 .3 0 0 18.8 5.8 18.3-7.1l-.2-7.5-4.5-8.6-8.5 2.6z"/><path fill="#B73F76" stroke="#000" stroke-width=".494" d="M-332.1 328.6c.8 2 3 1.1 3 1.1s-2.8 3.6 2.6 4.1c0 0 10.8-1 10.7-4.8 0 0-.7-3.4-3.4-3l-4.6-5c-.1 0-10 3.7-8.3 7.6z"/><ellipse transform="matrix(.931 .364 -.364 .931 90.037 137.159)" fill="#96306D" stroke="#000" stroke-width=".494" cx="-319.1" cy="307.6" rx="5.4" ry="2.6"/><path fill="#FCD1C4" stroke="#000" stroke-width=".494" d="M-322.5 306.1s2.5-.3 2.9 0c2 .7 5 3.4 5 3.4s-4.2 16.6-2.9 18.8c0 0 1.7 3-10.1 2.7 0 0-3.2-1.2 1-3.2l1-.4-1 .4s-3.7.6-3.7-.4c0 0-1.1-2.9 6.3-5.3 0 0 0-.4.1-1.1.1-2.5-.6-14.9 1.4-14.9z"/><path fill="#D56397" stroke="#000" stroke-width=".494" d="M-289.4 284.6l2.6 1.5s6.2 1.9-.5 10.5c0 0 .7 3.2-3.2 2.8 0 0-1.1-5.4-6.1-4.7 0 0-1.8-.6 0-2.7 0 0 5.6-6.7 8.4-5.9l.9-.4"/><path stroke="#000" stroke-width=".494" d="M-319.6 306.1c-1.6 1.4-2.3 14.1-2.1 18.1 0 .7-.3 1.3-1 1.6l-4.4 2.3-2.1 1.6 2.6-1.9" fill="none"/><path fill="#FCD1C4" stroke="#000" stroke-width=".494" d="M-296.6 294.8l-.8 1.4-8 1.5-2 .3c-1 .2-1.8.8-2.2 1.7l-2.1 4.3s0 1.4 1.5 0l.1 2.1s1.2.8 1.5-1c0 0 2.1 2.2 1.6-1.1 0 0-.6-1.9 2.5-3.4h10.3s3.2.1 3.9-1c-.1-.1 1.8-8.9-6.3-4.8z"/><path stroke="#000" stroke-width=".494" stroke-linecap="round" fill="none" d="M-309.4 301.6l-.8 2.3M-308.8 302.8l.2 2.2M-293.8 298.8s-.1 1.6 1.7 0"/><circle fill="#E9C78C" stroke="#000" stroke-width=".494" cx="-300.6" cy="289.7" r=".9"/><circle fill="#E9C78C" stroke="#000" stroke-width=".494" cx="-299.1" cy="289.7" r=".9"/><circle fill="#E9C78C" stroke="#000" stroke-width=".494" cx="-297.3" cy="289.6" r=".9"/><circle fill="#E9C78C" stroke="#000" stroke-width=".494" cx="-296.1" cy="288.8" r=".9"/><circle fill="#E9C78C" stroke="#000" stroke-width=".494" cx="-294.7" cy="287.9" r=".9"/><circle fill="#E9C78C" stroke="#000" stroke-width=".494" cx="-290.6" cy="285.5" r=".9"/><circle fill="#E9C78C" stroke="#000" stroke-width=".494" cx="-292.1" cy="286.1" r=".9"/><circle fill="#E9C78C" stroke="#000" stroke-width=".494" cx="-293.3" cy="287" r=".9"/></g><path fill="#4C3024" d="M-323.8 332.5c6.7 3.6 14.2 5.5 21.9 5.5 10.3 0 20-3.3 28.1-9.6.9-.7 1-1.9.4-2.7-.7-.9-1.9-1-2.7-.4-2.7 2.1-5.5 3.8-8.5 5.1l-.7-17.5 8.9-47c.2-.9-.4-1.8-1.3-2-.9-.2-1.8.4-2 1.3l-6.2 32.8-33.5-1c-.6 0-1.3.5-1.3 1.2s.5 1.3 1.2 1.3l5.4.2-2 31.7c-2-.7-3.9-1.5-5.7-2.5-1-.5-2.1-.2-2.7.8-.6 1.1-.3 2.3.7 2.8zm35.3-9.8l-24.4-.5.5-7.7 23.6.5.3 7.7zm-18.9-12.4l.6-10.2 4.2.1-1 10.2c.1 0-3.8-.1-3.8-.1zm6.3-10l4.2.1-1.3 10.2-3.9-.1 1-10.2zm5.6.1l4.2.1-1.6 10.1-3.9-.1 1.3-10.1zm-16-.4l3.3.1-.7 10.3-3.3-.1.7-10.3zm24.9.7l-1.9 10.1-3.1-.1 1.6-10.1 3.4.1zm-15.4 33.4c-3.9 0-7.8-.6-11.5-1.6l.5-8.4 24.6.5.3 7.2c-4.4 1.5-9.1 2.3-13.9 2.3z"/></svg>