<?xml version="1.0" encoding="utf-8"?>
<!-- Generator: Adobe Illustrator 18.1.1, SVG Export Plug-In . SVG Version: 6.00 Build 0)  -->
<!DOCTYPE svg PUBLIC "-//W3C//DTD SVG 1.1//EN" "http://www.w3.org/Graphics/SVG/1.1/DTD/svg11.dtd">
<svg version="1.1" xmlns="http://www.w3.org/2000/svg" xmlns:xlink="http://www.w3.org/1999/xlink" x="0px" y="0px"
	 viewBox="-332.9 260.9 60 80" enable-background="new -332.9 260.9 60 80" xml:space="preserve">
<g id="Layer_1">
	<path fill="none" stroke="#000000" stroke-width="0.4936" stroke-miterlimit="10" d="M-324.1,305c0,0,7.2-2.3,10.1,3.4"/>
	<g>
		<path fill="#FCD1C4" stroke="#000000" stroke-width="0.4936" stroke-miterlimit="10" d="M-296.1,273.4l-3.2,3l-3.9,0.4
			c-0.1,0-0.2,0-0.3,0c-0.3,0-0.6,0-0.8,0.1c-1.1,0.3-1.9,1.4-1.9,2.6c0,1.5,1.2,2.7,2.7,2.7c0.3,0,0.7-0.1,1-0.2
			c0.3,0.5,0.5,0.9,0.7,0.9c0,0-2.8,0.3-2.5,3.6c0,0,0.1,2.2,4.5,1.7l-0.2,2.2c0,0,6.5-1.2,10-4.8l0.6-1.1c0,0,7.1-6,5.9-8
			C-285.5,273.2-296.2,272.8-296.1,273.4z"/>
		<path fill="none" stroke="#4C3024" stroke-width="0.9873" stroke-linecap="round" stroke-miterlimit="10" d="M-296.6,274.1
			c1,0.4,1.6,1.4,1.4,1.2"/>
		
			<ellipse fill="#B1CDEE" stroke="#000000" stroke-width="0.4936" stroke-miterlimit="10" cx="-300.6" cy="276.3" rx="0.8" ry="1.6"/>
		
			<ellipse fill="#B1CDEE" stroke="#000000" stroke-width="0.4936" stroke-miterlimit="10" cx="-298.2" cy="276.7" rx="1.6" ry="3.3"/>
		<path fill="none" stroke="#000000" stroke-width="0.4936" stroke-miterlimit="10" d="M-298.8,280c0,0-0.1,5,5.5,2.4"/>
		<path fill="none" stroke="#000000" stroke-width="0.4936" stroke-miterlimit="10" d="M-301.8,282.9c0,0,2.8,0.7,4.3-0.2"/>
		<path fill="none" stroke="#000000" stroke-width="0.4936" stroke-miterlimit="10" d="M-296.1,286.9c0,0-4,0.4-3.7,2"/>
		
			<line fill="none" stroke="#000000" stroke-width="0.4936" stroke-miterlimit="10" x1="-296.6" y1="277.2" x2="-288.1" y2="277.9"/>
		<path fill="none" stroke="#000000" stroke-width="0.4936" stroke-miterlimit="10" d="M-288.9,280.6c0,0,0.7-2.6,1.7-0.7"/>
		<path fill="none" stroke="#000000" stroke-width="0.4936" stroke-miterlimit="10" d="M-296.1,272.9c0,0,0.4,0.6,1.3,0.6
			c0.2,0,0.3,0,0.5-0.1"/>
		<path fill="#EEEFF2" stroke="#000000" stroke-width="0.4936" stroke-miterlimit="10" d="M-299.2,269c0,0-4.1,2.6,1.7,3.2
			c0,0,0.6,1.4,2.8,1.2c0,0-0.6,3.4,3.5,2.5c0,0,0.3,2.5,2.7,1.9c0,0,0.2,1.2,2.9,0.6c0,0,0.2,2.4-2.4,4.2c0,0-1.9,2.9,0.9,2.4
			c0,0,4.2,0.9,3.9-1.4c0,0,2.6-0.9,1.4-2.6c0,0,2.3-2.8,0.7-3.6c0,0,1.7-3.3-0.4-3.7c0,0,2.4-2.9,0-3.3c0,0,0.4-3.3-2.2-3
			c0,0-0.3-2.4-3.5-1.1c0,0-0.4-3.5-3.3-1.6l-1.4,0.5c0,0-2.6-3.4-4.6,0.2c0,0-2.6-0.8-1.4,1.1C-297.9,266.7-300.1,267.4-299.2,269z
			"/>
		<circle fill="#E9C78C" stroke="#000000" stroke-width="0.4936" stroke-miterlimit="10" cx="-289.3" cy="282.7" r="1.2"/>
		<path fill="#D56397" stroke="#000000" stroke-width="0.4936" stroke-miterlimit="10" d="M-300.7,290.5c0,0-5.4,1-4.7,6.2
			c0,0-15.1,1.6-16.8,4.6c0,0-3.7,4.8-1.1,6l8.2,3.1c0,0,2.8,2.3,3.5,2.3c0,0,0.5-2.3,1.8-1.9c0,0,3.7-0.5,4,0.3
			c0,0,18.8,5.8,18.3-7.1l-0.2-7.5l-4.5-8.6L-300.7,290.5z"/>
		<path fill="#B73F76" stroke="#000000" stroke-width="0.4936" stroke-miterlimit="10" d="M-332.1,328.6c0.8,2,3,1.1,3,1.1
			s-2.8,3.6,2.6,4.1c0,0,10.8-1,10.7-4.8c0,0-0.7-3.4-3.4-3l-4.6-5C-323.9,321-333.8,324.7-332.1,328.6z"/>
		
			<ellipse transform="matrix(0.9315 0.3638 -0.3638 0.9315 90.0372 137.1586)" fill="#96306D" stroke="#000000" stroke-width="0.4936" stroke-miterlimit="10" cx="-319.1" cy="307.6" rx="5.4" ry="2.6"/>
		<path fill="#FCD1C4" stroke="#000000" stroke-width="0.4936" stroke-miterlimit="10" d="M-322.5,306.1c0,0,2.5-0.3,2.9,0
			c2,0.7,5,3.4,5,3.4s-4.2,16.6-2.9,18.8c0,0,1.7,3-10.1,2.7c0,0-3.2-1.2,1-3.2l1-0.4l-1,0.4c0,0-3.7,0.6-3.7-0.4
			c0,0-1.1-2.9,6.3-5.3c0,0,0-0.4,0.1-1.1C-323.8,318.5-324.5,306.1-322.5,306.1z"/>
		<path fill="#D56397" stroke="#000000" stroke-width="0.4936" stroke-miterlimit="10" d="M-289.4,284.6l2.6,1.5
			c0,0,6.2,1.9-0.5,10.5c0,0,0.7,3.2-3.2,2.8c0,0-1.1-5.4-6.1-4.7c0,0-1.8-0.6,0-2.7c0,0,5.6-6.7,8.4-5.9l0.9-0.4"/>
		<path fill="none" stroke="#000000" stroke-width="0.4936" stroke-miterlimit="10" d="M-319.6,306.1c-1.6,1.4-2.3,14.1-2.1,18.1
			c0,0.7-0.3,1.3-1,1.6l-4.4,2.3l-2.1,1.6l2.6-1.9"/>
		<path fill="#FCD1C4" stroke="#000000" stroke-width="0.4936" stroke-miterlimit="10" d="M-296.6,294.8l-0.8,1.4l-8,1.5l-2,0.3
			c-1,0.2-1.8,0.8-2.2,1.7l-2.1,4.3c0,0,0,1.4,1.5,0l0.1,2.1c0,0,1.2,0.8,1.5-1c0,0,2.1,2.2,1.6-1.1c0,0-0.6-1.9,2.5-3.4h10.3
			c0,0,3.2,0.1,3.9-1C-290.4,299.5-288.5,290.7-296.6,294.8z"/>
		
			<line fill="none" stroke="#000000" stroke-width="0.4936" stroke-linecap="round" stroke-miterlimit="10" x1="-309.4" y1="301.6" x2="-310.2" y2="303.9"/>
		
			<line fill="none" stroke="#000000" stroke-width="0.4936" stroke-linecap="round" stroke-miterlimit="10" x1="-308.8" y1="302.8" x2="-308.6" y2="305"/>
		<path fill="none" stroke="#000000" stroke-width="0.4936" stroke-linecap="round" stroke-miterlimit="10" d="M-293.8,298.8
			c0,0-0.1,1.6,1.7,0"/>
		<circle fill="#E9C78C" stroke="#000000" stroke-width="0.4936" stroke-miterlimit="10" cx="-300.6" cy="289.7" r="0.9"/>
		<circle fill="#E9C78C" stroke="#000000" stroke-width="0.4936" stroke-miterlimit="10" cx="-299.1" cy="289.7" r="0.9"/>
		<circle fill="#E9C78C" stroke="#000000" stroke-width="0.4936" stroke-miterlimit="10" cx="-297.3" cy="289.6" r="0.9"/>
		<circle fill="#E9C78C" stroke="#000000" stroke-width="0.4936" stroke-miterlimit="10" cx="-296.1" cy="288.8" r="0.9"/>
		<circle fill="#E9C78C" stroke="#000000" stroke-width="0.4936" stroke-miterlimit="10" cx="-294.7" cy="287.9" r="0.9"/>
		<circle fill="#E9C78C" stroke="#000000" stroke-width="0.4936" stroke-miterlimit="10" cx="-290.6" cy="285.5" r="0.9"/>
		<circle fill="#E9C78C" stroke="#000000" stroke-width="0.4936" stroke-miterlimit="10" cx="-292.1" cy="286.1" r="0.9"/>
		<circle fill="#E9C78C" stroke="#000000" stroke-width="0.4936" stroke-miterlimit="10" cx="-293.3" cy="287" r="0.9"/>
	</g>
</g>
<g id="Layer_2">
	<path fill="#4C3024" d="M-323.8,332.5c6.7,3.6,14.2,5.5,21.9,5.5c10.3,0,20-3.3,28.1-9.6c0.9-0.7,1-1.9,0.4-2.7
		c-0.7-0.9-1.9-1-2.7-0.4c-2.7,2.1-5.5,3.8-8.5,5.1l-0.7-17.5l8.9-47c0.2-0.9-0.4-1.8-1.3-2c-0.9-0.2-1.8,0.4-2,1.3l-6.2,32.8
		l-33.5-1c-0.6,0-1.3,0.5-1.3,1.2c0,0.7,0.5,1.3,1.2,1.3l5.4,0.2l-2,31.7c-2-0.7-3.9-1.5-5.7-2.5c-1-0.5-2.1-0.2-2.7,0.8
		C-325.1,330.8-324.8,332-323.8,332.5z M-288.5,322.7l-24.4-0.5l0.5-7.7l23.6,0.5L-288.5,322.7z M-307.4,310.3l0.6-10.2l4.2,0.1
		l-1,10.2C-303.5,310.4-307.4,310.3-307.4,310.3z M-301.1,300.3l4.2,0.1l-1.3,10.2l-3.9-0.1L-301.1,300.3z M-295.5,300.4l4.2,0.1
		l-1.6,10.1l-3.9-0.1L-295.5,300.4z M-311.5,300l3.3,0.1l-0.7,10.3l-3.3-0.1L-311.5,300z M-286.6,300.7l-1.9,10.1l-3.1-0.1l1.6-10.1
		L-286.6,300.7z M-302,334.1c-3.9,0-7.8-0.6-11.5-1.6l0.5-8.4l24.6,0.5l0.3,7.2C-292.5,333.3-297.2,334.1-302,334.1z"/>
</g>
</svg>
