<svg xmlns="http://www.w3.org/2000/svg" width="619" height="407" viewBox="0 0 619 407"><radialGradient id="a" cx="309.5" cy="203.5" r="389.754" gradientUnits="userSpaceOnUse"><stop offset="0" stop-color="#fff"/><stop offset="1" stop-color="#A6FFFF"/></radialGradient><radialGradient id="b" cx="309.5" cy="203.5" r="257.309" gradientUnits="userSpaceOnUse"><stop offset="0" stop-color="#0ff"/><stop offset="1" stop-color="#1B1464"/></radialGradient><path fill="url(#a)" stroke="url(#b)" stroke-miterlimit="10" d="M99.9 398.7h419.2s99.7 1.6 96.6-102.9c0 0-1.6-63.9-76.4-109.1 0 0-23.4-151.2-169.9-91.9 0 0-40.5-129.3-191.7-71.7 0 0-106 39-77.9 162.1 0 0-72.1 12.2-94.3 90.1-3.3 11.4-3.1 23.5.1 34.9 8.6 30.2 33 88.5 94.3 88.5z"/><text transform="matrix(.992 -.123 .123 .992 158.556 233.246)"><tspan x="0" y="0" fill="#CE1568" stroke="#0D0A77" stroke-miterlimit="10" font-family="'Moonglow-Regular'" font-size="80">EXPLORE</tspan><tspan x="-46" y="97.9" fill="#CE1568" stroke="#0D0A77" stroke-miterlimit="10" font-family="'Moonglow-Regular'" font-size="80">AND LEARN</tspan></text></svg>