<?xml version="1.0" encoding="utf-8"?>
<!-- Generator: Adobe Illustrator 18.1.1, SVG Export Plug-In . SVG Version: 6.00 Build 0)  -->
<!DOCTYPE svg PUBLIC "-//W3C//DTD SVG 1.1//EN" "http://www.w3.org/Graphics/SVG/1.1/DTD/svg11.dtd">
<svg version="1.1" id="Layer_1" xmlns="http://www.w3.org/2000/svg" xmlns:xlink="http://www.w3.org/1999/xlink" x="0px" y="0px"
	 viewBox="0 0 960 560" enable-background="new 0 0 960 560" xml:space="preserve">
<g>
	
		<radialGradient id="SVGID_1_" cx="309.441" cy="356.4909" r="389.8126" gradientTransform="matrix(1.3759 0 0 -1.3759 54.1523 770.516)" gradientUnits="userSpaceOnUse">
		<stop  offset="0" style="stop-color:#FFFFFF"/>
		<stop  offset="1" style="stop-color:#A6FFFF"/>
	</radialGradient>
	
		<radialGradient id="SVGID_2_" cx="309.441" cy="356.4909" r="257.3325" gradientTransform="matrix(1.3759 0 0 -1.3759 54.1523 770.516)" gradientUnits="userSpaceOnUse">
		<stop  offset="0" style="stop-color:#00FFFF"/>
		<stop  offset="1" style="stop-color:#1B1464"/>
	</radialGradient>
	<path fill="url(#SVGID_1_)" stroke="url(#SVGID_2_)" stroke-miterlimit="10" d="M191.6,548.6h576.8c0,0,137.2,2.2,132.9-141.6
		c0,0-2.2-87.9-105.1-150.1c0,0-32.2-208-233.8-126.4c0,0-55.7-177.9-263.8-98.7c0,0-145.8,53.7-107.2,223c0,0-99.2,16.8-129.7,124
		c-4.5,15.7-4.3,32.3,0.1,48C73.7,468.4,107.3,548.6,191.6,548.6L191.6,548.6z"/>
</g>
<text transform="matrix(0.9924 -0.123 0.123 0.9924 251.6801 323.4657)" fill="#E21313" font-family="'OpenSans-Extrabold'" font-size="112.2436">Nursery</text>
<text transform="matrix(0.9924 -0.123 0.123 0.9924 251.6801 323.4657)" fill="#CE1568" font-family="'OpenSans-Extrabold'" font-size="112.2436">Nursery</text>
<text transform="matrix(0.9924 -0.123 0.123 0.9924 294.1821 453.8755)" fill="#E21313" font-family="'OpenSans-Extrabold'" font-size="112.2436">Rhymes</text>
<text transform="matrix(0.9924 -0.123 0.123 0.9924 294.1821 453.8755)" fill="#CE1568" font-family="'OpenSans-Extrabold'" font-size="112.2436">Rhymes</text>
</svg>
