<?xml version="1.0" encoding="utf-8"?>
<!-- Generator: Adobe Illustrator 18.1.1, SVG Export Plug-In . SVG Version: 6.00 Build 0)  -->
<!DOCTYPE svg PUBLIC "-//W3C//DTD SVG 1.1//EN" "http://www.w3.org/Graphics/SVG/1.1/DTD/svg11.dtd">
<svg version="1.1" xmlns="http://www.w3.org/2000/svg" xmlns:xlink="http://www.w3.org/1999/xlink" x="0px" y="0px"
	 viewBox="0 0 619 407" enable-background="new 0 0 619 407" xml:space="preserve">
<g id="Layer_2">
	<radialGradient id="SVGID_1_" cx="309.5" cy="203.5" r="389.7538" gradientUnits="userSpaceOnUse">
		<stop  offset="0" style="stop-color:#FFFFFF"/>
		<stop  offset="1" style="stop-color:#A6FFFF"/>
	</radialGradient>
	<radialGradient id="SVGID_2_" cx="309.5" cy="203.5" r="257.309" gradientUnits="userSpaceOnUse">
		<stop  offset="0" style="stop-color:#00FFFF"/>
		<stop  offset="1" style="stop-color:#1B1464"/>
	</radialGradient>
	<path fill="url(#SVGID_1_)" stroke="url(#SVGID_2_)" stroke-miterlimit="10" d="M99.9,398.7h419.2c0,0,99.7,1.6,96.6-102.9
		c0,0-1.6-63.9-76.4-109.1c0,0-23.4-151.2-169.9-91.9c0,0-40.5-129.3-191.7-71.7c0,0-106,39-77.9,162.1c0,0-72.1,12.2-94.3,90.1
		c-3.3,11.4-3.1,23.5,0.1,34.9C14.2,340.4,38.6,398.7,99.9,398.7z"/>
</g>
<g id="Layer_1">
	<text transform="matrix(0.9924 -0.1235 0.1235 0.9924 143.5607 235.0912)"><tspan x="0" y="0" fill="#E21313" stroke="#000000" stroke-miterlimit="10" font-family="'Moonglow-Regular'" font-size="81.6099">Nursery </tspan><tspan x="19" y="97.9" fill="#E21313" stroke="#000000" stroke-miterlimit="10" font-family="'Moonglow-Regular'" font-size="81.6099">Rhymes </tspan></text>
</g>
</svg>
