<?xml version="1.0" encoding="utf-8"?>
<!-- Generator: Adobe Illustrator 18.1.1, SVG Export Plug-In . SVG Version: 6.00 Build 0)  -->
<!DOCTYPE svg PUBLIC "-//W3C//DTD SVG 1.1//EN" "http://www.w3.org/Graphics/SVG/1.1/DTD/svg11.dtd">
<svg version="1.1" xmlns="http://www.w3.org/2000/svg" xmlns:xlink="http://www.w3.org/1999/xlink" x="0px" y="0px" width="619px"
	 height="407px" viewBox="0 0 619 407" enable-background="new 0 0 619 407" xml:space="preserve">
<g id="Layer_2">
	<path fill="#EDF6F7" stroke="#0D0A77" stroke-miterlimit="10" d="M99.9,398.7h419.2c0,0,99.7,1.6,96.6-102.9
		c0,0-1.6-63.9-76.4-109.1c0,0-23.4-151.2-169.9-91.9c0,0-40.5-129.3-191.7-71.7c0,0-106,39-77.9,162.1c0,0-72.1,12.2-94.3,90.1
		c-3.3,11.4-3.1,23.5,0.1,34.9C14.2,340.4,38.6,398.7,99.9,398.7z"/>
</g>
<g id="Layer_1">
	<text transform="matrix(0.9854 -0.1702 0.1702 0.9854 113.5261 249.2385)"><tspan x="0" y="0" fill="#CE1568" stroke="#0D0A77" stroke-miterlimit="10" font-family="'BiffoMTStd'" font-size="110">Math and </tspan><tspan x="55.8" y="132" fill="#CE1568" stroke="#0D0A77" stroke-miterlimit="10" font-family="'BiffoMTStd'" font-size="110">English</tspan></text>
</g>
</svg>
