<svg xmlns="http://www.w3.org/2000/svg" viewBox="0 0 960 560" enable-background="new 0 0 960 560"><radialGradient id="a" cx="309.441" cy="356.491" r="389.813" gradientTransform="matrix(1.376 0 0 -1.376 54.152 770.516)" gradientUnits="userSpaceOnUse"><stop offset="0" stop-color="#fff"/><stop offset="1" stop-color="#A6FFFF"/></radialGradient><radialGradient id="b" cx="309.441" cy="356.491" r="257.332" gradientTransform="matrix(1.376 0 0 -1.376 54.152 770.516)" gradientUnits="userSpaceOnUse"><stop offset="0" stop-color="#0ff"/><stop offset="1" stop-color="#1B1464"/></radialGradient><path fill="url(#a)" stroke="url(#b)" stroke-miterlimit="10" d="M191.6 548.6h576.8s137.2 2.2 132.9-141.6c0 0-2.2-87.9-105.1-150.1 0 0-32.2-208-233.8-126.4 0 0-55.7-177.9-263.8-98.7 0 0-145.8 53.7-107.2 223 0 0-99.2 16.8-129.7 124-4.5 15.7-4.3 32.3.1 48 11.9 41.6 45.5 121.8 129.8 121.8z"/><text transform="matrix(.992 -.123 .123 .992 251.68 323.466)" fill="#E21313" font-family="'OpenSans-Extrabold'" font-size="112.244">Nursery</text><text transform="matrix(.992 -.123 .123 .992 251.68 323.466)" fill="#CE1568" font-family="'OpenSans-Extrabold'" font-size="112.244">Nursery</text><text transform="matrix(.992 -.123 .123 .992 294.182 453.875)" fill="#E21313" font-family="'OpenSans-Extrabold'" font-size="112.244">Rhymes</text><text transform="matrix(.992 -.123 .123 .992 294.182 453.875)" fill="#CE1568" font-family="'OpenSans-Extrabold'" font-size="112.244">Rhymes</text></svg>